<?xml version="1.0" encoding="UTF-8" standalone="no"?>
<!-- Created with Inkscape (http://www.inkscape.org/) -->

<svg
   width="210mm"
   height="297mm"
   viewBox="0 0 210 297"
   version="1.1"
   id="svg5"
   sodipodi:docname="sin_1_over_x.svg"
   inkscape:version="1.2.1 (9c6d41e410, 2022-07-14)"
   xmlns:inkscape="http://www.inkscape.org/namespaces/inkscape"
   xmlns:sodipodi="http://sodipodi.sourceforge.net/DTD/sodipodi-0.dtd"
   xmlns="http://www.w3.org/2000/svg"
   xmlns:svg="http://www.w3.org/2000/svg">
  <sodipodi:namedview
     id="namedview7"
     pagecolor="#ffffff"
     bordercolor="#000000"
     borderopacity="0.25"
     inkscape:showpageshadow="2"
     inkscape:pageopacity="0.0"
     inkscape:pagecheckerboard="0"
     inkscape:deskcolor="#d1d1d1"
     inkscape:document-units="mm"
     showgrid="false"
     inkscape:zoom="0.77593294"
     inkscape:cx="396.94152"
     inkscape:cy="561.90423"
     inkscape:window-width="1920"
     inkscape:window-height="1007"
     inkscape:window-x="0"
     inkscape:window-y="0"
     inkscape:window-maximized="1"
     inkscape:current-layer="layer1" />
  <defs
     id="defs2">
    <clipPath
       id="clipPath6622">
      <rect
         style="fill:none;stroke:#000000;stroke-width:0.264583"
         width="160.26407"
         height="169.12973"
         x="9.5476465"
         y="53.876007"
         id="rect658" />
    </clipPath>
  </defs>
  <g
     inkscape:label="Слой 1"
     inkscape:groupmode="layer"
     id="layer1">
    <path
       style="fill:none;stroke:#000000;stroke-width:0.264583"
       d="m 9.54765,138.441 h 160.264 M 9.54765,135.418 C 9.60112,1275.02 9.6546,-26617.3 9.70807,177.903 9.76155,26973.1 9.81502,3561.2 9.8685,210.308 9.92197,-3140.58 9.97545,-232.836 10.0289,222.223 10.0824,677.281 10.1359,5195.64 10.1893,91.7502 10.2428,-5012.14 10.2963,1418.41 10.3498,57.9183 10.4032,-1302.57 10.4567,-1355.04 10.5102,207.97 c 0.0535,1563.01 0.1069,1088.88 0.1604,-135.9192 0.0535,-1224.8008 0.107,-1363.8608 0.1604,79.1882 0.0535,1443.051 0.107,581.266 0.1605,61.862 0.0534,-519.404 0.1069,-433.385 0.1604,0.82 0.0535,434.204 0.1069,-843.056 0.1604,-94.82 0.0535,748.237 0.107,-624.875 0.1604,-4.121 0.0535,620.755 0.107,371.959 0.1605,96.341 0.0534,-275.6174 0.1069,-45.34 0.1604,11.17 0.0535,56.51 0.1069,-151.6647 0.1604,-168.568 0.0535,-16.9033 0.107,-286.479 0.1604,55.161 0.0535,341.639 0.107,-267.338 0.1605,-26.8579 0.0534,240.4799 0.1069,226.0969 0.1604,2.4226 0.0535,-223.6747 0.1069,-24.7426 0.1604,123.3973 0.0535,148.14 0.107,132.719 0.1604,-92.621 0.0535,-225.339 0.107,-124.08203 0.1605,-57.128 0.0534,66.954 0.1069,-130.1841 0.1604,51.667 0.0535,181.851 0.1069,-153.5369 0.1604,22.997 0.0535,176.535 0.107,-175.5861 0.1604,-22.106 0.0535,153.481 0.107,-117.21743 0.1605,-47.0107 0.0534,70.2067 0.1069,96.6587 0.1604,8.9932 0.0535,-87.6655 0.1069,218.7065 0.1604,117.6785 0.0535,-101.0287 0.107,-104.5249 0.1604,-5.078 C 14.093,284.885 14.1465,57.6533 14.2,53.9181 14.2534,50.183 14.3069,268.461 14.3604,205.97 14.4139,143.479 14.4673,12.6184 14.5208,98.3806 c 0.0535,85.7624 0.107,151.5994 0.1604,63.8544 0.0535,-87.7441 0.107,-129.7909 0.1605,-47.145 0.0534,82.647 0.1069,133.432 0.1604,60.835 0.0535,-72.597 0.1069,-151.3881 0.1604,-98.6054 0.0535,52.7824 0.107,161.3114 0.1604,142.8574 0.0535,-18.455 0.107,-134.1682 0.1605,-160.0573 0.0534,-25.8892 0.1069,52.1553 0.1604,111.7833 0.0535,59.628 0.1069,60.74 0.1604,6.457 0.0535,-54.284 0.107,-128.2437 0.1604,-124.2846 0.0535,3.9591 0.107,78.4896 0.1605,126.7586 0.0534,48.268 0.1069,52.246 0.1604,11.156 0.0535,-41.09 0.1069,-110.4166 0.1604,-130.919 0.0535,-20.5025 0.1069,11.0409 0.1604,58.183 0.0535,47.143 0.107,97.547 0.1604,103.14 0.0535,5.594 0.107,-32.661 0.1605,-76.798 0.0534,-44.137 0.1069,-86.1345 0.1604,-91.1377 0.0535,-5.0031 0.1069,26.2582 0.1604,66.0087 0.0535,39.751 0.107,82.601 0.1604,96.784 0.0535,14.182 0.107,-0.892 0.1605,-32.153 0.0534,-31.261 0.1069,-75.284 0.1604,-102.4026 0.0535,-27.1187 0.1069,-35.6226 0.1604,-22.0435 0.0535,13.5791 0.107,47.7361 0.1604,81.0881 0.0535,33.352 0.107,63.92 0.1605,75.553 0.0534,11.634 0.1069,4.13 0.1604,-16.99 0.0535,-21.119 0.1069,-54.645 0.1604,-83.548 0.0535,-28.902 0.107,-52.1325 0.1604,-59.8283 0.0535,-7.6957 0.107,0.1619 0.1605,18.8781 0.0534,18.7161 0.1069,47.5822 0.1604,74.2642 0.0535,26.683 0.1069,50.517 0.1604,62.859 0.0535,12.342 0.107,13.042 0.1604,2.877 0.0535,-10.166 0.107,-30.884 0.1605,-54.355 0.0534,-23.471 0.1069,-49.258 0.1604,-69.0762 0.0535,-19.8182 0.1069,-33.4094 0.1604,-37.2838 0.0535,-3.8745 0.107,1.9521 0.1604,15.0219 0.0535,13.0699 0.107,33.1811 0.1605,54.4141 0.0534,21.233 0.1069,43.356 0.1604,60.754 0.0535,17.398 0.1069,29.927 0.1604,35.022 0.0535,5.094 0.107,2.741 0.1604,-5.918 0.0535,-8.659 0.107,-23.537 0.1605,-40.959 0.0534,-17.422 0.1069,-37.265 0.1604,-55.324 0.0535,-18.06 0.1069,-34.2324 0.1604,-45.5712 0.0535,-11.3388 0.107,-17.791 0.1604,-18.5717 0.0535,-0.7807 0.107,4.1071 0.1605,13.3714 0.0534,9.2643 0.1069,22.8623 0.1604,38.2215 0.0535,15.358 0.1069,32.418 0.1604,48.382 0.0535,15.964 0.107,30.776 0.1604,42.323 0.0535,11.548 0.107,19.793 0.1605,23.82 0.0534,4.027 0.1069,3.821 0.1604,-0.27 0.0535,-4.091 0.1069,-12.061 0.1604,-22.596 0.0535,-10.535 0.107,-23.615 0.1604,-37.448 0.0535,-13.833 0.107,-28.392 0.1605,-41.922 0.0534,-13.529 0.1069,-26.0031 0.1604,-36.1058 0.0535,-10.1026 0.1069,-17.8123 0.1604,-22.4801 0.0535,-4.6679 0.107,-6.2798 0.1604,-4.8902 0.0535,1.3897 0.107,5.7864 0.1605,12.5494 0.0534,6.763 0.1069,15.89 0.1604,26.3659 0.0535,10.4758 0.1069,22.2928 0.1604,34.3048 0.0535,12.012 0.107,24.207 0.1604,35.535 0.0535,11.327 0.107,21.772 0.1605,30.544 0.0534,8.772 0.1069,15.857 0.1604,20.816 0.0535,4.959 0.1069,7.78 0.1604,8.397 0.0535,0.616 0.1069,-0.981 0.1604,-4.529 0.0535,-3.548 0.107,-9.053 0.1604,-16.005 0.0535,-6.951 0.107,-15.352 0.1605,-24.551 0.0534,-9.2 0.1069,-19.195 0.1604,-29.302 0.0535,-10.106 0.1069,-20.318 0.1604,-30.006 0.0535,-9.689 0.107,-18.8476 0.1604,-26.9738 0.0535,-8.1262 0.107,-15.2122 0.1605,-20.9252 0.0534,-5.713 0.1069,-10.0448 0.1604,-12.8481 0.0535,-2.8033 0.1069,-4.0702 0.1604,-3.8309 0.0535,0.2394 0.107,1.9917 0.1604,5.0757 0.0535,3.0839 0.107,7.5045 0.1605,12.9668 0.0534,5.4622 0.1069,11.9692 0.1604,19.1555 0.0535,7.1864 0.1069,15.053 0.1604,23.208 0.0535,8.155 0.107,16.597 0.1604,24.946 0.0535,8.349 0.107,16.602 0.1605,24.423 0.0534,7.821 0.1069,15.206 0.1604,21.885 0.0535,6.679 0.1069,12.647 0.1604,17.717 0.0535,5.07 0.107,9.235 0.1604,12.393 0.0535,3.159 0.107,5.305 0.1605,6.42 0.0534,1.116 0.1069,1.195 0.1604,0.294 0.0535,-0.9 0.1069,-2.785 0.1604,-5.536 0.0535,-2.75 0.107,-6.369 0.1604,-10.692 0.0535,-4.323 0.107,-9.352 0.1605,-14.891 0.0534,-5.539 0.1069,-11.589 0.1604,-17.94 0.0535,-6.35 0.1069,-13.002 0.1604,-19.745 0.0535,-6.743 0.107,-13.575 0.1604,-20.301 0.0535,-6.725 0.107,-13.342 0.1605,-19.675 0.0534,-6.333 0.1069,-12.381 0.1604,-17.9993 0.0535,-5.6181 0.1069,-10.8037 0.1604,-15.4475 0.0535,-4.6437 0.107,-8.7425 0.1604,-12.2238 0.0535,-3.4814 0.107,-6.3417 0.1605,-8.5456 0.0534,-2.2038 0.1069,-3.7473 0.1604,-4.6295 0.0535,-0.8823 0.1069,-1.0995 0.1604,-0.6817 0.0535,0.4178 0.107,1.4741 0.1604,3.1128 0.0535,1.6386 0.107,3.8626 0.1605,6.5949 0.0534,2.7323 0.1069,5.9755 0.1604,9.6369 0.0535,3.6615 0.1069,7.7434 0.1604,12.1432 0.0535,4.3999 0.107,9.1193 0.1604,14.0511 0.0535,4.9315 0.107,10.0775 0.1605,15.3295 0.0534,5.251 0.1069,10.61 0.1604,15.974 0.0535,5.363 0.1069,10.731 0.1604,16.008 0.0535,5.277 0.107,10.464 0.1604,15.475 0.0535,5.011 0.107,9.846 0.1605,14.433 0.0534,4.587 0.1069,8.924 0.1604,12.955 0.0535,4.03 0.1069,7.752 0.1604,11.121 0.0535,3.37 0.107,6.385 0.1604,9.016 0.0535,2.632 0.107,4.879 0.1605,6.725 0.0534,1.847 0.1069,3.291 0.1604,4.331 0.0535,1.04 0.1069,1.673 0.1604,1.911 0.0535,0.237 0.1069,0.077 0.1604,-0.461 0.0535,-0.538 0.107,-1.456 0.1604,-2.723 0.0535,-1.267 0.107,-2.886 0.1605,-4.819 0.0534,-1.933 0.1069,-4.182 0.1604,-6.705 0.0535,-2.523 0.1069,-5.321 0.1604,-8.348 0.0535,-3.026 0.107,-6.282 0.1604,-9.719 0.0535,-3.436 0.107,-7.054 0.1605,-10.804 0.0534,-3.75 0.1069,-7.632 0.1604,-11.597 0.0535,-3.964 0.1069,-8.012 0.1604,-12.095 0.0535,-4.083 0.107,-8.202 0.1604,-12.31 0.0535,-4.108 0.107,-8.206 0.1605,-12.252 0.0534,-4.046 0.1069,-8.039 0.1604,-11.941 0.0535,-3.903 0.1069,-7.714 0.1604,-11.4 0.0535,-3.686 0.107,-7.247 0.1604,-10.6536 0.0535,-3.4064 0.107,-6.6576 0.1605,-9.7298 0.0534,-3.0723 0.1069,-5.9646 0.1604,-8.6583 0.0535,-2.6936 0.1069,-5.1875 0.1604,-7.4679 0.0535,-2.2805 0.107,-4.3462 0.1604,-6.1886 0.0535,-1.8423 0.107,-3.4599 0.1605,-4.8485 0.0534,-1.3887 0.1069,-2.5471 0.1604,-3.4755 0.0535,-0.9283 0.1069,-1.6253 0.1604,-2.0949 0.0535,-0.4696 0.107,-0.7106 0.1604,-0.7306 0.0535,-0.02 0.107,0.1823 0.1605,0.596 0.0534,0.4136 0.1069,1.04 0.1604,1.8655 0.0535,0.8256 0.1069,1.8514 0.1604,3.0618 0.0535,1.2104 0.107,2.6065 0.1604,4.1705 0.0535,1.5641 0.107,3.2971 0.1605,5.1802 0.0534,1.883 0.1069,3.917 0.1604,6.0818 0.0535,2.1647 0.1069,4.4612 0.1604,6.8686 0.0535,2.4074 0.107,4.9264 0.1604,7.5362 0.0535,2.6098 0.107,5.3108 0.1605,8.0823 0.0534,2.7718 0.1069,5.6138 0.1604,8.5068 0.0535,2.892 0.1069,5.835 0.1604,8.809 0.0535,2.974 0.107,5.979 0.1604,8.996 0.0535,3.016 0.107,6.045 0.1605,9.067 0.0534,3.022 0.1069,6.038 0.1604,9.031 0.0535,2.993 0.1069,5.963 0.1604,8.894 0.0535,2.93 0.107,5.822 0.1604,8.66 0.0535,2.839 0.107,5.623 0.1605,8.341 0.0534,2.719 0.1069,5.37 0.1604,7.944 0.0535,2.573 0.1069,5.068 0.1604,7.475 0.0535,2.407 0.107,4.725 0.1604,6.946 0.0535,2.222 0.107,4.346 0.1605,6.365 0.0534,2.02 0.1069,3.935 0.1604,5.74 0.0535,1.805 0.1069,3.5 0.1604,5.08 0.0535,1.58 0.107,3.045 0.1604,4.393 0.0535,1.348 0.107,2.577 0.1605,3.688 0.0534,1.11 0.1069,2.101 0.1604,2.971 0.0535,0.871 0.1069,1.621 0.1604,2.252 0.0535,0.631 0.107,1.142 0.1604,1.535 0.0535,0.393 0.107,0.667 0.1604,0.826 0.0535,0.16 0.107,0.203 0.1605,0.134 0.0534,-0.068 0.1069,-0.249 0.1604,-0.538 0.0535,-0.289 0.1069,-0.687 0.1604,-1.187 0.0535,-0.5 0.107,-1.104 0.1604,-1.805 0.0535,-0.702 0.107,-1.501 0.1605,-2.393 0.0534,-0.891 0.1069,-1.874 0.1604,-2.943 0.0535,-1.068 0.1069,-2.223 0.1604,-3.456 0.0535,-1.233 0.107,-2.545 0.1604,-3.929 0.0535,-1.384 0.107,-2.84 0.1605,-4.361 0.0534,-1.52 0.1069,-3.106 0.1604,-4.749 0.0535,-1.643 0.1069,-3.343 0.1604,-5.094 0.0535,-1.75 0.107,-3.551 0.1604,-5.395 0.0535,-1.844 0.107,-3.731 0.1605,-5.653 0.0534,-1.922 0.1069,-3.88 0.1604,-5.866 0.0535,-1.987 0.1069,-4.001 0.1604,-6.038 0.0535,-2.036 0.107,-4.094 0.1604,-6.166 0.0535,-2.072 0.107,-4.159 0.1605,-6.254 0.0534,-2.096 0.1069,-4.199 0.1604,-6.304 0.0535,-2.104 0.1069,-4.211 0.1604,-6.313 0.0535,-2.103 0.107,-4.201 0.1604,-6.289 0.0535,-2.088 0.107,-4.165 0.1605,-6.228 0.0534,-2.062 0.1069,-4.109 0.1604,-6.136 0.0535,-2.026 0.1069,-4.032 0.1604,-6.012 0.0535,-1.981 0.107,-3.936 0.1604,-5.862 0.0535,-1.925 0.107,-3.821 0.1605,-5.683 0.0534,-1.862 0.1069,-3.691 0.1604,-5.482 0.0535,-1.791 0.1069,-3.5445 0.1604,-5.2576 0.0535,-1.7131 0.107,-3.3854 0.1604,-5.0142 0.0535,-1.6289 0.107,-3.214 0.1605,-4.753 0.0534,-1.5391 0.1069,-3.0318 0.1604,-4.4762 0.0535,-1.4444 0.1069,-2.8402 0.1604,-4.1858 0.0535,-1.3456 0.107,-2.6408 0.1604,-3.8841 0.0535,-1.2434 0.107,-2.4346 0.1605,-3.5729 0.0534,-1.1382 0.1069,-2.2231 0.1604,-3.254 0.0535,-1.0309 0.1069,-2.0075 0.1604,-2.9294 0.0535,-0.9219 0.107,-1.7889 0.1604,-2.6008 0.0535,-0.8119 0.107,-1.5684 0.1605,-2.2697 0.0534,-0.7014 0.1069,-1.3472 0.1604,-1.938 0.0535,-0.5908 0.1069,-1.1262 0.1604,-1.6069 0.0535,-0.4806 0.107,-0.9063 0.1604,-1.2778 0.0535,-0.3715 0.107,-0.6886 0.1605,-0.9523 0.0534,-0.2637 0.1069,-0.4737 0.1604,-0.6313 0.0535,-0.1576 0.1069,-0.2624 0.1604,-0.316 0.0535,-0.0536 0.107,-0.0556 0.1604,-0.0076 0.0535,0.048 0.107,0.1463 0.1605,0.2931 0.0534,0.1469 0.1069,0.3426 0.1604,0.5853 0.0535,0.2427 0.1069,0.5327 0.1604,0.8681 0.0535,0.3353 0.107,0.7163 0.1604,1.1408 0.0535,0.4245 0.107,0.8928 0.1604,1.4029 0.0535,0.51 0.107,1.062 0.1605,1.6538 0.0534,0.5917 0.1069,1.2235 0.1604,1.893 0.0535,0.6695 0.1069,1.3771 0.1604,2.1203 0.0535,0.7432 0.107,1.5224 0.1604,2.3352 0.0535,0.8127 0.107,1.6593 0.1605,2.5374 0.0534,0.8781 0.1069,1.7879 0.1604,2.727 0.0535,0.9391 0.1069,1.9078 0.1604,2.9036 0.0535,0.9959 0.107,2.0191 0.1604,3.0673 0.0535,1.0482 0.107,2.1216 0.1605,3.2179 0.0534,1.0962 0.1069,2.2155 0.1604,3.3555 0.0535,1.14 0.1069,2.3009 0.1604,3.4803 0.0535,1.1795 0.107,2.3776 0.1604,3.5923 0.0535,1.2146 0.107,2.4459 0.1605,3.6916 0.0534,1.2456 0.1069,2.5058 0.1604,3.7784 0.0535,1.2726 0.1069,2.5578 0.1604,3.8528 0.0535,1.296 0.107,2.602 0.1604,3.916 0.0535,1.314 0.107,2.637 0.1605,3.967 0.0534,1.329 0.1069,2.665 0.1604,4.006 0.0535,1.341 0.1069,2.686 0.1604,4.035 0.0535,1.348 0.107,2.699 0.1604,4.052 0.0535,1.353 0.107,2.706 0.1605,4.06 0.0534,1.353 0.1069,2.706 0.1604,4.057 0.0535,1.35 0.1069,2.699 0.1604,4.044 0.0535,1.345 0.107,2.687 0.1604,4.023 0.0535,1.336 0.107,2.668 0.1605,3.993 0.0534,1.324 0.1069,2.643 0.1604,3.953 0.0535,1.31 0.1069,2.613 0.1604,3.906 0.0535,1.294 0.107,2.578 0.1604,3.852 0.0535,1.274 0.107,2.538 0.1605,3.79 0.0534,1.252 0.1069,2.493 0.1604,3.721 0.0535,1.228 0.1069,2.444 0.1604,3.646 0.0535,1.202 0.107,2.391 0.1604,3.565 0.0535,1.174 0.107,2.334 0.1605,3.478 0.0534,1.145 0.1069,2.274 0.1604,3.387 0.0535,1.113 0.1069,2.209 0.1604,3.289 0.0535,1.08 0.107,2.143 0.1604,3.188 0.0535,1.046 0.107,2.074 0.1605,3.083 0.0534,1.01 0.1069,2.002 0.1604,2.974 0.0535,0.973 0.1069,1.927 0.1604,2.862 0.0535,0.935 0.107,1.851 0.1604,2.747 0.0535,0.896 0.107,1.772 0.1605,2.629 0.0534,0.856 0.1069,1.692 0.1604,2.508 0.0535,0.816 0.1069,1.611 0.1604,2.386 0.0535,0.775 0.107,1.53 0.1604,2.263 0.0535,0.733 0.107,1.446 0.1605,2.137 0.0534,0.692 0.1069,1.362 0.1604,2.011 0.0535,0.65 0.1069,1.277 0.1604,1.884 0.0535,0.607 0.107,1.192 0.1604,1.757 0.0535,0.564 0.107,1.107 0.1604,1.628 0.0535,0.522 0.107,1.022 0.1605,1.5 0.0534,0.479 0.1069,0.937 0.1604,1.373 0.0535,0.437 0.1069,0.852 0.1604,1.246 0.0535,0.394 0.107,0.767 0.1604,1.118 0.0535,0.352 0.107,0.683 0.1605,0.993 0.0534,0.31 0.1069,0.6 0.1604,0.868 0.0535,0.269 0.1069,0.517 0.1604,0.745 0.0535,0.227 0.107,0.435 0.1604,0.622 0.0535,0.187 0.107,0.354 0.1605,0.501 0.0534,0.148 0.1069,0.275 0.1604,0.383 0.0535,0.107 0.1069,0.196 0.1604,0.265 0.0535,0.069 0.107,0.119 0.1604,0.15 0.0535,0.03 0.107,0.042 0.1605,0.036 0.0534,-0.006 0.1069,-0.031 0.1604,-0.074 0.0535,-0.044 0.1069,-0.105 0.1604,-0.184 0.0535,-0.079 0.107,-0.176 0.1604,-0.29 0.0535,-0.114 0.107,-0.245 0.1605,-0.393 0.0534,-0.149 0.1069,-0.314 0.1604,-0.496 0.0535,-0.181 0.1069,-0.379 0.1604,-0.594 0.0535,-0.214 0.107,-0.444 0.1604,-0.69 0.0535,-0.246 0.107,-0.507 0.1605,-0.783 0.0534,-0.277 0.1069,-0.569 0.1604,-0.875 0.0535,-0.306 0.1069,-0.627 0.1604,-0.962 0.0535,-0.335 0.107,-0.685 0.1604,-1.048 0.0535,-0.363 0.107,-0.739 0.1605,-1.129 0.0534,-0.39 0.1069,-0.793 0.1604,-1.209 0.0535,-0.416 0.1069,-0.845 0.1604,-1.285 0.0535,-0.441 0.107,-0.894 0.1604,-1.359 0.0535,-0.465 0.107,-0.942 0.1605,-1.43 0.0534,-0.487 0.1069,-0.987 0.1604,-1.497 0.0535,-0.51 0.1069,-1.03 0.1604,-1.561 0.0535,-0.531 0.107,-1.073 0.1604,-1.624 0.0535,-0.551 0.107,-1.112 0.1605,-1.682 0.0534,-0.571 0.1069,-1.15 0.1604,-1.739 0.0535,-0.588 0.1069,-1.186 0.1604,-1.791 0.0535,-0.606 0.107,-1.22 0.1604,-1.842 0.0535,-0.622 0.107,-1.252 0.1605,-1.89 0.0534,-0.637 0.1069,-1.282 0.1604,-1.934 0.0535,-0.651 0.1069,-1.31 0.1604,-1.976 0.0535,-0.665 0.107,-1.337 0.1604,-2.015 0.0535,-0.678 0.107,-1.362 0.1605,-2.051 0.0534,-0.69 0.1069,-1.385 0.1604,-2.086 0.0535,-0.7 0.1069,-1.406 0.1604,-2.116 0.0535,-0.711 0.107,-1.426 0.1604,-2.146 0.0535,-0.719 0.107,-1.443 0.1605,-2.171 0.0534,-0.728 0.1069,-1.46 0.1604,-2.195 0.0535,-0.735 0.1069,-1.474 0.1604,-2.216 0.0535,-0.742 0.107,-1.487 0.1604,-2.235 0.0535,-0.748 0.107,-1.499 0.1605,-2.252 0.0534,-0.753 0.1069,-1.508 0.1604,-2.265 0.0534,-0.757 0.1069,-1.517 0.1604,-2.278 0.0535,-0.761 0.1069,-1.523 0.1604,-2.287 0.0535,-0.764 0.107,-1.529 0.1604,-2.295 0.0535,-0.766 0.107,-1.533 0.1605,-2.3 0.0534,-0.768 0.1069,-1.536 0.1604,-2.304 0.0535,-0.768 0.1069,-1.537 0.1604,-2.305 0.0535,-0.769 0.107,-1.537 0.1604,-2.305 0.0535,-0.768 0.107,-1.536 0.1605,-2.303 0.0534,-0.767 0.1069,-1.533 0.1604,-2.299 0.0535,-0.765 0.1069,-1.529 0.1604,-2.293 0.0535,-0.763 0.107,-1.525 0.1604,-2.285 0.0535,-0.76 0.107,-1.519 0.1605,-2.276 0.0534,-0.757 0.1069,-1.512 0.1604,-2.265 0.0535,-0.753 0.1069,-1.505 0.1604,-2.253 0.0535,-0.749 0.107,-1.496 0.1604,-2.24 0.0535,-0.744 0.107,-1.485 0.1605,-2.224 0.0534,-0.738 0.1069,-1.474 0.1604,-2.207 0.0535,-0.733 0.1069,-1.463 0.1604,-2.19 0.0535,-0.726 0.107,-1.45 0.1604,-2.17 0.0535,-0.72 0.107,-1.437 0.1605,-2.15 0.0534,-0.713 0.1069,-1.422 0.1604,-2.128 0.0535,-0.706 0.1069,-1.407 0.1604,-2.105 0.0535,-0.698 0.107,-1.392 0.1604,-2.082 0.0535,-0.69 0.107,-1.375 0.1605,-2.057 0.0534,-0.681 0.1069,-1.358 0.1604,-2.031 0.0535,-0.672 0.1069,-1.34 0.1604,-2.004 0.0535,-0.664 0.107,-1.322 0.1604,-1.977 0.0535,-0.654 0.107,-1.303 0.1605,-1.948 0.0534,-0.644 0.1069,-1.284 0.1604,-1.918 0.0535,-0.635 0.1069,-1.265 0.1604,-1.889 0.0535,-0.625 0.107,-1.244 0.1604,-1.858 0.0535,-0.614 0.107,-1.223 0.1605,-1.8267 0.0534,-0.6035 0.1069,-1.2017 0.1604,-1.7945 0.0535,-0.5927 0.1069,-1.18 0.1604,-1.7618 0.0535,-0.5818 0.107,-1.158 0.1604,-1.7286 0.0535,-0.5707 0.107,-1.1357 0.1605,-1.695 0.0534,-0.5593 0.1069,-1.1129 0.1604,-1.6607 0.0535,-0.5478 0.1069,-1.0899 0.1604,-1.6261 0.0535,-0.5362 0.107,-1.0666 0.1604,-1.5911 0.0535,-0.5245 0.107,-1.043 0.1605,-1.5557 0.0534,-0.5126 0.1069,-1.0193 0.1604,-1.5199 0.0535,-0.5007 0.1069,-0.9953 0.1604,-1.4839 0.0535,-0.4887 0.107,-0.9712 0.1604,-1.4477 0.0535,-0.4764 0.107,-0.9468 0.1605,-1.4111 0.0534,-0.4642 0.1069,-0.9223 0.1604,-1.3743 0.0535,-0.452 0.1069,-0.8978 0.1604,-1.3374 0.0535,-0.4396 0.107,-0.8731 0.1604,-1.3003 0.0535,-0.4273 0.107,-0.8483 0.1605,-1.2632 0.0534,-0.4148 0.1069,-0.8234 0.1604,-1.2258 0.0534,-0.4024 0.1069,-0.7986 0.1604,-1.1885 0.0535,-0.39 0.1069,-0.7737 0.1604,-1.1511 0.0535,-0.3775 0.107,-0.7487 0.1604,-1.1137 0.0535,-0.365 0.107,-0.7237 0.1605,-1.0763 0.0534,-0.3525 0.1069,-0.6988 0.1604,-1.0388 0.0535,-0.3401 0.1069,-0.6739 0.1604,-1.0015 0.0535,-0.3277 0.107,-0.6491 0.1604,-0.9643 0.0535,-0.3152 0.107,-0.6242 0.1605,-0.9271 0.0534,-0.3028 0.1069,-0.5994 0.1604,-0.89 0.0535,-0.2905 0.1069,-0.5748 0.1604,-0.853 0.0535,-0.2782 0.107,-0.5503 0.1604,-0.8163 0.0535,-0.266 0.107,-0.5258 0.1605,-0.7796 0.0534,-0.2538 0.1069,-0.5015 0.1604,-0.7432 0.0535,-0.2417 0.1069,-0.4773 0.1604,-0.707 0.0535,-0.2296 0.107,-0.4532 0.1604,-0.6709 0.0535,-0.2176 0.107,-0.4293 0.1605,-0.6351 0.0534,-0.2057 0.1069,-0.4056 0.1604,-0.5995 0.0535,-0.194 0.1069,-0.382 0.1604,-0.5643 0.0535,-0.1822 0.107,-0.3586 0.1604,-0.5292 0.0535,-0.1706 0.107,-0.3354 0.1605,-0.4944 0.0534,-0.1591 0.1069,-0.3124 0.1604,-0.46 0.0535,-0.1476 0.1069,-0.2896 0.1604,-0.4259 0.0535,-0.1362 0.107,-0.2669 0.1604,-0.392 0.0535,-0.125 0.107,-0.2445 0.1605,-0.3584 0.0534,-0.114 0.1069,-0.2224 0.1604,-0.3253 0.0535,-0.103 0.1069,-0.2004 0.1604,-0.2925 0.0535,-0.0921 0.107,-0.1787 0.1604,-0.26 0.0535,-0.0813 0.107,-0.1572 0.1605,-0.2279 0.0534,-0.0706 0.1069,-0.136 0.1604,-0.1961 0.0535,-0.0601 0.1069,-0.115 0.1604,-0.1647 0.0535,-0.0497 0.107,-0.0943 0.1604,-0.1337 0.0535,-0.0395 0.107,-0.0739 0.1605,-0.1032 0.0534,-0.0293 0.1069,-0.0536 0.1604,-0.0729 0.0535,-0.0193 0.1069,-0.0336 0.1604,-0.0431 0.0535,-0.0094 0.107,-0.014 0.1604,-0.0137 0.0535,3e-4 0.107,0.0054 0.1605,0.0153 0.0534,0.0099 0.1069,0.0246 0.1604,0.0439 0.0535,0.0194 0.1069,0.0434 0.1604,0.0721 0.0535,0.0287 0.107,0.062 0.1604,0.0999 0.0535,0.0378 0.107,0.0802 0.1605,0.1271 0.0534,0.0469 0.1069,0.0983 0.1604,0.1541 0.0535,0.0558 0.1069,0.116 0.1604,0.1805 0.0535,0.0646 0.107,0.1335 0.1604,0.2066 0.0535,0.0732 0.107,0.1506 0.1605,0.2322 0.0534,0.0816 0.1069,0.1675 0.1604,0.2574 0.0535,0.09 0.1069,0.184 0.1604,0.2822 0.0535,0.0981 0.107,0.2003 0.1604,0.3064 0.0535,0.1062 0.107,0.2163 0.1605,0.3303 0.0534,0.1141 0.1069,0.232 0.1604,0.3538 0.0534,0.1218 0.1069,0.2474 0.1604,0.3768 0.0535,0.1293 0.1069,0.2625 0.1604,0.3993 0.0535,0.1368 0.107,0.2773 0.1604,0.4215 0.0535,0.1441 0.107,0.2918 0.1605,0.4431 0.0534,0.1513 0.1069,0.3061 0.1604,0.4644 0.0535,0.1583 0.1069,0.3201 0.1604,0.4853 0.0535,0.1652 0.107,0.3337 0.1604,0.5056 0.0535,0.1719 0.107,0.3472 0.1605,0.5256 0.0534,0.1785 0.1069,0.3603 0.1604,0.5452 0.0535,0.1849 0.1069,0.373 0.1604,0.5642 0.0535,0.1912 0.107,0.3856 0.1604,0.5829 0.0535,0.1974 0.107,0.3978 0.1605,0.6012 0.0534,0.2034 0.1069,0.4098 0.1604,0.619 0.0535,0.2093 0.1069,0.4214 0.1604,0.6364 0.0535,0.215 0.107,0.4329 0.1604,0.6534 0.0535,0.2206 0.107,0.444 0.1605,0.67 0.0534,0.2261 0.1069,0.4548 0.1604,0.6862 0.0535,0.2314 0.1069,0.4654 0.1604,0.7019 0.0535,0.2366 0.107,0.4757 0.1604,0.7173 0.0535,0.2416 0.107,0.4857 0.1605,0.7322 0.0534,0.2466 0.1069,0.4955 0.1604,0.7468 0.0535,0.2513 0.1069,0.505 0.1604,0.761 0.0535,0.2559 0.107,0.5142 0.1604,0.7747 0.0535,0.2605 0.107,0.5232 0.1605,0.788 0.0534,0.2649 0.1069,0.532 0.1604,0.8011 0.0535,0.2692 0.1069,0.5404 0.1604,0.8137 0.0535,0.2733 0.107,0.5486 0.1604,0.8259 0.0535,0.2773 0.107,0.5565 0.1605,0.8377 0.0534,0.2812 0.1069,0.5643 0.1604,0.8492 0.0535,0.285 0.1069,0.5718 0.1604,0.8604 0.0535,0.2885 0.107,0.5789 0.1604,0.871 0.0535,0.2922 0.107,0.586 0.1605,0.8815 0.0534,0.2955 0.1069,0.5927 0.1604,0.8915 0.0535,0.2988 0.1069,0.5992 0.1604,0.9012 0.0535,0.302 0.107,0.6055 0.1604,0.9105 0.0535,0.305 0.107,0.6116 0.1605,0.9195 0.0534,0.308 0.1069,0.6174 0.1604,0.9282 0.0535,0.3108 0.1069,0.6229 0.1604,0.9364 0.0535,0.3136 0.107,0.6284 0.1604,0.9445 0.0535,0.3161 0.107,0.6335 0.1605,0.9521 0.0534,0.3186 0.1069,0.6385 0.1604,0.9595 0.0535,0.321 0.1069,0.6432 0.1604,0.9665 0.0535,0.3232 0.107,0.6477 0.1604,0.9731 0.0535,0.3255 0.107,0.652 0.1605,0.9796 0.0534,0.3276 0.1069,0.6561 0.1604,0.9857 0.0535,0.3295 0.1069,0.66 0.1604,0.9914 0.0535,0.3314 0.107,0.6638 0.1604,0.997 0.0535,0.3332 0.107,0.6672 0.1605,1.0021 0.0534,0.3349 0.1069,0.6706 0.1604,1.0071 0.0535,0.3364 0.1069,0.6737 0.1604,1.0117 0.0535,0.3379 0.1069,0.6766 0.1604,1.016 0.0535,0.3394 0.107,0.6794 0.1604,1.0201 0.0535,0.3407 0.107,0.682 0.1605,1.0239 0.0534,0.3419 0.1069,0.6844 0.1604,1.0275 0.0535,0.343 0.1069,0.6866 0.1604,1.0306 0.0535,0.344 0.107,0.689 0.1604,1.034 0.0535,0.345 0.107,0.69 0.1605,1.036 0.0534,0.346 0.1069,0.693 0.1604,1.039 0.0535,0.347 0.1069,0.694 0.1604,1.042 0.0535,0.347 0.107,0.695 0.1604,1.043 0.0535,0.348 0.107,0.696 0.1605,1.045 0.0534,0.349 0.1069,0.698 0.1604,1.047 0.0535,0.349 0.1069,0.698 0.1604,1.048 0.0535,0.349 0.107,0.699 0.1604,1.049 0.0535,0.35 0.107,0.7 0.1605,1.05 0.0534,0.35 0.1069,0.7 0.1604,1.05 0.0535,0.351 0.1069,0.701 0.1604,1.052 0.0535,0.35 0.107,0.7 0.1604,1.051 0.0535,0.35 0.107,0.701 0.1605,1.051 0.0534,0.351 0.1069,0.701 0.1604,1.051 0.0535,0.351 0.1069,0.701 0.1604,1.051 0.0535,0.351 0.107,0.701 0.1604,1.051 0.0535,0.35 0.107,0.699 0.1605,1.049 0.0534,0.35 0.1069,0.699 0.1604,1.049 0.0535,0.349 0.1069,0.698 0.1604,1.047 0.0535,0.349 0.107,0.698 0.1604,1.047 0.0535,0.348 0.107,0.696 0.1605,1.044 0.0534,0.348 0.1069,0.696 0.1604,1.044 0.0535,0.347 0.1069,0.694 0.1604,1.041 0.0535,0.347 0.107,0.693 0.1604,1.039 0.0535,0.346 0.107,0.692 0.1605,1.037 0.0534,0.346 0.1069,0.691 0.1604,1.035 0.0535,0.345 0.1069,0.689 0.1604,1.033 0.0535,0.344 0.107,0.687 0.1604,1.03 0.0535,0.343 0.107,0.685 0.1605,1.027 0.0534,0.342 0.1069,0.684 0.1604,1.025 0.0535,0.34 0.1069,0.681 0.1604,1.021 0.0535,0.34 0.107,0.679 0.1604,1.018 0.0535,0.339 0.107,0.677 0.1605,1.015 0.0534,0.338 0.1069,0.675 0.1604,1.011 0.0535,0.337 0.1069,0.673 0.1604,1.008 0.0535,0.336 0.107,0.67 0.1604,1.005 0.0535,0.334 0.107,0.667 0.1605,1 0.0534,0.333 0.1069,0.665 0.1604,0.997 0.0535,0.331 0.1069,0.662 0.1604,0.992 0.0535,0.33 0.107,0.66 0.1604,0.989 0.0535,0.328 0.107,0.657 0.1605,0.984 0.0534,0.327 0.1069,0.654 0.1604,0.98 0.0535,0.326 0.1069,0.651 0.1604,0.975 0.0535,0.325 0.1069,0.648 0.1604,0.971 0.0535,0.323 0.107,0.645 0.1604,0.966 0.0535,0.321 0.107,0.642 0.1605,0.962 0.0534,0.319 0.1069,0.638 0.1604,0.956 0.0535,0.318 0.1069,0.636 0.1604,0.952 0.0535,0.316 0.107,0.632 0.1604,0.947 0.0535,0.314 0.107,0.628 0.1605,0.941 0.0534,0.313 0.1069,0.625 0.1604,0.937 0.0535,0.311 0.1069,0.621 0.1604,0.931 0.0535,0.309 0.107,0.618 0.1604,0.926 0.0535,0.307 0.107,0.614 0.1605,0.92 0.0534,0.306 0.1069,0.611 0.1604,0.915 0.0535,0.304 0.1069,0.607 0.1604,0.909 0.0535,0.303 0.107,0.604 0.1604,0.904 0.0535,0.3 0.107,0.6 0.1605,0.898 0.0534,0.299 0.1069,0.596 0.1604,0.892 0.0535,0.297 0.1069,0.592 0.1604,0.887 0.0535,0.294 0.107,0.588 0.1604,0.881 0.0535,0.292 0.107,0.584 0.1605,0.874 0.0534,0.291 0.1069,0.58 0.1604,0.869 0.0535,0.289 0.1069,0.576 0.1604,0.863 0.0535,0.286 0.107,0.572 0.1604,0.856 0.0535,0.285 0.107,0.568 0.1605,0.851 0.0534,0.282 0.1069,0.564 0.1604,0.844 0.0535,0.281 0.1069,0.56 0.1604,0.838 0.0535,0.279 0.107,0.556 0.1604,0.832 0.0535,0.276 0.107,0.551 0.1604,0.826 0.054,0.274 0.107,0.547 0.16,0.819 0.054,0.272 0.107,0.543 0.161,0.813 0.053,0.269 0.107,0.538 0.16,0.806 0.054,0.268 0.107,0.534 0.161,0.8 0.053,0.265 0.107,0.53 0.16,0.793 0.054,0.264 0.107,0.526 0.161,0.787 0.053,0.261 0.107,0.522 0.16,0.781 0.054,0.259 0.107,0.517 0.16,0.773 0.054,0.257 0.107,0.513 0.161,0.768 0.053,0.254 0.107,0.508 0.16,0.76 0.054,0.253 0.107,0.504 0.161,0.754 0.053,0.25 0.107,0.499 0.16,0.747 0.054,0.248 0.107,0.495 0.161,0.741 0.053,0.246 0.107,0.49 0.16,0.734 0.053,0.244 0.107,0.486 0.16,0.727 0.054,0.241 0.107,0.482 0.161,0.721 0.053,0.239 0.107,0.477 0.16,0.713 0.054,0.237 0.107,0.473 0.161,0.707 0.053,0.235 0.107,0.468 0.16,0.701 0.054,0.232 0.107,0.463 0.161,0.693 0.053,0.23 0.107,0.459 0.16,0.687 0.053,0.227 0.107,0.454 0.16,0.679 0.054,0.226 0.107,0.45 0.161,0.673 0.053,0.224 0.107,0.446 0.16,0.667 0.054,0.221 0.107,0.44 0.161,0.659 0.053,0.219 0.107,0.436 0.16,0.653 0.054,0.216 0.107,0.431 0.161,0.645 0.053,0.214 0.106,0.427 0.16,0.639 0.053,0.212 0.107,0.423 0.16,0.632 0.054,0.21 0.107,0.418 0.161,0.626 0.053,0.207 0.107,0.413 0.16,0.618 0.054,0.205 0.107,0.409 0.161,0.612 0.053,0.203 0.107,0.404 0.16,0.605 0.054,0.2 0.107,0.4 0.16,0.598 0.054,0.198 0.107,0.395 0.161,0.591 0.053,0.196 0.107,0.391 0.16,0.585 0.054,0.193 0.107,0.386 0.161,0.578 0.053,0.191 0.107,0.381 0.16,0.57 0.054,0.19 0.107,0.378 0.161,0.565 0.053,0.187 0.107,0.372 0.16,0.557 0.054,0.185 0.107,0.368 0.16,0.551 0.054,0.182 0.107,0.364 0.161,0.544 0.053,0.18 0.107,0.359 0.16,0.537 0.054,0.178 0.107,0.355 0.161,0.531 0.053,0.175 0.107,0.35 0.16,0.524 0.054,0.173 0.107,0.345 0.161,0.517 0.053,0.171 0.107,0.341 0.16,0.51 0.053,0.169 0.107,0.337 0.16,0.504 0.054,0.167 0.107,0.333 0.161,0.498 0.053,0.164 0.107,0.328 0.16,0.49 0.054,0.163 0.107,0.324 0.161,0.484 0.053,0.161 0.107,0.32 0.16,0.478 0.054,0.158 0.107,0.315 0.161,0.471 0.053,0.156 0.107,0.311 0.16,0.464 0.053,0.154 0.107,0.307 0.16,0.458 0.054,0.152 0.107,0.302 0.161,0.452 0.053,0.149 0.107,0.297 0.16,0.445 0.054,0.147 0.107,0.293 0.161,0.438 0.053,0.145 0.107,0.289 0.16,0.432 0.054,0.143 0.107,0.285 0.161,0.426 0.053,0.141 0.106,0.281 0.16,0.42 0.053,0.138 0.107,0.276 0.16,0.413 0.054,0.136 0.107,0.272 0.161,0.406 0.053,0.135 0.107,0.268 0.16,0.401 0.054,0.132 0.107,0.263 0.161,0.394 0.053,0.13 0.107,0.259 0.16,0.388 0.054,0.128 0.107,0.255 0.161,0.381 0.053,0.127 0.106,0.252 0.16,0.376 0.053,0.124 0.107,0.247 0.16,0.369 0.054,0.122 0.107,0.243 0.161,0.363 0.053,0.12 0.107,0.239 0.16,0.357 0.054,0.118 0.107,0.235 0.161,0.351 0.053,0.116 0.107,0.231 0.16,0.345 0.054,0.114 0.107,0.227 0.16,0.339 0.054,0.112 0.107,0.223 0.161,0.333 0.053,0.11 0.107,0.219 0.16,0.327 0.054,0.108 0.107,0.215 0.161,0.321 0.053,0.106 0.107,0.211 0.16,0.315 0.054,0.104 0.107,0.207 0.161,0.309 0.053,0.102 0.107,0.203 0.16,0.303 0.053,0.1 0.107,0.2 0.16,0.298 0.054,0.098 0.107,0.195 0.161,0.291 0.053,0.097 0.107,0.192 0.16,0.286 0.054,0.095 0.107,0.188 0.161,0.281 0.053,0.092 0.107,0.184 0.16,0.274 0.054,0.091 0.107,0.18 0.161,0.269 0.053,0.089 0.107,0.176 0.16,0.263 0.053,0.087 0.107,0.173 0.16,0.258 0.054,0.085 0.107,0.169 0.161,0.252 0.053,0.083 0.107,0.165 0.16,0.246 0.054,0.082 0.107,0.162 0.161,0.241 0.053,0.08 0.107,0.158 0.16,0.236 0.054,0.077 0.107,0.154 0.161,0.23 0.053,0.076 0.106,0.151 0.16,0.225 0.053,0.074 0.107,0.147 0.16,0.219 0.054,0.072 0.107,0.143 0.161,0.214 0.053,0.07 0.107,0.14 0.16,0.208 0.054,0.069 0.107,0.137 0.161,0.204 0.053,0.067 0.107,0.133 0.16,0.198 0.054,0.065 0.107,0.129 0.161,0.193 0.053,0.063 0.106,0.126 0.16,0.188 0.053,0.061 0.107,0.122 0.16,0.182 0.054,0.06 0.107,0.119 0.161,0.178 0.053,0.058 0.107,0.115 0.16,0.172 0.054,0.057 0.107,0.112 0.161,0.167 0.053,0.055 0.107,0.109 0.16,0.163 0.054,0.053 0.107,0.105 0.16,0.157 0.054,0.052 0.107,0.103 0.161,0.153 0.053,0.05 0.107,0.099 0.16,0.147 0.054,0.048 0.107,0.096 0.161,0.143 0.053,0.046 0.107,0.092 0.16,0.138 0.054,0.045 0.107,0.089 0.161,0.132 0.053,0.044 0.107,0.087 0.16,0.129 0.054,0.042 0.107,0.083 0.16,0.123 0.054,0.041 0.107,0.08 0.161,0.119 0.053,0.039 0.107,0.077 0.16,0.114 0.054,0.037 0.107,0.074 0.161,0.11 0.053,0.035 0.107,0.07 0.16,0.104 0.054,0.035 0.107,0.068 0.161,0.101 0.053,0.032 0.107,0.064 0.16,0.095 0.053,0.032 0.107,0.062 0.16,0.092 0.054,0.029 0.107,0.058 0.161,0.086 0.053,0.029 0.107,0.056 0.16,0.083 0.054,0.026 0.107,0.052 0.161,0.078 0.053,0.025 0.107,0.049 0.16,0.073 0.054,0.024 0.107,0.047 0.161,0.069 0.053,0.023 0.106,0.044 0.16,0.065 0.053,0.021 0.107,0.041 0.16,0.061 0.054,0.019 0.107,0.038 0.161,0.056 0.053,0.018 0.107,0.036 0.16,0.053 0.054,0.016 0.107,0.032 0.161,0.048 0.053,0.015 0.107,0.03 0.16,0.043 0.054,0.014 0.107,0.028 0.161,0.04 0.053,0.013 0.106,0.025 0.16,0.036 0.053,0.011 0.107,0.022 0.16,0.032 0.054,0.01 0.107,0.019 0.161,0.027 0.053,0.009 0.107,0.017 0.16,0.024 0.054,0.007 0.107,0.014 0.161,0.02 0.053,0.006 0.107,0.011 0.16,0.016 0.054,0.004 0.107,0.008 0.16,0.012 0.054,0.003 0.107,0.006 0.161,0.008 0.053,0.002 0.107,0.003 0.16,0.004 0.054,0.001 0.107,0.001 0.161,0 0.053,0 0.107,-0.001 0.16,-0.003 0.054,-0.001 0.107,-0.004 0.161,-0.007 0.053,-0.003 0.107,-0.006 0.16,-0.01 0.054,-0.004 0.107,-0.009 0.16,-0.015 0.054,-0.005 0.107,-0.011 0.161,-0.018 0.053,-0.006 0.107,-0.013 0.16,-0.021 0.054,-0.008 0.107,-0.016 0.161,-0.025 0.053,-0.009 0.107,-0.019 0.16,-0.029 0.054,-0.01 0.107,-0.02 0.161,-0.032 0.053,-0.011 0.107,-0.023 0.16,-0.035 0.053,-0.013 0.107,-0.026 0.16,-0.039 0.054,-0.014 0.107,-0.028 0.161,-0.043 0.053,-0.014 0.107,-0.03 0.16,-0.045 0.054,-0.016 0.107,-0.033 0.161,-0.05 0.053,-0.016 0.107,-0.034 0.16,-0.052 0.054,-0.018 0.107,-0.037 0.161,-0.056 0.053,-0.019 0.107,-0.038 0.16,-0.059 0.053,-0.02 0.107,-0.041 0.16,-0.062 0.054,-0.021 0.107,-0.043 0.161,-0.065 0.053,-0.022 0.107,-0.045 0.16,-0.069 0.054,-0.023 0.107,-0.047 0.161,-0.071 0.053,-0.025 0.107,-0.05 0.16,-0.075 0.054,-0.026 0.107,-0.052 0.161,-0.078 0.053,-0.026 0.106,-0.053 0.16,-0.081 0.053,-0.027 0.107,-0.055 0.16,-0.084 0.054,-0.028 0.107,-0.057 0.161,-0.087 0.053,-0.029 0.107,-0.059 0.16,-0.09 0.054,-0.03 0.107,-0.061 0.161,-0.092 0.053,-0.032 0.107,-0.064 0.16,-0.096 0.054,-0.032 0.107,-0.065 0.16,-0.099 0.054,-0.033 0.107,-0.067 0.161,-0.101 0.053,-0.034 0.107,-0.069 0.16,-0.104 0.054,-0.036 0.107,-0.071 0.161,-0.107 0.053,-0.037 0.107,-0.073 0.16,-0.11 0.054,-0.037 0.107,-0.075 0.161,-0.113 0.053,-0.038 0.107,-0.076 0.16,-0.115 0.054,-0.039 0.107,-0.078 0.16,-0.118 0.054,-0.04 0.107,-0.08 0.161,-0.12 0.053,-0.041 0.107,-0.082 0.16,-0.124 0.054,-0.041 0.107,-0.083 0.161,-0.125 0.053,-0.043 0.107,-0.086 0.16,-0.129 0.054,-0.043 0.107,-0.087 0.161,-0.131 0.053,-0.044 0.107,-0.088 0.16,-0.133 0.053,-0.045 0.107,-0.09 0.16,-0.136 0.054,-0.046 0.107,-0.092 0.161,-0.139 0.053,-0.046 0.107,-0.093 0.16,-0.14 0.054,-0.048 0.107,-0.096 0.161,-0.144 0.053,-0.048 0.107,-0.096 0.16,-0.145 0.054,-0.049 0.107,-0.099 0.161,-0.148 0.053,-0.05 0.107,-0.1 0.16,-0.151 0.053,-0.05 0.107,-0.101 0.16,-0.152 0.054,-0.052 0.107,-0.103 0.161,-0.155 0.053,-0.052 0.107,-0.105 0.16,-0.158 0.054,-0.052 0.107,-0.106 0.161,-0.159 0.053,-0.054 0.107,-0.108 0.16,-0.162 0.054,-0.054 0.107,-0.109 0.161,-0.164 0.053,-0.055 0.106,-0.11 0.16,-0.166 0.053,-0.056 0.107,-0.112 0.16,-0.168 0.054,-0.056 0.107,-0.113 0.161,-0.17 0.053,-0.057 0.107,-0.115 0.16,-0.173 0.054,-0.058 0.107,-0.116 0.161,-0.174 0.053,-0.059 0.107,-0.118 0.16,-0.177 0.054,-0.059 0.107,-0.119 0.161,-0.178 0.053,-0.06 0.106,-0.12 0.16,-0.181 0.053,-0.06 0.107,-0.121 0.16,-0.183 0.054,-0.061 0.107,-0.122 0.161,-0.184 0.053,-0.062 0.107,-0.124 0.16,-0.186 0.054,-0.063 0.107,-0.126 0.161,-0.189 0.053,-0.063 0.107,-0.126 0.16,-0.19 0.054,-0.064 0.107,-0.128 0.16,-0.192 0.054,-0.065 0.107,-0.129 0.161,-0.194 0.053,-0.065 0.107,-0.13 0.16,-0.196 0.054,-0.065 0.107,-0.131 0.161,-0.198 0.053,-0.066 0.107,-0.132 0.16,-0.199 0.054,-0.067 0.107,-0.134 0.161,-0.201 0.053,-0.067 0.107,-0.135 0.16,-0.203 0.054,-0.068 0.107,-0.136 0.16,-0.204 0.054,-0.069 0.107,-0.138 0.161,-0.207 0.053,-0.069 0.107,-0.138 0.16,-0.208 0.054,-0.069 0.107,-0.139 0.161,-0.209 0.053,-0.07 0.107,-0.141 0.16,-0.211 0.054,-0.071 0.107,-0.142 0.161,-0.213 0.053,-0.071 0.107,-0.143 0.16,-0.215 0.053,-0.071 0.107,-0.143 0.16,-0.216 0.054,-0.072 0.107,-0.144 0.161,-0.217 0.053,-0.073 0.107,-0.146 0.16,-0.219 0.054,-0.074 0.107,-0.147 0.161,-0.221 0.053,-0.074 0.107,-0.148 0.16,-0.222 0.054,-0.074 0.107,-0.149 0.161,-0.224 0.053,-0.074 0.106,-0.149 0.16,-0.225 0.053,-0.075 0.107,-0.15 0.16,-0.226 0.054,-0.076 0.107,-0.152 0.161,-0.228 0.053,-0.076 0.107,-0.152 0.16,-0.229 0.054,-0.077 0.107,-0.154 0.161,-0.231 0.053,-0.077 0.107,-0.154 0.16,-0.232 0.054,-0.077 0.107,-0.155 0.161,-0.233 0.053,-0.078 0.106,-0.156 0.16,-0.235 0.053,-0.078 0.107,-0.157 0.16,-0.236 0.054,-0.079 0.107,-0.158 0.161,-0.237 0.053,-0.079 0.107,-0.159 0.16,-0.238 0.054,-0.08 0.107,-0.16 0.161,-0.24 0.053,-0.08 0.107,-0.161 0.16,-0.241 0.054,-0.081 0.107,-0.161 0.16,-0.242 0.054,-0.081 0.107,-0.162 0.161,-0.244 0.053,-0.081 0.107,-0.163 0.16,-0.244 0.054,-0.082 0.107,-0.164 0.161,-0.246 0.053,-0.082 0.107,-0.164 0.16,-0.247 0.054,-0.082 0.107,-0.165 0.161,-0.248 0.053,-0.083 0.107,-0.166 0.16,-0.249 0.054,-0.083 0.107,-0.167 0.16,-0.25 0.054,-0.084 0.107,-0.168 0.161,-0.252 0.053,-0.084 0.107,-0.168 0.16,-0.252 0.054,-0.084 0.107,-0.169 0.161,-0.253 0.053,-0.085 0.107,-0.17 0.16,-0.255 0.054,-0.085 0.107,-0.17 0.161,-0.255 0.053,-0.086 0.107,-0.171 0.16,-0.257 0.053,-0.085 0.107,-0.171 0.16,-0.257 0.054,-0.086 0.107,-0.172 0.161,-0.258 0.053,-0.087 0.107,-0.173 0.16,-0.26 0.054,-0.086 0.107,-0.173 0.161,-0.26 0.053,-0.087 0.107,-0.174 0.16,-0.261 0.054,-0.088 0.107,-0.175 0.161,-0.262 0.053,-0.088 0.107,-0.176 0.16,-0.263 0.053,-0.088 0.107,-0.176 0.16,-0.264 0.054,-0.088 0.107,-0.177 0.161,-0.265 0.053,-0.088 0.107,-0.177 0.16,-0.266 0.054,-0.088 0.107,-0.177 0.161,-0.266 0.053,-0.089 0.107,-0.178 0.16,-0.267 0.054,-0.089 0.107,-0.179 0.161,-0.268 0.053,-0.09 0.106,-0.179 0.16,-0.269 0.053,-0.09 0.107,-0.18 0.16,-0.27 0.054,-0.09 0.107,-0.18 0.161,-0.27 0.053,-0.09 0.107,-0.181 0.16,-0.271 0.054,-0.091 0.107,-0.181 0.161,-0.272 0.053,-0.091 0.107,-0.182 0.16,-0.273 0.054,-0.091 0.107,-0.182 0.16,-0.273 0.054,-0.091 0.107,-0.182 0.161,-0.274 0.053,-0.091 0.107,-0.183 0.16,-0.274 0.054,-0.092 0.107,-0.184 0.161,-0.276 0.053,-0.092 0.107,-0.184 0.16,-0.276 0.054,-0.092 0.107,-0.184 0.161,-0.276 0.053,-0.093 0.107,-0.185 0.16,-0.278 0.054,-0.092 0.107,-0.185 0.16,-0.277 0.054,-0.093 0.107,-0.186 0.161,-0.279 0.053,-0.093 0.107,-0.186 0.16,-0.279 0.054,-0.093 0.107,-0.186 0.161,-0.28 0.053,-0.093 0.107,-0.186 0.16,-0.28 0.054,-0.093 0.107,-0.187 0.161,-0.281 0.053,-0.093 0.107,-0.187 0.16,-0.281 0.053,-0.094 0.107,-0.188 0.16,-0.282 0.054,-0.094 0.107,-0.188 0.161,-0.282 0.053,-0.094 0.107,-0.188 0.16,-0.283 0.054,-0.094 0.107,-0.189 0.161,-0.283 0.053,-0.095 0.107,-0.189 0.16,-0.284 0.054,-0.095 0.107,-0.189 0.161,-0.284 0.053,-0.095 0.107,-0.19 0.16,-0.285 0.053,-0.095 0.107,-0.19 0.16,-0.285 0.054,-0.095 0.107,-0.191 0.161,-0.286 0.053,-0.095 0.107,-0.191 0.16,-0.286 0.054,-0.095 0.107,-0.191 0.161,-0.287 0.053,-0.095 0.107,-0.191 0.16,-0.286 0.054,-0.096 0.107,-0.192 0.161,-0.288 0.053,-0.096 0.106,-0.191 0.16,-0.287 0.053,-0.096 0.107,-0.192 0.16,-0.288 0.054,-0.097 0.107,-0.193 0.161,-0.289 0.053,-0.096 0.107,-0.192 0.16,-0.289 0.054,-0.096 0.107,-0.192 0.161,-0.289 0.053,-0.096 0.107,-0.193 0.16,-0.289 0.054,-0.097 0.107,-0.193 0.161,-0.29 0.053,-0.097 0.106,-0.193 0.16,-0.29 0.053,-0.097 0.107,-0.194 0.16,-0.291 0.054,-0.096 0.107,-0.193 0.161,-0.29 0.053,-0.097 0.107,-0.194 0.16,-0.291 0.054,-0.097 0.107,-0.194 0.161,-0.291 0.053,-0.098 0.107,-0.195 0.16,-0.292 0.054,-0.097 0.107,-0.194 0.16,-0.292 0.054,-0.097 0.107,-0.194 0.161,-0.292 0.053,-0.097 0.107,-0.195 0.16,-0.292 0.054,-0.098 0.107,-0.195 0.161,-0.293 0.053,-0.097 0.107,-0.195 0.16,-0.292 0.054,-0.098 0.107,-0.196 0.161,-0.293 0.053,-0.098 0.107,-0.196 0.16,-0.293 0.053,-0.098 0.107,-0.196 0.16,-0.294 0.054,-0.097 0.107,-0.195 0.161,-0.293 0.053,-0.098 0.107,-0.196 0.16,-0.294 0.054,-0.098 0.107,-0.196 0.161,-0.294 0.053,-0.098 0.107,-0.196 0.16,-0.294 0.054,-0.098 0.107,-0.196 0.161,-0.294 0.053,-0.098 0.107,-0.196 0.16,-0.294 0.053,-0.098 0.107,-0.196 0.16,-0.295 0.054,-0.098 0.107,-0.196 0.161,-0.294 0.053,-0.098 0.107,-0.197 0.16,-0.295 0.054,-0.098 0.107,-0.196 0.161,-0.295 0.053,-0.098 0.107,-0.196 0.16,-0.294 0.054,-0.099 0.107,-0.197 0.161,-0.295 0.053,-0.099 0.106,-0.197 0.16,-0.296 0.053,-0.098 0.107,-0.196 0.16,-0.295 0.054,-0.098 0.107,-0.196 0.161,-0.295 0.053,-0.098 0.107,-0.197 0.16,-0.295 0.054,-0.099 0.107,-0.197 0.161,-0.295 0.053,-0.099 0.107,-0.197 0.16,-0.296 0.054,-0.098 0.107,-0.197 0.161,-0.295 0.053,-0.099 0.106,-0.197 0.16,-0.296 0.053,-0.098 0.107,-0.197 0.16,-0.295 0.054,-0.099 0.107,-0.197 0.161,-0.296 0.053,-0.098 0.107,-0.197 0.16,-0.295 0.054,-0.099 0.107,-0.197 0.161,-0.296 0.053,-0.098 0.107,-0.197 0.16,-0.295 0.054,-0.099 0.107,-0.197 0.16,-0.296 0.054,-0.098 0.107,-0.197 0.161,-0.295 0.053,-0.099 0.107,-0.197 0.16,-0.296 0.054,-0.098 0.107,-0.197 0.161,-0.295 0.053,-0.099 0.107,-0.197 0.16,-0.296 0.054,-0.098 0.107,-0.197 0.161,-0.295 0.053,-0.099 0.107,-0.197 0.16,-0.295 0.054,-0.099 0.107,-0.197 0.16,-0.296 0.054,-0.098 0.107,-0.197 0.161,-0.295 0.053,-0.098 0.107,-0.197 0.16,-0.295 0.054,-0.099 0.107,-0.197 0.161,-0.295 0.053,-0.099 0.107,-0.197 0.16,-0.295 0.054,-0.099 0.107,-0.197 0.161,-0.295 0.053,-0.099 0.107,-0.197 0.16,-0.295 0.053,-0.098 0.107,-0.197 0.16,-0.295 0.054,-0.098 0.107,-0.196 0.161,-0.294 0.053,-0.099 0.107,-0.197 0.16,-0.295 0.054,-0.098 0.107,-0.196 0.161,-0.294 0.053,-0.099 0.107,-0.197 0.16,-0.295 0.054,-0.098 0.107,-0.196 0.161,-0.294 0.053,-0.098 0.106,-0.196 0.16,-0.294 0.053,-0.098 0.107,-0.196 0.16,-0.294 0.054,-0.098 0.107,-0.196 0.161,-0.294 0.053,-0.098 0.107,-0.195 0.16,-0.293 0.054,-0.098 0.107,-0.196 0.161,-0.294 0.053,-0.098 0.107,-0.195 0.16,-0.293 0.054,-0.098 0.107,-0.196 0.161,-0.293 0.053,-0.098 0.106,-0.196 0.16,-0.293 0.053,-0.098 0.107,-0.196 0.16,-0.293 0.054,-0.098 0.107,-0.195 0.161,-0.293 0.053,-0.097 0.107,-0.195 0.16,-0.292 0.054,-0.098 0.107,-0.195 0.161,-0.293 0.053,-0.097 0.107,-0.194 0.16,-0.292 0.054,-0.097 0.107,-0.194 0.16,-0.292 0.054,-0.097 0.107,-0.194 0.161,-0.291 0.053,-0.097 0.107,-0.195 0.16,-0.292 0.054,-0.097 0.107,-0.194 0.161,-0.291 0.053,-0.097 0.107,-0.194 0.16,-0.291 0.054,-0.097 0.107,-0.194 0.161,-0.291 0.053,-0.097 0.107,-0.194 0.16,-0.291 0.054,-0.097 0.107,-0.193 0.16,-0.29 0.054,-0.097 0.107,-0.194 0.161,-0.29 0.053,-0.097 0.107,-0.194 0.16,-0.29 0.054,-0.097 0.107,-0.193 0.161,-0.29 0.053,-0.096 0.107,-0.193 0.16,-0.289 0.054,-0.097 0.107,-0.193 0.161,-0.29 0.053,-0.096 0.107,-0.192 0.16,-0.289 0.053,-0.096 0.107,-0.192 0.16,-0.288 0.054,-0.096 0.107,-0.193 0.161,-0.289 0.053,-0.096 0.107,-0.192 0.16,-0.288 0.054,-0.096 0.107,-0.192 0.161,-0.288 0.053,-0.096 0.107,-0.192 0.16,-0.287 0.054,-0.096 0.107,-0.192 0.161,-0.288 0.053,-0.096 0.107,-0.191 0.16,-0.287 0.053,-0.096 0.107,-0.191 0.16,-0.287 0.054,-0.095 0.107,-0.191 0.161,-0.286 0.053,-0.096 0.107,-0.191 0.16,-0.286 0.054,-0.096 0.107,-0.191 0.161,-0.286 0.053,-0.096 0.107,-0.191 0.16,-0.286 0.054,-0.095 0.107,-0.19 0.161,-0.285 0.053,-0.095 0.106,-0.19 0.16,-0.285 0.053,-0.095 0.107,-0.19 0.16,-0.285 0.054,-0.095 0.107,-0.19 0.161,-0.285 0.053,-0.094 0.107,-0.189 0.16,-0.284 0.054,-0.094 0.107,-0.189 0.161,-0.283 0.053,-0.095 0.107,-0.189 0.16,-0.284 0.054,-0.094 0.107,-0.189 0.161,-0.283 0.053,-0.094 0.106,-0.189 0.16,-0.283 0.053,-0.094 0.107,-0.188 0.16,-0.282 0.054,-0.094 0.107,-0.188 0.161,-0.282 0.053,-0.094 0.107,-0.188 0.16,-0.282 0.054,-0.094 0.107,-0.188 0.161,-0.282 0.053,-0.093 0.107,-0.187 0.16,-0.281 0.054,-0.093 0.107,-0.187 0.16,-0.281 0.054,-0.093 0.107,-0.187 0.161,-0.28 0.053,-0.093 0.107,-0.187 0.16,-0.28 0.054,-0.093 0.107,-0.187 0.161,-0.28 0.053,-0.093 0.107,-0.186 0.16,-0.279 0.054,-0.093 0.107,-0.186 0.161,-0.279 0.053,-0.093 0.107,-0.186 0.16,-0.279 0.053,-0.093 0.107,-0.185 0.16,-0.278 0.054,-0.093 0.107,-0.185 0.161,-0.278 0.053,-0.093 0.107,-0.185 0.16,-0.278 0.054,-0.092 0.107,-0.184 0.161,-0.277"
       title="sin(1/x)"
       clip-path="url(#clipPath6622)"
       id="path663"
       transform="translate(14.662457,-15.003444)" />
  </g>
</svg>
