<?xml version="1.0" encoding="UTF-8" standalone="no"?>
<!-- Created with Inkscape (http://www.inkscape.org/) -->

<svg
   width="210mm"
   height="297mm"
   viewBox="0 0 210 297"
   version="1.1"
   id="svg5"
   inkscape:version="1.2.1 (9c6d41e410, 2022-07-14)"
   sodipodi:docname="surface_z(x,y).svg"
   xmlns:inkscape="http://www.inkscape.org/namespaces/inkscape"
   xmlns:sodipodi="http://sodipodi.sourceforge.net/DTD/sodipodi-0.dtd"
   xmlns="http://www.w3.org/2000/svg"
   xmlns:svg="http://www.w3.org/2000/svg">
  <sodipodi:namedview
     id="namedview7"
     pagecolor="#ffffff"
     bordercolor="#000000"
     borderopacity="0.25"
     inkscape:showpageshadow="2"
     inkscape:pageopacity="0.0"
     inkscape:pagecheckerboard="0"
     inkscape:deskcolor="#d1d1d1"
     inkscape:document-units="mm"
     showgrid="false"
     inkscape:zoom="3.1037318"
     inkscape:cx="327.83117"
     inkscape:cy="345.39067"
     inkscape:window-width="1920"
     inkscape:window-height="1007"
     inkscape:window-x="0"
     inkscape:window-y="0"
     inkscape:window-maximized="1"
     inkscape:current-layer="layer1" />
  <defs
     id="defs2">
    <inkscape:path-effect
       effect="spiro"
       id="path-effect3014"
       is_visible="true"
       lpeversion="1" />
    <inkscape:path-effect
       effect="spiro"
       id="path-effect3004"
       is_visible="true"
       lpeversion="1" />
    <inkscape:path-effect
       effect="spiro"
       id="path-effect2130"
       is_visible="true"
       lpeversion="1" />
    <inkscape:path-effect
       effect="spiro"
       id="path-effect2066"
       is_visible="true"
       lpeversion="1" />
    <inkscape:path-effect
       effect="spiro"
       id="path-effect2044"
       is_visible="true"
       lpeversion="1" />
    <marker
       style="overflow:visible"
       id="Arrow1L"
       refX="0"
       refY="0"
       orient="auto-start-reverse"
       inkscape:stockid="Arrow1L"
       markerWidth="8.75"
       markerHeight="5"
       viewBox="0 0 8.75 5"
       inkscape:isstock="true"
       inkscape:collect="always"
       preserveAspectRatio="xMidYMid">
      <path
         style="fill:context-stroke;fill-rule:evenodd;stroke:none"
         d="M 0,0 5,-5 -12.5,0 5,5 Z"
         id="arrow1L"
         transform="scale(-0.5)" />
    </marker>
    <inkscape:path-effect
       effect="fill_between_many"
       method="originald"
       linkedpaths="#path3002,0,1|#path3012,0,1|"
       id="path-effect3114" />
    <inkscape:path-effect
       effect="fill_between_many"
       method="originald"
       linkedpaths="#path3002,0,1|#path3012,0,1|"
       id="path-effect3556" />
  </defs>
  <g
     inkscape:label="Layer 1"
     inkscape:groupmode="layer"
     id="layer1">
    <path
       style="fill:#000000;fill-opacity:0.341176;stroke:#000000;stroke-width:0.189046;marker-end:url(#Arrow1L)"
       d="M 58.01695,99.286948 49.872643,115.09689"
       id="path1103" />
    <path
       style="fill:#000000;fill-opacity:0.341176;stroke:#000000;stroke-width:0.264999;marker-end:url(#Arrow1L)"
       d="M 58.087741,99.170904 H 84.872297"
       id="path1810" />
    <path
       style="fill:#000000;fill-opacity:0.341176;stroke:#000000;stroke-width:0.264999;marker-end:url(#Arrow1L)"
       d="M 58.087741,99.230614 V 81.135022"
       id="path1816" />
    <path
       style="fill:#000000;fill-opacity:0.341176;stroke:#000000;stroke-width:0.232659"
       d="m 69.342514,102.49993 c -0.154761,-0.54311 -0.523669,-1.01669 -0.996314,-1.32575 -0.472646,-0.30907 -1.043672,-0.45657 -1.608304,-0.44637 -0.564633,0.0102 -1.121992,0.17437 -1.618033,0.44429 -0.49604,0.26993 -0.931944,0.6436 -1.299656,1.07221 -0.826012,0.9628 -1.305169,2.20536 -1.400631,3.47034 -0.09546,1.26497 0.184585,2.54797 0.743221,3.68692 1.02609,2.092 2.962335,3.65573 5.127848,4.51589 1.693909,0.67283 3.573079,0.94544 5.360475,0.58872 1.787395,-0.35671 3.468882,-1.37761 4.458528,-2.90818 0.494824,-0.76528 0.812408,-1.64777 0.894109,-2.55542 0.0817,-0.90766 -0.07524,-1.83888 -0.472142,-2.65923 -0.396901,-0.82035 -1.035365,-1.52583 -1.824593,-1.9815 -0.789228,-0.45566 -1.727378,-0.65603 -2.631108,-0.53864 -0.805277,0.1046 -1.56495,0.45107 -2.371357,0.54657 -0.403203,0.0478 -0.820638,0.0302 -1.201869,-0.10948 -0.38123,-0.1397 -0.723747,-0.41081 -0.897212,-0.77791 -0.15069,-0.3189 -0.166302,-0.68325 -0.262962,-1.02246 z"
       id="path2042"
       inkscape:path-effect="#path-effect2044"
       inkscape:original-d="m 69.342514,102.49993 c -0.0879,-0.34102 -3.681247,-0.17023 -5.522307,-0.25562 -1.841049,-0.0854 -0.437986,4.77169 -0.65741,7.15726 -0.219435,2.38557 3.418852,3.01078 5.127848,4.51589 1.708995,1.50512 3.857133,-6.70265 5.785269,-10.05425 1.928135,-3.3516 -2.980005,-0.22703 -4.470438,-0.34082 -1.490434,-0.1138 -0.175025,-0.68146 -0.262962,-1.02246 z" />
    <path
       style="fill:none;fill-opacity:0.341176;stroke:#000000;stroke-width:0.264999"
       d="m 66.065367,89.354696 c -0.267661,-0.04715 -0.504361,-0.228516 -0.636084,-0.466244 -0.131723,-0.237727 -0.16124,-0.526281 -0.09893,-0.790825 0.0623,-0.264544 0.212771,-0.504661 0.410629,-0.690987 0.197859,-0.186325 0.441618,-0.320339 0.69922,-0.406981 0.515202,-0.173284 1.073172,-0.158922 1.615087,-0.116628 0.541915,0.04229 1.087999,0.110532 1.6268,0.03874 0.632618,-0.08429 1.222235,-0.357003 1.803397,-0.620748 0.581163,-0.263744 1.17789,-0.525319 1.813319,-0.584826 0.970599,-0.0909 1.920676,0.29701 2.893375,0.361672 0.672486,0.04471 1.351392,-0.0657 2.019994,0.01919 0.334301,0.04245 0.666318,0.135498 0.954135,0.31077 0.287818,0.175271 0.529369,0.437658 0.642588,0.755055 0.131738,0.369314 0.079,0.79181 -0.105865,1.137606 -0.184859,0.345796 -0.493205,0.616956 -0.843255,0.793627 -0.350051,0.176672 -0.740533,0.263058 -1.131507,0.292855 -0.390973,0.0298 -0.784047,0.0046 -1.174418,-0.03228 -1.208361,-0.114104 -2.450689,-0.336954 -3.616716,0 -0.613092,0.177169 -1.171632,0.501335 -1.757695,0.753923 -0.586062,0.252588 -1.233574,0.436129 -1.859024,0.30931 -0.471024,-0.09551 -0.887889,-0.35808 -1.305227,-0.596439 -0.417337,-0.238359 -0.866444,-0.462181 -1.347031,-0.466794 -0.201317,-0.0019 -0.404513,0.03493 -0.602787,0 z"
       id="path3002"
       inkscape:original-d="m 66.065367,89.354696 c -0.201194,-2.65e-4 2.41141,-1.621687 3.616717,-2.432926 1.205309,-0.811239 2.41141,-0.803449 3.616716,-1.205574 1.20531,-0.402121 1.929183,0.24138 2.893375,0.361672 0.964195,0.120293 2.41141,0.723609 3.616717,1.085017 1.205309,0.361408 -2.169766,1.461471 -3.255045,2.191811 -1.085281,0.730337 -2.41088,2.64e-4 -3.616716,0 -1.205839,-2.65e-4 -2.410881,0.709086 -3.616719,1.063233 -1.205836,0.354148 -1.767906,-0.708559 -2.652258,-1.063233 -0.884351,-0.354677 -0.401592,2.64e-4 -0.602787,0 z"
       inkscape:path-effect="#path-effect3004"
       sodipodi:nodetypes="ssssssssss" />
    <path
       style="fill:none;fill-opacity:0.341176;stroke:#000000;stroke-width:0.270049"
       d="m 65.065012,88.551828 c -0.317884,-1.609506 -0.08682,-3.322308 0.646197,-4.790043 0.733016,-1.467736 1.963492,-2.681411 3.441166,-3.39418 1.149479,-0.554461 2.442618,-0.807771 3.716338,-0.727984 1.27372,0.07979 2.52514,0.492491 3.596441,1.186064 1.0713,0.693574 1.960058,1.666448 2.554192,2.795932 0.594133,1.129484 0.892297,2.413024 0.85689,3.688749"
       id="path3012"
       inkscape:original-d="m 65.065012,88.551828 c 1.319139,-2.853836 2.768776,-5.329861 4.087363,-8.184223 1.318585,-2.854363 7.149518,4.628771 10.723861,6.942761"
       inkscape:path-effect="#path-effect3014"
       transform="matrix(0.97778122,0,0,1.0146339,1.7758872,-1.1651233)"
       sodipodi:nodetypes="csc" />
    <path
       style="fill:#666666;fill-opacity:0.341176;stroke:#000000;stroke-width:0.16135"
       d="m 247.25635,328.69147 c 0.22854,-4.6655 1.04244,-7.81888 3.09102,-11.97596 1.17414,-2.3826 2.59604,-4.49368 4.23172,-6.28276 6.83566,-7.47676 17.05745,-10.55687 26.45357,-7.9712 9.88211,2.7194 17.41323,10.82256 19.6354,21.12682 0.18463,0.85617 0.38436,2.08856 0.44383,2.73864 l 0.10813,1.18196 -0.76215,-0.69909 c -0.83264,-0.76376 -1.90006,-1.30948 -3.39612,-1.73627 -0.79113,-0.22569 -1.77071,-0.28166 -5.39673,-0.30833 -4.51731,-0.0332 -4.85452,-0.0662 -8.61865,-0.84231 -1.778,-0.3666 -2.49565,-0.43169 -4.75235,-0.43106 -3.22311,9.7e-4 -3.84627,0.16321 -8.5668,2.23115 -4.32459,1.89448 -5.49003,2.22048 -8.02612,2.24506 -1.10754,0.0107 -3.46358,-0.0417 -5.23564,-0.1165 -2.6807,-0.11315 -3.41785,-0.094 -4.38825,0.11414 -1.60962,0.34521 -3.10002,1.09609 -4.09049,2.06084 l -0.83565,0.81394 z"
       id="path3641"
       transform="scale(0.26458333)" />
    <text
       xml:space="preserve"
       style="font-size:3.175px;fill:#000000;fill-opacity:1;stroke:#000000;stroke-width:0.264999"
       x="86.951782"
       y="99.99482"
       id="text3697"><tspan
         sodipodi:role="line"
         id="tspan3695"
         style="stroke-width:0.265;fill:#000000;fill-opacity:1"
         x="86.951782"
         y="99.99482">$y$</tspan></text>
    <text
       xml:space="preserve"
       style="font-size:3.175px;fill:#000000;fill-opacity:1;stroke:#000000;stroke-width:0.264999"
       x="57.42524"
       y="79.149078"
       id="text3751"><tspan
         sodipodi:role="line"
         id="tspan3749"
         style="stroke-width:0.265;fill:#000000;fill-opacity:1"
         x="57.42524"
         y="79.149078">$z$</tspan></text>
    <text
       xml:space="preserve"
       style="font-size:3.175px;fill:#000000;fill-opacity:1;stroke:#000000;stroke-width:0.264999"
       x="50.525017"
       y="117.26009"
       id="text3755"><tspan
         sodipodi:role="line"
         id="tspan3753"
         style="stroke-width:0.265;fill:#000000;fill-opacity:1"
         x="50.525017"
         y="117.26009">$x$</tspan></text>
    <path
       style="fill:#cccccc;fill-opacity:0.341176;stroke:#000000;stroke-width:0.3227"
       d="m 262.00445,341.00983 c -0.67489,-0.15879 -2.61998,-1.03961 -4.32243,-1.95737 -2.80011,-1.5095 -3.35348,-1.68917 -5.80155,-1.8836 -3.18624,-0.25307 -3.84567,-0.71494 -4.13838,-2.89856 -0.15906,-1.18657 -0.0589,-1.64191 0.55961,-2.54479 1.53086,-2.23464 4.34168,-2.98328 9.93582,-2.64633 5.16769,0.31126 6.73866,0.0219 12.12852,-2.23397 5.56492,-2.32913 7.47162,-2.61541 11.71375,-1.75871 1.50625,0.30418 5.3484,0.6618 8.53811,0.7947 6.51853,0.2716 7.87387,0.62508 9.50058,2.47781 2.4389,2.77775 0.33984,7.07792 -4.08253,8.36354 -1.44141,0.41903 -2.5493,0.48752 -5.2342,0.32361 -8.53221,-0.52088 -12.52623,-0.58252 -14.22302,-0.21948 -0.96155,0.20573 -3.50929,1.1555 -5.66163,2.1106 -2.15235,0.9551 -4.75249,1.89167 -5.7781,2.08127 -1.02561,0.18959 -1.87436,0.33015 -1.88611,0.31235 -0.0118,-0.0178 -0.57356,-0.16229 -1.24844,-0.32107 z"
       id="path4011"
       transform="scale(0.26458333)" />
  </g>
</svg>
