<?xml version="1.0" encoding="UTF-8" standalone="no"?>
<!-- Created with Inkscape (http://www.inkscape.org/) -->

<svg
   width="210mm"
   height="297mm"
   viewBox="0 0 210 297"
   version="1.1"
   id="svg5"
   inkscape:version="1.2.1 (9c6d41e410, 2022-07-14)"
   sodipodi:docname="touching_paraboloid.svg"
   xmlns:inkscape="http://www.inkscape.org/namespaces/inkscape"
   xmlns:sodipodi="http://sodipodi.sourceforge.net/DTD/sodipodi-0.dtd"
   xmlns="http://www.w3.org/2000/svg"
   xmlns:svg="http://www.w3.org/2000/svg">
  <sodipodi:namedview
     id="namedview7"
     pagecolor="#ffffff"
     bordercolor="#000000"
     borderopacity="0.25"
     inkscape:showpageshadow="2"
     inkscape:pageopacity="0.0"
     inkscape:pagecheckerboard="0"
     inkscape:deskcolor="#d1d1d1"
     inkscape:document-units="mm"
     showgrid="false"
     inkscape:zoom="1.3238075"
     inkscape:cx="435.48627"
     inkscape:cy="372.41064"
     inkscape:window-width="1920"
     inkscape:window-height="1019"
     inkscape:window-x="1920"
     inkscape:window-y="32"
     inkscape:window-maximized="1"
     inkscape:current-layer="layer1" />
  <defs
     id="defs2">
    <inkscape:path-effect
       effect="spiro"
       id="path-effect863"
       is_visible="true"
       lpeversion="1" />
    <inkscape:path-effect
       effect="spiro"
       id="path-effect859"
       is_visible="true"
       lpeversion="1" />
  </defs>
  <g
     inkscape:label="Layer 1"
     inkscape:groupmode="layer"
     id="layer1">
    <path
       style="fill:none;stroke:#000000;stroke-width:0.206826"
       d="m 51.978966,60.54325 c -3.467555,0.341596 -6.980765,1.089213 -9.932054,2.941378 -1.475645,0.926082 -2.791903,2.124776 -3.766346,3.568942 -0.974444,1.444166 -1.598614,3.138577 -1.690977,4.878297 -0.106082,1.998121 0.498141,4.01237 1.608541,5.676928 1.110401,1.664557 2.712104,2.981606 4.520499,3.838024 3.616789,1.712834 7.922556,1.545435 11.70223,0.230509 2.882456,-1.002789 5.503443,-2.620635 8.236682,-3.978405 2.73324,-1.357769 5.694607,-2.47916 8.744429,-2.366366 3.665171,0.135552 7.012601,2.022727 10.126042,3.96137 3.11344,1.938644 6.276636,4.026348 9.891726,4.645197 2.470149,0.422852 5.044731,0.120729 7.393896,-0.752119 2.349166,-0.872849 4.474686,-2.305387 6.252296,-4.07189 2.314,-2.299537 4.07221,-5.237129 4.60415,-8.455746 0.26597,-1.609308 0.22221,-3.274564 -0.17968,-4.855418 -0.40189,-1.580853 -1.16566,-3.074797 -2.25171,-4.291805 -1.40302,-1.572194 -3.31156,-2.647531 -5.33555,-3.233799 -2.02399,-0.586269 -4.162737,-0.702059 -6.264296,-0.548119 -4.203118,0.307879 -8.252751,1.667623 -12.40803,2.370932 -10.288794,1.741449 -20.866988,-0.580945 -31.251848,0.44209 z"
       id="path857"
       inkscape:path-effect="#path-effect859"
       inkscape:original-d="m 51.978966,60.54325 c -10.417489,0.147158 -10.259379,7.592618 -15.389377,11.388617 -5.129998,3.795999 11.88772,6.49718 17.83127,9.745461 5.94355,3.24828 11.320948,-4.229641 16.981111,-6.344771 5.660166,-2.11513 13.345383,5.737917 20.017768,8.606567 6.67238,2.868648 9.097672,-3.215798 13.646192,-4.824009 4.54852,-1.608209 1.44871,-11.735107 2.17276,-17.602969 0.72404,-5.867863 -16.005042,-0.94045 -24.007876,-1.410986 -8.002832,-0.470535 -20.834359,0.294935 -31.251848,0.44209 z" />
    <path
       style="fill:none;stroke:#000000;stroke-width:0.206826"
       d="m 36.589589,71.931867 c 0.627458,8.283583 4.176304,16.316706 9.877591,22.35879 5.701287,6.042083 13.515087,10.050813 21.748342,11.157593 10.059873,1.35233 20.634763,-1.71469 28.409987,-8.239695 7.775221,-6.52501 12.630731,-16.407265 13.044561,-26.549187"
       id="path861"
       inkscape:path-effect="#path-effect863"
       inkscape:original-d="M 36.589589,71.931867 C 47.131772,83.1042 57.673752,94.276325 68.215522,105.44825 78.757294,116.62017 95.852101,82.255868 109.67007,70.659368" />
    <path
       style="fill:#cccccc;stroke:none;stroke-width:0.156237"
       d="M 70.403204,105.5146 C 64.248539,104.89182 59.112414,103.21871 54.202855,100.23728 47.820829,96.361672 43.033459,90.922722 39.844344,83.924529 39.137934,82.374382 37.719397,78.16096 37.731275,77.648166 l 0.0082,-0.353255 0.264802,0.382113 c 3.322273,4.794082 9.631274,6.404847 16.399622,4.187026 0.83672,-0.274171 3.273685,-1.393511 5.547928,-2.548256 4.778341,-2.426197 6.3107,-3.059853 8.448017,-3.493391 2.451243,-0.497218 4.247041,-0.389071 6.589664,0.396843 1.813744,0.608483 3.445123,1.447932 6.965016,3.583952 3.727689,2.262115 6.148522,3.479483 7.947572,3.996608 1.076281,0.309371 1.601954,0.358711 3.821781,0.358711 3.033247,0 4.077563,-0.23279 6.651763,-1.482749 3.54167,-1.719733 6.85278,-5.05364 8.39911,-8.456926 0.31362,-0.690239 0.37571,-0.755481 0.38324,-0.402648 0.005,0.231582 -0.13445,1.164337 -0.30976,2.072793 -0.65396,3.388765 -1.7106,6.449889 -3.33907,9.673448 -5.46586,10.819681 -15.369931,17.871515 -27.618369,19.664645 -1.547786,0.22659 -6.290089,0.4087 -7.487568,0.28752 z"
       id="path1057" />
    <path
       style="fill:none;stroke:#000000;stroke-width:0.206826"
       d="M 44.067272,112.85818 61.391565,89.579841 99.478579,100.82594 89.957228,122.21267 Z"
       id="path1169" />
    <circle
       id="path1171"
       style="fill:#000000;stroke:none;stroke-width:0.206502"
       cx="72.904327"
       cy="105.89541"
       r="0.31024086" />
    <text
       xml:space="preserve"
       style="font-size:2.47802px;fill:#000000;stroke:#000000;stroke-width:0.206826"
       x="73.112282"
       y="108.52961"
       id="text1227"><tspan
         sodipodi:role="line"
         id="tspan1225"
         style="fill:#000000;stroke-width:0.206827"
         x="73.112282"
         y="108.52961">$M$</tspan></text>
  </g>
</svg>
