<?xml version="1.0" encoding="UTF-8" standalone="no"?>
<!-- Created with Inkscape (http://www.inkscape.org/) -->
<svg
   xmlns:svg="http://www.w3.org/2000/svg"
   xmlns="http://www.w3.org/2000/svg"
   version="1.0"
   width="607.66998"
   height="170"
   id="svg2">
  <defs
     id="defs4" />
  <g
     transform="translate(1183.982,-772.86218)"
     id="layer1">
    <path
       d="M -634.56058,932.65799 C -634.56058,932.16598 -634.0133,931.49623 -632.14423,929.70093 C -630.42918,928.05359 -630.1499,927.69968 -630.15178,927.17625 C -630.15638,925.90188 -631.98692,925.28973 -632.94077,926.24358 C -633.19942,926.50223 -633.41103,926.84709 -633.41103,927.00995 C -633.41103,927.33528 -633.74507,927.39201 -634.15,927.13544 C -634.45576,926.94169 -634.29515,926.2461 -633.8199,925.7058 C -632.21113,923.87682 -628.94449,925.04053 -629.25199,927.33307 C -629.38111,928.29574 -630.01608,929.11978 -631.68964,930.49657 C -632.42566,931.10206 -633.02785,931.66649 -633.02785,931.75085 C -633.02785,931.8352 -632.16569,931.90423 -631.11194,931.90423 C -629.19603,931.90423 -629.19603,931.90423 -629.19603,932.3832 L -629.19603,932.86218 L -631.8783,932.86218 C -633.64906,932.86218 -634.56058,932.79279 -634.56058,932.65799 z M -653.01389,929.51915 C -654.22078,929.08872 -654.85131,928.45464 -655.5956,926.92286 C -656.03953,926.00927 -656.10811,925.62701 -656.11109,924.04899 C -656.11493,922.03699 -655.72073,920.82817 -654.71526,919.76855 C -653.57202,918.56375 -651.44884,918.0178 -649.72261,918.48474 C -648.72191,918.75542 -647.51761,919.83846 -647.11348,920.83114 L -646.82454,921.54089 L -647.54194,921.73919 C -647.9365,921.84825 -648.28123,921.87373 -648.308,921.7958 C -648.50246,921.2295 -649.22064,920.34267 -649.74242,920.02455 C -651.12837,919.17952 -653.25066,919.83278 -654.10286,921.36672 C -654.51964,922.11695 -654.58183,922.46518 -654.58183,924.04899 C -654.58183,925.63281 -654.51964,925.98104 -654.10286,926.73127 C -653.46306,927.88291 -652.27929,928.51415 -650.97523,928.39907 C -649.82325,928.29741 -649.16188,927.82389 -648.54672,926.66028 C -648.08562,925.78809 -648.04272,925.75884 -647.39717,925.87668 C -647.02836,925.944 -646.69905,926.02613 -646.66537,926.05918 C -646.46261,926.25823 -647.56807,928.18883 -648.18927,928.72055 C -649.41485,929.76961 -651.39334,930.0971 -653.01389,929.51915 z M -624.35008,929.53076 C -625.57,929.13194 -626.61624,928.19642 -627.22207,926.96269 C -627.69595,925.99771 -627.7591,925.65508 -627.7591,924.04899 C -627.7591,922.44128 -627.6962,922.10078 -627.22004,921.13114 C -626.06714,918.78334 -623.6751,917.79707 -621.04029,918.58315 C -619.01006,919.18885 -617.75946,920.96372 -617.56667,923.513 C -617.29936,927.04722 -619.20837,929.53113 -622.33786,929.72105 C -623.04569,929.76401 -623.87712,929.68538 -624.35008,929.53076 z M -620.62528,927.7607 C -619.69854,927.02196 -619.22182,926.04747 -619.09319,924.62888 C -618.89598,922.45401 -619.70542,920.69799 -621.22276,920.00894 C -623.20343,919.10948 -625.4196,920.12131 -626.03928,922.20802 C -627.06006,925.64532 -625.3526,928.58969 -622.4454,928.40541 C -621.57519,928.35025 -621.19665,928.21616 -620.62528,927.7607 z M -644.90649,924.04899 L -644.90649,918.49286 L -644.14013,918.49286 L -643.37376,918.49286 L -643.37376,920.79195 L -643.37376,923.09104 L -640.4999,923.09104 L -637.62603,923.09104 L -637.62603,920.79195 L -637.62603,918.49286 L -636.85967,918.49286 L -636.0933,918.49286 L -636.0933,924.04899 L -636.0933,929.60513 L -636.85967,929.60513 L -637.62603,929.60513 L -637.62603,927.01866 L -637.62603,924.43218 L -640.4999,924.43218 L -643.37376,924.43218 L -643.37376,927.01866 L -643.37376,929.60513 L -644.14013,929.60513 L -644.90649,929.60513 L -644.90649,924.04899 z M -615.59307,924.04899 L -615.59307,918.49286 L -614.82671,918.49286 L -614.06034,918.49286 L -614.06034,920.79195 L -614.06034,923.09104 L -611.18648,923.09104 L -608.31261,923.09104 L -608.31261,920.79195 L -608.31261,918.49286 L -607.54625,918.49286 L -606.77988,918.49286 L -606.77988,924.04899 L -606.77988,929.60513 L -607.54625,929.60513 L -608.31261,929.60513 L -608.31261,927.01866 L -608.31261,924.43218 L -611.18648,924.43218 L -614.06034,924.43218 L -614.06034,927.01866 L -614.06034,929.60513 L -614.82671,929.60513 L -615.59307,929.60513 L -615.59307,924.04899 z M -855.17759,927.0623 C -856.16413,926.65854 -856.71693,926.18908 -857.20095,925.34394 C -857.58938,924.66573 -857.66827,924.26921 -857.66827,922.99524 C -857.66827,921.66938 -857.59739,921.34194 -857.14308,920.56913 C -856.3896,919.28735 -855.48395,918.78314 -853.93225,918.78153 C -852.29455,918.77984 -851.35006,919.26586 -850.57941,920.50688 C -850.0634,921.33784 -850.00463,921.59224 -850.00463,922.99524 C -850.00463,924.39825 -850.0634,924.65265 -850.57941,925.48361 C -850.93454,926.0555 -851.44042,926.55719 -851.90326,926.79649 C -852.7991,927.25967 -854.38145,927.38812 -855.17759,927.0623 z M -852.29043,925.87802 C -851.10764,925.10302 -850.7035,922.72644 -851.48946,921.16783 C -852.03531,920.08541 -852.92471,919.58717 -854.09782,919.70668 C -855.66854,919.86669 -856.44985,920.84584 -856.56906,922.80365 C -856.7012,924.9737 -855.424,926.47183 -853.59972,926.28659 C -853.15341,926.24127 -852.56423,926.05741 -852.29043,925.87802 z M -848.5677,922.99524 L -848.5677,918.87604 L -847.99293,918.87604 L -847.41816,918.87604 L -847.41816,920.60036 L -847.41816,922.32468 L -845.40645,922.32468 L -843.39475,922.32468 L -843.39475,920.60036 L -843.39475,918.87604 L -842.81997,918.87604 L -842.2452,918.87604 L -842.2452,922.99524 L -842.2452,927.11445 L -842.81997,927.11445 L -843.39475,927.11445 L -843.39475,925.19854 L -843.39475,923.28263 L -845.40645,923.28263 L -847.41816,923.28263 L -847.41816,925.19854 L -847.41816,927.11445 L -847.99293,927.11445 L -848.5677,927.11445 L -848.5677,922.99524 z M -891.26575,918.80369 L -898.95343,914.37365 L -898.90687,905.37547 L -898.86034,896.3773 L -891.53478,892.1557 L -884.2092,887.93409 L -884.20642,882.52165 L -884.20363,877.1092 L -883.63184,877.1092 L -883.06004,877.1092 L -883.00917,882.51121 L -882.95828,887.91321 L -875.58203,892.17141 L -868.20578,896.4296 L -868.10998,905.09175 L -868.01419,913.75389 L -863.23614,916.51079 C -860.60822,918.02708 -858.43717,919.28862 -858.41157,919.31421 C -858.38599,919.3398 -858.51003,919.55262 -858.68723,919.78714 L -859.00941,920.21353 L -863.84559,917.41887 L -868.68179,914.62421 L -872.084,916.59339 C -873.95523,917.67644 -877.30691,919.61359 -879.53216,920.89815 L -883.57806,923.23373 L -891.26575,918.80369 z M -876.43871,917.85919 L -869.35532,913.77688 L -869.30543,905.42725 L -869.25552,897.07761 L -876.42074,892.94295 L -883.58597,888.80829 L -890.78995,892.96938 L -897.99394,897.13046 L -897.99607,905.39652 L -897.99818,913.66258 L -890.86141,917.79183 C -886.93619,920.06292 -883.67907,921.92567 -883.62337,921.93129 C -883.56768,921.9369 -880.33458,920.10446 -876.43871,917.85919 z M -883.58935,918.21568 C -883.84136,917.66255 -884.48804,918.10467 -877.7003,914.18947 L -872.82548,911.37765 L -872.49117,911.82085 C -872.1784,912.2355 -872.17771,912.27568 -872.48042,912.4446 C -872.65837,912.5439 -875.16733,913.98849 -878.05591,915.65479 C -880.94447,917.3211 -883.32313,918.68445 -883.34181,918.68445 C -883.36047,918.68445 -883.47186,918.4735 -883.58935,918.21568 z M -895.3159,905.36887 L -895.3159,898.95058 L -894.74113,898.95058 L -894.16636,898.95058 L -894.16636,905.36887 L -894.16636,911.78717 L -894.74113,911.78717 L -895.3159,911.78717 L -895.3159,905.36887 z M -878.2643,896.26856 C -881.16212,894.58739 -883.61008,893.18417 -883.70422,893.15031 C -883.91706,893.07374 -883.49213,892.24489 -883.24004,892.24489 C -882.88372,892.24489 -872.32498,898.45212 -872.32498,898.6616 C -872.32498,898.88372 -872.70843,899.33684 -872.89018,899.3295 C -872.94813,899.32716 -875.36649,897.94974 -878.2643,896.26856 z M -661.19172,911.27993 L -666.65207,903.74328 L -679.38909,903.69392 L -692.12614,903.64456 L -696.09517,891.47853 C -698.27814,884.78721 -700.06881,879.21959 -700.07444,879.10603 C -700.08007,878.99247 -695.47214,875.55093 -689.83457,871.45816 L -679.58446,864.01677 L -679.58446,851.62803 L -679.58446,839.2393 L -690.16986,833.14084 C -695.99183,829.78669 -700.80952,827.01447 -700.87585,826.98035 C -700.94218,826.94623 -705.92688,829.76559 -711.95297,833.24558 L -722.90952,839.57285 L -734.15273,833.08628 L -745.39596,826.5997 L -745.4529,813.87154 L -745.50986,801.14338 L -753.15101,796.75745 L -760.79217,792.37152 L -760.49864,791.92352 C -760.24823,791.54133 -760.14463,791.50763 -759.7936,791.69413 C -759.56727,791.81436 -756.12417,793.79693 -752.14226,796.09982 C -745.65752,799.8502 -744.85822,800.26358 -744.47862,800.06328 C -744.24553,799.94028 -739.29718,797.09334 -733.4823,793.73673 L -722.90977,787.63382 L -711.95674,793.95752 C -705.93257,797.43555 -700.9822,800.28122 -700.95593,800.28122 C -700.92967,800.28122 -697.47599,798.2977 -693.28109,795.87339 C -689.08616,793.44909 -685.63636,791.48768 -685.61482,791.5147 C -685.59331,791.54172 -685.47833,791.75112 -685.35935,791.98004 C -685.16822,792.3478 -685.21537,792.43991 -685.76449,792.77139 C -686.10629,792.97773 -689.555,794.97534 -693.4283,797.21053 L -700.47065,801.27451 L -700.42137,813.63354 L -700.37208,825.99257 L -689.93037,832.03111 C -684.18743,835.35231 -679.35033,838.1094 -679.18127,838.15799 C -679.00738,838.20797 -674.26382,835.5832 -668.26059,832.11524 L -657.64729,825.98414 L -657.59799,813.63177 L -657.54872,801.27941 L -664.78265,797.10374 C -668.76133,794.80712 -672.25604,792.78443 -672.5487,792.60889 C -673.06933,792.29659 -673.07339,792.28058 -672.73719,791.86538 L -672.39357,791.44105 L -664.75118,795.86113 C -660.54788,798.29218 -657.08784,800.28122 -657.06223,800.28122 C -657.03663,800.28122 -652.08684,797.43558 -646.0627,793.95756 L -635.10975,787.63391 L -625.15559,793.38279 C -619.6808,796.54468 -615.13867,799.13007 -615.06196,799.12811 C -614.98527,799.12615 -611.30143,797.02931 -606.87568,794.46847 L -598.82886,789.81238 L -598.57437,790.27396 C -598.43441,790.52784 -598.34954,790.76518 -598.38575,790.80141 C -598.42198,790.83763 -601.88736,792.85171 -606.08659,795.27714 C -610.28585,797.70257 -613.76067,799.72609 -613.80844,799.77386 C -613.8562,799.82162 -613.63472,800.01462 -613.31628,800.20273 C -612.83621,800.48631 -612.72754,800.68497 -612.68033,801.36514 L -612.62341,802.18552 L -604.78864,797.65745 C -597.44053,793.41066 -596.9377,793.15147 -596.69392,793.48487 C -596.55094,793.68039 -596.43397,793.89955 -596.43397,793.97188 C -596.43397,794.04421 -600.09458,796.20468 -604.56866,798.77293 L -612.70336,803.44247 L -612.71127,815.04492 L -612.7192,826.64737 L -623.91774,833.10826 L -635.11629,839.56915 L -646.0696,833.24373 C -652.09393,829.76475 -657.07719,826.9463 -657.14352,826.98051 C -657.20985,827.01471 -662.02754,829.78524 -667.84951,833.13723 L -678.43491,839.23176 L -678.43491,851.63063 L -678.43491,864.0295 L -671.21544,869.27611 C -667.24473,872.16175 -663.90387,874.58455 -663.79129,874.66011 C -663.65805,874.74954 -663.72302,874.93426 -663.9774,875.18928 L -664.36821,875.58106 L -671.62795,870.30287 C -675.65669,867.37378 -679.00269,865.06881 -679.14608,865.12383 C -679.28818,865.17836 -683.75574,868.3858 -689.074,872.25147 C -694.93545,876.51198 -698.74082,879.39955 -698.73658,879.58362 C -698.73275,879.75063 -697.05815,885.01712 -695.01525,891.28694 L -691.3009,902.6866 L -679.0344,902.7359 L -666.7679,902.7852 L -664.44745,895.64704 C -663.1712,891.72104 -661.97226,888.03468 -661.78316,887.45512 C -661.50884,886.61433 -661.36594,886.41428 -661.07606,886.46528 C -660.87623,886.50043 -660.64864,886.5904 -660.5703,886.66521 C -660.44802,886.78195 -662.38721,892.99967 -665.01348,900.91169 L -665.75985,903.1602 L -660.31452,910.64491 C -657.31961,914.7615 -654.86922,918.15832 -654.86922,918.19341 C -654.86922,918.22849 -655.06321,918.38306 -655.3003,918.53689 C -655.72349,918.81147 -655.83126,918.67872 -661.19172,911.27993 z M -712.07497,832.067 L -701.42583,825.91776 L -701.42583,813.59965 L -701.42583,801.28153 L -712.01123,795.17734 C -717.8332,791.82004 -722.76906,789.08061 -722.97981,789.08972 C -723.19056,789.09883 -728.06176,791.82766 -733.8047,795.15379 L -744.24641,801.20129 L -744.24641,813.60366 L -744.24641,826.00603 L -733.70891,832.10156 C -727.91328,835.4541 -723.07076,838.2014 -722.94776,838.20666 C -722.82476,838.21193 -717.932,835.44908 -712.07497,832.067 z M -722.92466,834.53518 C -723.209,834.09892 -723.17108,834.07444 -714.12705,828.85534 C -709.13129,825.97241 -705.01743,823.64458 -704.98511,823.68238 C -704.95281,823.72019 -704.83115,823.93446 -704.71474,824.15854 C -704.5142,824.54465 -704.97019,824.83541 -713.42816,829.71468 C -718.33695,832.54647 -722.41753,834.88813 -722.49614,834.91837 C -722.57477,834.9486 -722.76759,834.77617 -722.92466,834.53518 z M -741.65993,813.59679 L -741.65993,803.15509 L -741.08516,803.15509 L -740.51039,803.15509 L -740.51039,813.59679 L -740.51039,824.0385 L -741.08516,824.0385 L -741.65993,824.0385 L -741.65993,813.59679 z M -714.06146,798.38987 C -718.95623,795.56219 -722.988,793.16782 -723.02091,793.06905 C -723.05384,792.97028 -722.9684,792.73578 -722.83102,792.54792 C -722.60094,792.23328 -721.8701,792.61715 -713.55304,797.4211 C -704.76223,802.49869 -704.5302,802.6477 -704.73039,803.08705 C -704.84347,803.33522 -704.9868,803.53666 -705.04891,803.5347 C -705.11102,803.53273 -709.16668,801.21756 -714.06146,798.38987 z M -624.31046,832.09768 L -613.77295,825.99766 L -613.77295,813.60267 L -613.77295,801.20768 L -624.21466,795.16511 C -629.9576,791.8417 -634.78786,789.08489 -634.94859,789.03887 C -635.10931,788.99285 -640.04579,791.72793 -645.91857,795.11683 L -656.59632,801.27847 L -656.54704,813.62736 L -656.49774,825.97625 L -645.96024,832.08115 C -640.16461,835.43885 -635.29341,838.18867 -635.13535,838.19188 C -634.97729,838.19508 -630.10609,835.45269 -624.31046,832.09768 z M -635.1384,834.5703 C -635.26163,834.34006 -635.28979,834.08723 -635.20099,834.00846 C -635.11221,833.92969 -631.045,831.5612 -626.16276,828.74515 C -617.85702,823.95445 -617.2689,823.64761 -617.02077,823.97548 C -616.87493,824.1682 -616.77643,824.3972 -616.80191,824.48435 C -616.84215,824.62189 -634.08991,834.66572 -634.68957,834.90079 C -634.81321,834.94925 -635.01518,834.80053 -635.1384,834.5703 z M -653.2898,803.08525 C -653.49109,802.6435 -653.27168,802.50261 -644.46702,797.41948 C -636.15092,792.61841 -635.41812,792.23369 -635.18821,792.5481 C -635.05092,792.73585 -634.96504,792.96885 -634.99738,793.06586 C -635.05274,793.2319 -652.72844,803.52775 -652.97046,803.53492 C -653.03257,803.53676 -653.17628,803.33441 -653.2898,803.08525 z M -912.55909,908.51753 C -912.55909,908.02551 -912.01181,907.35576 -910.14274,905.56047 C -908.4277,903.91312 -908.14842,903.55922 -908.15029,903.03579 C -908.15489,901.76142 -909.98543,901.14927 -910.93928,902.10312 C -911.19793,902.36177 -911.40954,902.70663 -911.40954,902.86948 C -911.40954,903.19482 -911.74358,903.25154 -912.14851,902.99497 C -912.45427,902.80123 -912.29366,902.10564 -911.81842,901.56534 C -910.20965,899.73636 -906.943,900.90006 -907.25051,903.19261 C -907.37962,904.15528 -908.01459,904.97932 -909.68816,906.35611 C -910.42417,906.9616 -911.02636,907.52602 -911.02636,907.61038 C -911.02636,907.69474 -910.1642,907.76376 -909.11045,907.76376 C -907.19454,907.76376 -907.19454,907.76376 -907.19454,908.24274 L -907.19454,908.72172 L -909.87682,908.72172 C -911.64758,908.72172 -912.55909,908.65233 -912.55909,908.51753 z M -688.97241,899.42955 L -688.97241,898.95058 L -679.00968,898.95058 L -669.04695,898.95058 L -669.04695,899.42955 L -669.04695,899.90853 L -679.00968,899.90853 L -688.97241,899.90853 L -688.97241,899.42955 z M -1153.1412,892.36211 C -1154.3611,891.96329 -1155.4073,891.02777 -1156.0132,889.79404 C -1156.4871,888.82905 -1156.5502,888.48643 -1156.5502,886.88034 C -1156.5502,885.27263 -1156.4873,884.93213 -1156.0111,883.96249 C -1154.8582,881.61469 -1152.4662,880.62842 -1149.8314,881.4145 C -1147.8012,882.0202 -1146.5506,883.79507 -1146.3578,886.34435 C -1146.0905,889.87857 -1147.9995,892.36248 -1151.129,892.5524 C -1151.8368,892.59536 -1152.6682,892.51673 -1153.1412,892.36211 z M -1149.4164,890.59205 C -1148.4896,889.85331 -1148.0129,888.87882 -1147.8843,887.46023 C -1147.6871,885.28536 -1148.4965,883.52934 -1150.0139,882.84029 C -1151.9945,881.94083 -1154.2107,882.95266 -1154.8304,885.03937 C -1155.8512,888.47667 -1154.1437,891.42104 -1151.2365,891.23676 C -1150.3663,891.1816 -1149.9878,891.04751 -1149.4164,890.59205 z M -1144.3842,886.88034 L -1144.3842,881.32421 L -1143.6178,881.32421 L -1142.8514,881.32421 L -1142.8514,883.6233 L -1142.8514,885.92239 L -1139.9776,885.92239 L -1137.1037,885.92239 L -1137.1037,883.6233 L -1137.1037,881.32421 L -1136.3374,881.32421 L -1135.571,881.32421 L -1135.571,886.88034 L -1135.571,892.43648 L -1136.3374,892.43648 L -1137.1037,892.43648 L -1137.1037,889.85 L -1137.1037,887.26353 L -1139.9776,887.26353 L -1142.8514,887.26353 L -1142.8514,889.85 L -1142.8514,892.43648 L -1143.6178,892.43648 L -1144.3842,892.43648 L -1144.3842,886.88034 z M -660.36918,885.08165 C -661.5891,884.68283 -662.63534,883.74731 -663.24117,882.51359 C -663.71505,881.5486 -663.7782,881.20597 -663.7782,879.59989 C -663.7782,877.99217 -663.7153,877.65167 -663.23914,876.68204 C -662.08624,874.33423 -659.69421,873.34796 -657.05939,874.13404 C -655.02916,874.73975 -653.77857,876.51461 -653.58577,879.0639 C -653.31846,882.59811 -655.22748,885.08202 -658.35696,885.27194 C -659.06479,885.3149 -659.89622,885.23627 -660.36918,885.08165 z M -656.64439,883.31159 C -655.71764,882.57285 -655.24093,881.59836 -655.11229,880.17977 C -654.91509,878.0049 -655.72452,876.24888 -657.24186,875.55983 C -659.22253,874.66037 -661.4387,875.6722 -662.05838,877.75891 C -663.07916,881.19622 -661.3717,884.14058 -658.4645,883.9563 C -657.5943,883.90114 -657.21575,883.76705 -656.64439,883.31159 z M -807.18405,884.63998 C -807.18405,884.46153 -806.45122,883.599 -805.55553,882.72325 C -803.83912,881.04503 -803.60322,880.52708 -804.27737,879.91697 C -804.92755,879.32857 -806.2261,879.73376 -806.2261,880.52503 C -806.2261,880.78226 -806.27254,880.7931 -806.6894,880.63314 C -807.14686,880.4576 -807.05542,880.01656 -806.43242,879.39356 C -804.95265,877.91378 -802.4576,879.53393 -803.36604,881.3847 C -803.47903,881.61486 -804.1472,882.33972 -804.85087,882.99548 L -806.1303,884.18778 L -804.64547,884.19292 C -803.29008,884.19762 -803.16064,884.23147 -803.16064,884.58125 C -803.16064,884.94011 -803.28837,884.96443 -805.17235,884.96443 C -806.93494,884.96443 -807.18405,884.92426 -807.18405,884.63998 z M -799.42462,882.23001 C -800.41116,881.82625 -800.96395,881.35679 -801.44797,880.51166 C -801.8364,879.83344 -801.9153,879.43692 -801.9153,878.16295 C -801.9153,876.83709 -801.84441,876.50965 -801.39011,875.73684 C -800.63662,874.45506 -799.73097,873.95085 -798.17927,873.94924 C -796.54157,873.94755 -795.59709,874.43358 -794.82643,875.67459 C -794.31042,876.50555 -794.25166,876.75995 -794.25166,878.16295 C -794.25166,879.56596 -794.31042,879.82036 -794.82643,880.65132 C -795.18157,881.22321 -795.68744,881.7249 -796.15029,881.9642 C -797.04613,882.42738 -798.62848,882.55584 -799.42462,882.23001 z M -796.53745,881.04573 C -795.35467,880.27073 -794.95053,877.89415 -795.73649,876.33554 C -796.28233,875.25312 -797.17174,874.75488 -798.34485,874.87439 C -799.91557,875.0344 -800.69688,876.01355 -800.81608,877.97136 C -800.94822,880.14141 -799.67102,881.63954 -797.84675,881.4543 C -797.40044,881.40898 -796.81126,881.22512 -796.53745,881.04573 z M -823.61545,881.89957 C -823.95928,881.68994 -824.3872,881.21098 -824.56639,880.83522 C -824.84958,880.24136 -824.85552,880.12882 -824.61182,879.97468 C -824.13583,879.67362 -823.90837,879.76873 -823.65785,880.37357 C -823.37353,881.05998 -822.94942,881.32421 -822.13204,881.32421 C -821.00314,881.32421 -820.24686,880.03441 -820.78553,879.02786 C -821.01449,878.60006 -822.13048,878.19815 -822.59475,878.3763 C -822.85935,878.47784 -822.91486,878.41563 -822.86347,878.07509 C -822.81784,877.77263 -822.57808,877.57041 -822.05151,877.39025 C -820.91555,877.00159 -820.64587,876.29239 -821.36178,875.57648 C -822.07477,874.86349 -823.53738,875.30178 -823.88053,876.33125 C -823.93686,876.50025 -824.10933,876.53953 -824.39582,876.44861 C -824.93986,876.27593 -824.81015,875.71764 -824.04241,874.92739 C -823.28105,874.14371 -821.91552,874.01918 -820.99337,874.64934 C -819.93564,875.37217 -819.73916,876.7079 -820.58415,877.4314 C -820.93375,877.73074 -820.92419,877.76103 -820.29152,878.35771 C -818.27255,880.26184 -821.19466,883.37554 -823.61545,881.89957 z M -814.84769,878.16295 L -814.84769,874.04375 L -814.27292,874.04375 L -813.69814,874.04375 L -813.69814,875.76807 L -813.69814,877.49239 L -811.68644,877.49239 L -809.67473,877.49239 L -809.67473,875.76807 L -809.67473,874.04375 L -809.09996,874.04375 L -808.52519,874.04375 L -808.52519,878.16295 L -808.52519,882.28216 L -809.09996,882.28216 L -809.67473,882.28216 L -809.67473,880.36625 L -809.67473,878.45034 L -811.68644,878.45034 L -813.69814,878.45034 L -813.69814,880.36625 L -813.69814,882.28216 L -814.27292,882.28216 L -814.84769,882.28216 L -814.84769,878.16295 z M -695.10517,880.55442 C -695.29028,880.20851 -695.26846,880.09579 -694.97617,879.88799 C -694.78266,879.75044 -691.18108,877.13475 -686.97263,874.07535 C -680.1194,869.09329 -679.29529,868.54648 -679.07559,868.83549 C -678.94067,869.01297 -678.83049,869.24439 -678.83076,869.34977 C -678.83122,869.54099 -694.04094,880.64786 -694.59178,880.85924 C -694.77095,880.928 -694.96778,880.81113 -695.10517,880.55442 z M -1151.8562,873.47579 L -1151.8562,867.16011 L -1160.7652,850.52725 L -1169.6742,833.89439 L -1169.6742,821.3028 L -1169.6742,808.71122 L -1169.1009,808.71122 L -1168.5275,808.71122 L -1168.4782,820.74408 L -1168.4288,832.77693 L -1155.7838,826.80692 L -1143.1388,820.83691 L -1142.8843,821.3051 C -1142.7444,821.5626 -1142.6582,821.79695 -1142.6928,821.82587 C -1142.7274,821.85478 -1148.489,824.57721 -1155.4965,827.87571 C -1162.5039,831.1742 -1168.261,833.88965 -1168.29,833.91004 C -1168.319,833.93043 -1164.1329,840.05907 -1158.9874,847.52924 L -1149.632,861.11136 L -1136.1832,861.16055 L -1122.7344,861.20974 L -1122.7344,854.40697 L -1122.7344,847.60419 L -1122.2554,847.60419 C -1121.7791,847.60419 -1121.7763,847.61445 -1121.7499,849.47221 C -1121.7354,850.49961 -1121.6707,852.7615 -1121.6062,854.49863 L -1121.4891,857.65703 L -1113.2874,845.80837 C -1108.7765,839.2916 -1105.1123,833.93517 -1105.1448,833.9052 C -1105.1772,833.87523 -1110.7569,831.16941 -1117.5441,827.89226 C -1124.3312,824.61511 -1129.9216,821.89657 -1129.9671,821.85105 C -1130.1233,821.69481 -1129.7974,820.97305 -1129.5709,820.97351 C -1129.4462,820.97377 -1123.8265,823.64467 -1117.0825,826.90884 L -1104.8206,832.8437 L -1104.7707,824.41769 L -1104.7209,815.99168 L -1104.2439,815.99168 L -1103.7669,815.99168 L -1103.7669,834.19282 L -1103.7669,852.39397 L -1104.2438,852.39397 L -1104.7208,852.39397 L -1104.7707,844.15536 L -1104.8206,835.91675 L -1112.49,850.14258 L -1120.1593,864.3684 L -1135.5288,864.41744 L -1150.8983,864.46648 L -1150.8983,872.12898 L -1150.8983,879.79148 L -1151.3772,879.79148 L -1151.8562,879.79148 L -1151.8562,873.47579 z M -885.06578,875.33273 C -886.05232,874.92898 -886.60512,874.45951 -887.08914,873.61438 C -887.47757,872.93616 -887.55647,872.53965 -887.55647,871.26568 C -887.55647,869.93982 -887.48558,869.61238 -887.03128,868.83957 C -886.27779,867.55778 -885.37214,867.05358 -883.82044,867.05197 C -882.18274,867.05027 -881.23826,867.5363 -880.4676,868.77732 C -879.95159,869.60828 -879.89283,869.86267 -879.89283,871.26568 C -879.89283,872.66869 -879.95159,872.92308 -880.4676,873.75404 C -880.82273,874.32594 -881.32861,874.82762 -881.79146,875.06693 C -882.6873,875.53011 -884.26965,875.65856 -885.06578,875.33273 z M -882.17862,874.14846 C -880.99584,873.37346 -880.59169,870.99688 -881.37766,869.43826 C -881.9235,868.35584 -882.8129,867.85761 -883.98602,867.97711 C -885.55674,868.13712 -886.33804,869.11627 -886.45725,871.07409 C -886.58939,873.24414 -885.31219,874.74226 -883.48792,874.55702 C -883.04161,874.5117 -882.45243,874.32785 -882.17862,874.14846 z M -878.2643,871.26568 L -878.2643,867.14647 L -877.68953,867.14647 L -877.11476,867.14647 L -877.11476,868.87079 L -877.11476,870.59511 L -875.10305,870.59511 L -873.09135,870.59511 L -873.09135,868.87079 L -873.09135,867.14647 L -872.51658,867.14647 L -871.9418,867.14647 L -871.9418,871.26568 L -871.9418,875.38489 L -872.51658,875.38489 L -873.09135,875.38489 L -873.09135,873.46898 L -873.09135,871.55307 L -875.10305,871.55307 L -877.11476,871.55307 L -877.11476,873.46898 L -877.11476,875.38489 L -877.68953,875.38489 L -878.2643,875.38489 L -878.2643,871.26568 z M -1106.0098,864.9646 C -1107.2297,864.56578 -1108.276,863.63026 -1108.8818,862.39653 C -1109.3557,861.43154 -1109.4188,861.08892 -1109.4188,859.48283 C -1109.4188,857.87512 -1109.3559,857.53462 -1108.8798,856.56498 C -1107.7269,854.21718 -1105.3348,853.23091 -1102.7,854.01699 C -1100.6698,854.62269 -1099.4192,856.39756 -1099.2264,858.94684 C -1098.9591,862.48106 -1100.8681,864.96497 -1103.9976,865.15489 C -1104.7054,865.19785 -1105.5369,865.11922 -1106.0098,864.9646 z M -1102.285,863.19454 C -1101.3583,862.4558 -1100.8815,861.48131 -1100.7529,860.06272 C -1100.5557,857.88785 -1101.3651,856.13183 -1102.8825,855.44278 C -1104.8632,854.54332 -1107.0793,855.55515 -1107.699,857.64186 C -1108.7198,861.07916 -1107.0123,864.02353 -1104.1051,863.83925 C -1103.2349,863.78409 -1102.8564,863.65 -1102.285,863.19454 z M -1097.2528,859.48283 L -1097.2528,853.9267 L -1096.4864,853.9267 L -1095.7201,853.9267 L -1095.7201,856.22579 L -1095.7201,858.52488 L -1092.8462,858.52488 L -1089.9723,858.52488 L -1089.9723,856.22579 L -1089.9723,853.9267 L -1089.206,853.9267 L -1088.4396,853.9267 L -1088.4396,859.48283 L -1088.4396,865.03897 L -1089.206,865.03897 L -1089.9723,865.03897 L -1089.9723,862.45249 L -1089.9723,859.86602 L -1092.8462,859.86602 L -1095.7201,859.86602 L -1095.7201,862.45249 L -1095.7201,865.03897 L -1096.4864,865.03897 L -1097.2528,865.03897 L -1097.2528,859.48283 z M -981.10076,848.62492 L -990.1534,833.75098 L -990.1534,821.2311 L -990.1534,808.71122 L -989.58009,808.71122 L -989.00675,808.71122 L -988.95742,820.76719 L -988.9081,832.82315 L -976.55048,826.99172 C -969.75379,823.78444 -964.03121,821.10894 -963.83367,821.04617 C -963.48238,820.93456 -963.14806,821.23189 -963.14204,821.66125 C -963.14043,821.77632 -968.87529,824.57497 -975.88617,827.88047 C -983.47486,831.45839 -988.61132,833.98416 -988.57908,834.12201 C -988.54929,834.24936 -984.68831,840.65266 -979.99912,848.35158 L -971.47332,862.34961 L -957.12486,862.30526 L -942.7764,862.2609 L -934.18659,848.27476 C -929.4622,840.58238 -925.59465,834.1937 -925.59203,834.07769 C -925.58942,833.96168 -931.16976,831.17026 -937.99279,827.87454 C -944.81583,824.57882 -950.42661,821.85779 -950.46121,821.8278 C -950.49579,821.79782 -950.40957,821.56258 -950.26962,821.30505 L -950.01513,820.8368 L -937.65751,826.81345 L -925.29989,832.7901 L -925.25,824.39089 L -925.20011,815.99168 L -924.62733,815.99168 L -924.05455,815.99168 L -924.05455,824.90087 L -924.05455,833.81005 L -933.12772,848.61025 L -942.20092,863.41045 L -957.12449,863.45466 L -972.04809,863.49886 L -981.10076,848.62492 z M -872.46868,860.88868 C -872.93319,860.70124 -872.69483,860.0883 -871.41493,858.17878 C -867.07629,851.7059 -860.83677,846.9137 -853.54907,844.45709 L -851.53736,843.77896 L -879.17436,843.77567 L -906.81136,843.77237 L -906.81136,843.1976 L -906.81136,842.62283 L -847.22268,842.62283 L -787.63399,842.62283 L -788.04338,841.80857 C -788.26854,841.36072 -788.58541,840.84343 -788.74754,840.65902 C -788.90966,840.47461 -788.96359,840.32374 -788.8674,840.32374 C -788.59225,840.32374 -778.02429,843.17168 -777.92278,843.27318 C -777.81654,843.37941 -777.88391,843.39772 -783.978,844.91998 C -786.54673,845.56164 -788.69441,846.04064 -788.75062,845.98443 C -788.80684,845.92821 -788.72006,845.73082 -788.55779,845.54576 C -788.26375,845.21045 -787.64177,844.07781 -787.64177,843.87768 C -787.64177,843.81976 -797.92302,843.77525 -810.48899,843.77876 L -833.33622,843.78515 L -831.40602,844.4185 C -826.63009,845.9856 -822.00775,848.77826 -818.24904,852.36749 L -816.76481,853.78479 L -816.47683,853.09553 C -816.31842,852.71644 -816.18883,852.30005 -816.18883,852.17021 C -816.18883,851.63457 -815.78631,852.46923 -814.37164,855.9384 C -812.40939,860.75036 -812.50315,860.49098 -812.78866,860.31764 C -812.92007,860.23786 -814.53635,858.91814 -816.38042,857.38493 L -819.73326,854.59726 L -818.8232,854.53887 C -818.32267,854.50675 -817.91315,854.40819 -817.91315,854.31984 C -817.91315,854.12666 -821.03403,851.37624 -822.51133,850.26749 C -824.15194,849.03617 -827.01807,847.41195 -829.12122,846.52173 C -837.77383,842.85924 -847.43528,842.9041 -856.0646,846.64684 C -861.82022,849.14319 -867.01803,853.59395 -870.7754,859.24335 C -871.42366,860.21806 -872.01597,861.00875 -872.09163,861.00044 C -872.16729,860.99212 -872.33696,860.94182 -872.46868,860.88868 z M -977.34842,847.46047 L -984.56467,835.62976 L -984.08506,835.37527 C -983.8213,835.23531 -983.58231,835.14909 -983.55399,835.18368 C -983.36654,835.41266 -969.42849,858.38826 -969.34493,858.60601 C -969.26188,858.82247 -969.75923,859.29138 -970.07169,859.29121 C -970.10496,859.29119 -973.37949,853.96736 -977.34842,847.46047 z M -944.69024,859.04516 C -945.10231,858.81365 -944.92933,858.50698 -937.88876,846.98863 C -933.91537,840.48819 -930.57314,835.16541 -930.46156,835.16022 C -930.35,835.15503 -930.11607,835.25855 -929.94172,835.39027 C -929.65931,835.60365 -930.38665,836.8726 -936.61299,847.02942 C -940.45654,853.29924 -943.75114,858.62115 -943.93432,858.8559 C -944.22352,859.22651 -944.32309,859.25144 -944.69024,859.04516 z M -1035.9437,858.39202 C -1035.9437,858.21357 -1035.2108,857.35104 -1034.3152,856.47528 C -1032.5987,854.79707 -1032.3628,854.27912 -1033.037,853.669 C -1033.6872,853.08061 -1034.9857,853.4858 -1034.9857,854.27707 C -1034.9857,854.5343 -1035.0322,854.54514 -1035.449,854.38517 C -1035.9065,854.20963 -1035.8151,853.76859 -1035.1921,853.14559 C -1033.7123,851.66582 -1031.2172,853.28597 -1032.1257,855.13673 C -1032.2387,855.3669 -1032.9068,856.09175 -1033.6105,856.74752 L -1034.8899,857.93981 L -1033.4051,857.94496 C -1032.0497,857.94966 -1031.9203,857.98351 -1031.9203,858.33329 C -1031.9203,858.69214 -1032.048,858.71647 -1033.932,858.71647 C -1035.6946,858.71647 -1035.9437,858.67629 -1035.9437,858.39202 z M -1028.1842,856.17363 C -1029.1708,855.76988 -1029.7236,855.30041 -1030.2076,854.45528 C -1030.596,853.77707 -1030.6749,853.38055 -1030.6749,852.10658 C -1030.6749,850.78072 -1030.604,850.45328 -1030.1498,849.68047 C -1029.3962,848.39868 -1028.4906,847.89448 -1026.9389,847.89287 C -1025.3012,847.89117 -1024.3567,848.3772 -1023.5861,849.61822 C -1023.0701,850.44918 -1023.0113,850.70357 -1023.0113,852.10658 C -1023.0113,853.50959 -1023.0701,853.76399 -1023.5861,854.59494 C -1023.9412,855.16684 -1024.4471,855.66852 -1024.9099,855.90783 C -1025.8058,856.37101 -1027.3881,856.49946 -1028.1842,856.17363 z M -1025.2971,854.98936 C -1024.1143,854.21436 -1023.7102,851.83778 -1024.4961,850.27917 C -1025.042,849.19674 -1025.9314,848.69851 -1027.1045,848.81802 C -1028.6752,848.97803 -1029.4565,849.95717 -1029.5757,851.91499 C -1029.7079,854.08504 -1028.4306,855.58316 -1026.6064,855.39793 C -1026.1601,855.35261 -1025.5709,855.16875 -1025.2971,854.98936 z M -1052.1835,855.8432 C -1052.5273,855.63357 -1052.9552,855.1546 -1053.1344,854.77884 C -1053.4176,854.18499 -1053.4236,854.07245 -1053.1799,853.91831 C -1052.7039,853.61725 -1052.4764,853.71236 -1052.2259,854.3172 C -1051.9416,855.0036 -1051.5175,855.26783 -1050.7001,855.26783 C -1049.5712,855.26783 -1048.8149,853.97803 -1049.3536,852.97149 C -1049.5825,852.54368 -1050.6985,852.14178 -1051.1628,852.31993 C -1051.4274,852.42147 -1051.4829,852.35926 -1051.4315,852.01871 C -1051.3859,851.71625 -1051.1461,851.51404 -1050.6195,851.33387 C -1049.4836,850.94522 -1049.2139,850.23602 -1049.9298,849.5201 C -1050.6428,848.80712 -1052.1054,849.24541 -1052.4486,850.27488 C -1052.5049,850.44388 -1052.6774,850.48316 -1052.9639,850.39223 C -1053.5079,850.21956 -1053.3782,849.66127 -1052.6105,848.87102 C -1051.8491,848.08733 -1050.4836,847.96281 -1049.5614,848.59297 C -1048.5037,849.3158 -1048.3072,850.65152 -1049.1522,851.37503 C -1049.5018,851.67436 -1049.4922,851.70466 -1048.8596,852.30134 C -1046.8406,854.20547 -1049.7627,857.31917 -1052.1835,855.8432 z M -1043.4157,852.10658 L -1043.4157,847.98738 L -1042.841,847.98738 L -1042.2662,847.98738 L -1042.2662,849.71169 L -1042.2662,851.43601 L -1040.2545,851.43601 L -1038.2428,851.43601 L -1038.2428,849.71169 L -1038.2428,847.98738 L -1037.668,847.98738 L -1037.0932,847.98738 L -1037.0932,852.10658 L -1037.0932,856.22579 L -1037.668,856.22579 L -1038.2428,856.22579 L -1038.2428,854.30988 L -1038.2428,852.39397 L -1040.2545,852.39397 L -1042.2662,852.39397 L -1042.2662,854.30988 L -1042.2662,856.22579 L -1042.841,856.22579 L -1043.4157,856.22579 L -1043.4157,852.10658 z M -1057.4019,853.25613 C -1057.4019,852.78513 -1057.3763,852.77715 -1055.8691,852.77715 C -1054.362,852.77715 -1054.3364,852.78513 -1054.3364,853.25613 C -1054.3364,853.72712 -1054.362,853.7351 -1055.8691,853.7351 C -1057.3763,853.7351 -1057.4019,853.72712 -1057.4019,853.25613 z M -1124.0194,845.8055 C -1125.2393,845.40668 -1126.2855,844.47116 -1126.8914,843.23743 C -1127.3652,842.27245 -1127.4284,841.92982 -1127.4284,840.32374 C -1127.4284,838.71602 -1127.3655,838.37552 -1126.8893,837.40588 C -1125.7364,835.05808 -1123.3444,834.07181 -1120.7096,834.85789 C -1118.6793,835.4636 -1117.4287,837.23846 -1117.2359,839.78774 C -1116.9686,843.32196 -1118.8777,845.80587 -1122.0071,845.99579 C -1122.715,846.03875 -1123.5464,845.96012 -1124.0194,845.8055 z M -1120.2946,844.03544 C -1119.3678,843.2967 -1118.8911,842.32221 -1118.7625,840.90362 C -1118.5653,838.72875 -1119.3747,836.97273 -1120.892,836.28368 C -1122.8727,835.38422 -1125.0889,836.39605 -1125.7086,838.48276 C -1126.7293,841.92006 -1125.0219,844.86443 -1122.1147,844.68015 C -1121.2445,844.62499 -1120.8659,844.4909 -1120.2946,844.03544 z M -1013.9107,845.89118 C -1013.9107,845.79203 -1013.8233,845.65685 -1013.7164,845.5908 C -1013.5314,845.47647 -1012.7612,844.09359 -1012.7612,843.8758 C -1012.7612,843.81892 -1025.9953,843.77237 -1042.1704,843.77237 L -1071.5796,843.77237 L -1071.5796,843.1976 L -1071.5796,842.62283 L -1042.1665,842.62283 L -1012.7534,842.62283 L -1013.1628,841.80857 C -1013.388,841.36072 -1013.7048,840.84343 -1013.8669,840.65902 C -1014.0291,840.47461 -1014.083,840.32374 -1013.9868,840.32374 C -1013.7117,840.32374 -1003.1437,843.17168 -1003.0422,843.27318 C -1002.936,843.37934 -1003.0068,843.3986 -1009.0672,844.9124 C -1014.2309,846.20225 -1013.9107,846.13754 -1013.9107,845.89118 z M -1138.2533,840.32374 L -1138.2533,834.7676 L -1137.4869,834.7676 L -1136.7205,834.7676 L -1136.7205,837.06669 L -1136.7205,839.36578 L -1133.8467,839.36578 L -1130.9728,839.36578 L -1130.9728,837.06669 L -1130.9728,834.7676 L -1130.2064,834.7676 L -1129.4401,834.7676 L -1129.4401,840.32374 L -1129.4401,845.87987 L -1130.2064,845.87987 L -1130.9728,845.87987 L -1130.9728,843.2934 L -1130.9728,840.70692 L -1133.8467,840.70692 L -1136.7205,840.70692 L -1136.7205,843.2934 L -1136.7205,845.87987 L -1137.4869,845.87987 L -1138.2533,845.87987 L -1138.2533,840.32374 z M -1049.1635,833.71385 L -1049.1635,828.4451 L -1048.1097,828.4451 C -1047.1134,828.4451 -1047.056,828.47122 -1047.056,828.92407 C -1047.056,829.32854 -1047.1454,829.40305 -1047.6307,829.40305 L -1048.2055,829.40305 L -1048.2055,833.71385 L -1048.2055,838.02464 L -1047.6307,838.02464 C -1047.1454,838.02464 -1047.056,838.09915 -1047.056,838.50362 C -1047.056,838.95647 -1047.1134,838.9826 -1048.1097,838.9826 L -1049.1635,838.9826 L -1049.1635,833.71385 z M -1033.0698,838.50362 C -1033.0698,838.09915 -1032.9804,838.02464 -1032.495,838.02464 L -1031.9203,838.02464 L -1031.9203,833.71385 L -1031.9203,829.40305 L -1032.495,829.40305 C -1032.9804,829.40305 -1033.0698,829.32854 -1033.0698,828.92407 C -1033.0698,828.47122 -1033.0123,828.4451 -1032.0161,828.4451 L -1030.9623,828.4451 L -1030.9623,833.71385 L -1030.9623,838.9826 L -1032.0161,838.9826 C -1033.0123,838.9826 -1033.0698,838.95647 -1033.0698,838.50362 z M -825.38519,837.70019 C -825.38519,837.52174 -824.65236,836.65921 -823.75667,835.78346 C -822.04026,834.10524 -821.80436,833.58729 -822.47851,832.97718 C -823.12869,832.38878 -824.42724,832.79397 -824.42724,833.58524 C -824.42724,833.84247 -824.47368,833.85331 -824.89054,833.69335 C -825.34801,833.51781 -825.25656,833.07677 -824.63356,832.45377 C -823.15379,830.97399 -820.65874,832.59414 -821.56719,834.44491 C -821.68017,834.67507 -822.34834,835.39993 -823.05202,836.05569 L -824.33144,837.24799 L -822.84661,837.25313 C -821.49122,837.25783 -821.36178,837.29168 -821.36178,837.64146 C -821.36178,838.00032 -821.48952,838.02464 -823.37349,838.02464 C -825.13609,838.02464 -825.38519,837.98447 -825.38519,837.70019 z M -879.03067,832.37271 L -879.03067,827.10396 L -877.97692,827.10396 C -876.98065,827.10396 -876.92317,827.13008 -876.92317,827.58294 C -876.92317,827.98741 -877.01258,828.06191 -877.49794,828.06191 L -878.07271,828.06191 L -878.07271,832.37271 L -878.07271,836.68351 L -877.49794,836.68351 C -877.01258,836.68351 -876.92317,836.75802 -876.92317,837.16248 C -876.92317,837.61534 -876.98065,837.64146 -877.97692,837.64146 L -879.03067,837.64146 L -879.03067,832.37271 z M -862.93703,837.16248 C -862.93703,836.75802 -862.84761,836.68351 -862.36225,836.68351 L -861.78748,836.68351 L -861.78748,832.37271 L -861.78748,828.06191 L -862.36225,828.06191 C -862.84761,828.06191 -862.93703,827.98741 -862.93703,827.58294 C -862.93703,827.13008 -862.87955,827.10396 -861.88328,827.10396 L -860.82953,827.10396 L -860.82953,832.37271 L -860.82953,837.64146 L -861.88328,837.64146 C -862.87955,837.64146 -862.93703,837.61534 -862.93703,837.16248 z M -858.9741,836.93223 C -859.03231,836.83806 -859.00071,836.6358 -858.9039,836.48277 C -858.66777,836.10949 -858.6743,835.34237 -858.91362,835.34237 C -859.01899,835.34237 -859.10521,835.12683 -859.10521,834.86339 C -859.10521,834.47418 -859.011,834.38442 -858.60251,834.38442 C -858.10974,834.38442 -858.10154,834.40545 -858.188,835.44789 C -858.27075,836.44576 -858.73408,837.32062 -858.9741,836.93223 z M -846.13751,836.93223 C -846.19571,836.83806 -846.16412,836.6358 -846.06731,836.48277 C -845.83117,836.10949 -845.8377,835.34237 -846.07702,835.34237 C -846.18239,835.34237 -846.26861,835.12683 -846.26861,834.86339 C -846.26861,834.47418 -846.17441,834.38442 -845.76591,834.38442 C -845.27314,834.38442 -845.26494,834.40545 -845.35141,835.44789 C -845.43416,836.44576 -845.89748,837.32062 -846.13751,836.93223 z M -1045.7148,832.5643 L -1045.7148,828.4451 L -1045.14,828.4451 L -1044.5653,828.4451 L -1044.5653,830.16941 L -1044.5653,831.89373 L -1042.5536,831.89373 L -1040.5419,831.89373 L -1040.5419,830.16941 L -1040.5419,828.4451 L -1039.9671,828.4451 L -1039.3923,828.4451 L -1039.3923,832.5643 L -1039.3923,836.68351 L -1039.9671,836.68351 L -1040.5419,836.68351 L -1040.5419,834.7676 L -1040.5419,832.85169 L -1042.5536,832.85169 L -1044.5653,832.85169 L -1044.5653,834.7676 L -1044.5653,836.68351 L -1045.14,836.68351 L -1045.7148,836.68351 L -1045.7148,832.5643 z M -831.42031,835.29022 C -832.40685,834.88646 -832.95965,834.417 -833.44366,833.57186 C -833.8321,832.89365 -833.91099,832.49713 -833.91099,831.22316 C -833.91099,829.8973 -833.8401,829.56986 -833.3858,828.79705 C -832.63231,827.51527 -831.72666,827.01106 -830.17497,827.00945 C -828.53727,827.00776 -827.59278,827.49378 -826.82213,828.7348 C -826.30611,829.56576 -826.24735,829.82016 -826.24735,831.22316 C -826.24735,832.62617 -826.30611,832.88057 -826.82213,833.71153 C -827.17726,834.28342 -827.68314,834.78511 -828.14598,835.02441 C -829.04182,835.48759 -830.62417,835.61604 -831.42031,835.29022 z M -828.53315,834.10594 C -827.35036,833.33094 -826.94622,830.95436 -827.73218,829.39575 C -828.27803,828.31333 -829.16743,827.81509 -830.34054,827.9346 C -831.91126,828.09461 -832.69257,829.07375 -832.81178,831.03157 C -832.94392,833.20162 -831.66671,834.69975 -829.84244,834.51451 C -829.39613,834.46919 -828.80695,834.28533 -828.53315,834.10594 z M -875.58203,831.22316 L -875.58203,827.10396 L -875.00726,827.10396 L -874.43249,827.10396 L -874.43249,828.82828 L -874.43249,830.5526 L -872.42078,830.5526 L -870.40907,830.5526 L -870.40907,828.82828 L -870.40907,827.10396 L -869.8343,827.10396 L -869.25953,827.10396 L -869.25953,831.22316 L -869.25953,835.34237 L -869.8343,835.34237 L -870.40907,835.34237 L -870.40907,833.42646 L -870.40907,831.51055 L -872.42078,831.51055 L -874.43249,831.51055 L -874.43249,833.42646 L -874.43249,835.34237 L -875.00726,835.34237 L -875.58203,835.34237 L -875.58203,831.22316 z M -851.79114,835.11283 C -852.52337,834.743 -853.01062,833.52715 -853.11592,831.80718 C -853.27981,829.13001 -852.51695,827.56915 -850.94136,827.35787 C -849.12581,827.1144 -848.18713,828.24044 -848.03864,830.83998 C -847.93436,832.66559 -848.20052,833.79867 -848.92377,834.60812 C -849.35344,835.08901 -849.63013,835.21293 -850.3992,835.2689 C -850.91981,835.30678 -851.5462,835.23655 -851.79114,835.11283 z M -849.88002,834.1774 C -849.28548,833.85921 -848.95085,832.81438 -848.95119,831.27722 C -848.95154,829.61198 -849.35558,828.63724 -850.16138,828.35768 C -851.4102,827.92441 -852.17789,829.0615 -852.19713,831.37301 C -852.21678,833.73707 -851.24804,834.90955 -849.88002,834.1774 z M -842.3796,834.97833 C -842.95093,834.61936 -843.58634,833.70635 -843.58634,833.24438 C -843.58634,833.13378 -843.3708,833.04328 -843.10736,833.04328 C -842.84392,833.04328 -842.62838,833.13341 -842.62838,833.24358 C -842.62838,833.66656 -841.67926,834.38442 -841.12002,834.38442 C -840.29055,834.38442 -839.96582,834.21191 -839.65163,833.60435 C -838.73972,831.84089 -840.34695,830.24756 -842.05361,831.22316 C -842.60712,831.53958 -842.82172,831.56439 -843.15809,831.35087 C -843.3503,831.22886 -843.32058,830.80906 -843.0144,829.32101 C -842.80208,828.28918 -842.62838,827.41134 -842.62838,827.37025 C -842.62838,827.32917 -841.76622,827.29555 -840.71247,827.29555 C -838.79656,827.29555 -838.79656,827.29555 -838.79656,827.77453 C -838.79656,828.24512 -838.82312,828.2535 -840.31406,828.2535 C -841.81743,828.2535 -841.83251,828.25841 -841.93206,828.78038 C -841.98734,829.07016 -842.08978,829.5989 -842.15969,829.95536 C -842.28662,830.60243 -842.2861,830.60297 -841.8402,830.29065 C -839.99745,828.99994 -837.58414,831.6601 -838.68257,833.77126 C -839.42895,835.2058 -841.13234,835.76196 -842.3796,834.97833 z M -679.0207,834.55544 C -679.13954,834.33337 -679.16413,834.08543 -679.07532,834.00444 C -678.7846,833.73928 -661.16237,823.62054 -661.10648,823.68668 C -661.07654,823.72212 -660.95566,823.93657 -660.83789,824.16324 C -660.63402,824.55562 -661.05502,824.82415 -669.62402,829.76728 C -674.57416,832.62283 -678.66486,834.95919 -678.71444,834.95919 C -678.76403,834.95919 -678.90186,834.7775 -679.0207,834.55544 z M -1036.3269,830.4568 L -1036.3269,829.59464 L -1037.189,829.59464 C -1037.9235,829.59464 -1038.0512,829.53787 -1038.0512,829.21146 C -1038.0512,828.88505 -1037.9235,828.82828 -1037.189,828.82828 L -1036.3269,828.82828 L -1036.3269,827.96612 C -1036.3269,827.23169 -1036.2701,827.10396 -1035.9437,827.10396 C -1035.6173,827.10396 -1035.5605,827.23169 -1035.5605,827.96612 L -1035.5605,828.82828 L -1034.6983,828.82828 C -1033.9639,828.82828 -1033.8362,828.88505 -1033.8362,829.21146 C -1033.8362,829.53787 -1033.9639,829.59464 -1034.6983,829.59464 L -1035.5605,829.59464 L -1035.5605,830.4568 C -1035.5605,831.19123 -1035.6173,831.31896 -1035.9437,831.31896 C -1036.2701,831.31896 -1036.3269,831.19123 -1036.3269,830.4568 z M -866.19407,829.11566 L -866.19407,828.2535 L -867.05623,828.2535 C -867.79066,828.2535 -867.91839,828.19674 -867.91839,827.87032 C -867.91839,827.54391 -867.79066,827.48714 -867.05623,827.48714 L -866.19407,827.48714 L -866.19407,826.62498 C -866.19407,825.89055 -866.1373,825.76282 -865.81089,825.76282 C -865.48448,825.76282 -865.42771,825.89055 -865.42771,826.62498 L -865.42771,827.48714 L -864.56555,827.48714 C -863.83112,827.48714 -863.70339,827.54391 -863.70339,827.87032 C -863.70339,828.19674 -863.83112,828.2535 -864.56555,828.2535 L -865.42771,828.2535 L -865.42771,829.11566 C -865.42771,829.8501 -865.48448,829.97782 -865.81089,829.97782 C -866.1373,829.97782 -866.19407,829.8501 -866.19407,829.11566 z M -1138.1971,824.15572 C -1139.417,823.7569 -1140.4632,822.82138 -1141.0691,821.58765 C -1141.543,820.62267 -1141.6061,820.28004 -1141.6061,818.67396 C -1141.6061,817.06624 -1141.5432,816.72574 -1141.067,815.7561 C -1139.9141,813.4083 -1137.5221,812.42203 -1134.8873,813.20811 C -1132.8571,813.81381 -1131.6065,815.58868 -1131.4137,818.13796 C -1131.1464,821.67218 -1133.0554,824.15609 -1136.1849,824.34601 C -1136.8927,824.38897 -1137.7241,824.31034 -1138.1971,824.15572 z M -1134.4723,822.38566 C -1133.5456,821.64692 -1133.0688,820.67243 -1132.9402,819.25384 C -1132.743,817.07897 -1133.5524,815.32295 -1135.0698,814.6339 C -1137.0504,813.73444 -1139.2666,814.74627 -1139.8863,816.83298 C -1140.9071,820.27028 -1139.1996,823.21465 -1136.2924,823.03037 C -1135.4222,822.97521 -1135.0437,822.84112 -1134.4723,822.38566 z M -958.48475,824.15572 C -959.70467,823.7569 -960.75091,822.82138 -961.35674,821.58765 C -961.83062,820.62267 -961.89377,820.28004 -961.89377,818.67396 C -961.89377,817.06624 -961.83087,816.72574 -961.35471,815.7561 C -960.20181,813.4083 -957.80978,812.42203 -955.17496,813.20811 C -953.14473,813.81381 -951.89414,815.58868 -951.70134,818.13796 C -951.43403,821.67218 -953.34304,824.15609 -956.47253,824.34601 C -957.18036,824.38897 -958.01179,824.31034 -958.48475,824.15572 z M -954.75995,822.38566 C -953.83321,821.64692 -953.35649,820.67243 -953.22786,819.25384 C -953.03065,817.07897 -953.84009,815.32295 -955.35743,814.6339 C -957.3381,813.73444 -959.55427,814.74627 -960.17395,816.83298 C -961.19473,820.27028 -959.48727,823.21465 -956.58007,823.03037 C -955.70986,822.97521 -955.33132,822.84112 -954.75995,822.38566 z M -1087.2901,817.32022 C -1087.2901,816.82821 -1086.7428,816.15846 -1084.8737,814.36316 C -1083.1587,812.71581 -1082.8794,812.36191 -1082.8813,811.83848 C -1082.8859,810.56411 -1084.7164,809.95196 -1085.6702,810.90581 C -1085.9289,811.16446 -1086.1405,811.50932 -1086.1405,811.67218 C -1086.1405,811.99751 -1086.4746,812.05424 -1086.8795,811.79766 C -1087.1853,811.60392 -1087.0246,810.90833 -1086.5494,810.36803 C -1084.9406,808.53905 -1081.674,809.70276 -1081.9815,811.9953 C -1082.1106,812.95797 -1082.7456,813.78201 -1084.4191,815.1588 C -1085.1551,815.76429 -1085.7573,816.32872 -1085.7573,816.41307 C -1085.7573,816.49743 -1084.8952,816.56645 -1083.8414,816.56645 C -1081.9255,816.56645 -1081.9255,816.56645 -1081.9255,817.04543 L -1081.9255,817.52441 L -1084.6078,817.52441 C -1086.3786,817.52441 -1087.2901,817.45502 -1087.2901,817.32022 z M -1105.935,814.18137 C -1107.1419,813.75094 -1107.7724,813.11687 -1108.5167,811.58509 C -1108.9606,810.6715 -1109.0292,810.28924 -1109.0322,808.71122 C -1109.036,806.69922 -1108.6418,805.4904 -1107.6363,804.43078 C -1106.4931,803.22598 -1104.3699,802.68003 -1102.6437,803.14697 C -1101.643,803.41765 -1100.4387,804.50069 -1100.0346,805.49337 L -1099.7456,806.20312 L -1100.463,806.40142 C -1100.8576,806.51048 -1101.2023,806.53596 -1101.2291,806.45803 C -1101.4235,805.89173 -1102.1417,805.0049 -1102.6635,804.68678 C -1104.0494,803.84175 -1106.1717,804.49501 -1107.0239,806.02895 C -1107.4407,806.77918 -1107.5029,807.1274 -1107.5029,808.71122 C -1107.5029,810.29504 -1107.4407,810.64327 -1107.0239,811.3935 C -1106.3841,812.54514 -1105.2004,813.17638 -1103.8963,813.0613 C -1102.7443,812.95964 -1102.083,812.48612 -1101.4678,811.32251 C -1101.0067,810.45032 -1100.9638,810.42107 -1100.3183,810.53891 C -1099.9494,810.60623 -1099.6201,810.68835 -1099.5865,810.72141 C -1099.3837,810.92046 -1100.4892,812.85106 -1101.1103,813.38278 C -1102.3359,814.43184 -1104.3144,814.75933 -1105.935,814.18137 z M -1077.0796,814.19299 C -1078.2995,813.79417 -1079.3457,812.85865 -1079.9516,811.62492 C -1080.4254,810.65993 -1080.4886,810.31731 -1080.4886,808.71122 C -1080.4886,807.10351 -1080.4257,806.76301 -1079.9495,805.79337 C -1078.7966,803.44557 -1076.4046,802.4593 -1073.7698,803.24538 C -1071.7395,803.85108 -1070.4889,805.62595 -1070.2961,808.17523 C -1070.0289,811.70945 -1071.9379,814.19336 -1075.0673,814.38328 C -1075.7752,814.42624 -1076.6066,814.34761 -1077.0796,814.19299 z M -1073.3548,812.42293 C -1072.428,811.68419 -1071.9513,810.7097 -1071.8227,809.29111 C -1071.6255,807.11624 -1072.4349,805.36022 -1073.9523,804.67117 C -1075.9329,803.77171 -1078.1491,804.78354 -1078.7688,806.87025 C -1079.7895,810.30755 -1078.0821,813.25192 -1075.1749,813.06764 C -1074.3047,813.01248 -1073.9261,812.87839 -1073.3548,812.42293 z M -926.22263,814.18137 C -927.42952,813.75094 -928.06005,813.11687 -928.80434,811.58509 C -929.24827,810.6715 -929.31684,810.28924 -929.31983,808.71122 C -929.32367,806.69922 -928.92947,805.4904 -927.924,804.43078 C -926.78075,803.22598 -924.65758,802.68003 -922.93135,803.14697 C -921.93065,803.41765 -920.72635,804.50069 -920.32222,805.49337 L -920.03328,806.20312 L -920.75068,806.40142 C -921.14524,806.51048 -921.48997,806.53596 -921.51674,806.45803 C -921.7112,805.89173 -922.42938,805.0049 -922.95116,804.68678 C -924.33711,803.84175 -926.4594,804.49501 -927.3116,806.02895 C -927.72838,806.77918 -927.79057,807.1274 -927.79057,808.71122 C -927.79057,810.29504 -927.72838,810.64327 -927.3116,811.3935 C -926.6718,812.54514 -925.48803,813.17638 -924.18397,813.0613 C -923.03199,812.95964 -922.37062,812.48612 -921.75546,811.32251 C -921.29436,810.45032 -921.25146,810.42107 -920.60591,810.53891 C -920.2371,810.60623 -919.90779,810.68835 -919.87411,810.72141 C -919.67135,810.92046 -920.77681,812.85106 -921.39801,813.38278 C -922.62359,814.43184 -924.60208,814.75933 -926.22263,814.18137 z M -903.88132,814.19299 C -905.10124,813.79417 -906.14748,812.85865 -906.75331,811.62492 C -907.22719,810.65993 -907.29034,810.31731 -907.29034,808.71122 C -907.29034,807.10351 -907.22744,806.76301 -906.75128,805.79337 C -905.59838,803.44557 -903.20635,802.4593 -900.57153,803.24538 C -898.5413,803.85108 -897.29071,805.62595 -897.09791,808.17523 C -896.8306,811.70945 -898.73961,814.19336 -901.8691,814.38328 C -902.57693,814.42624 -903.40836,814.34761 -903.88132,814.19299 z M -900.15652,812.42293 C -899.22978,811.68419 -898.75306,810.7097 -898.62443,809.29111 C -898.42722,807.11624 -899.23666,805.36022 -900.754,804.67117 C -902.73467,803.77171 -904.95084,804.78354 -905.57052,806.87025 C -906.5913,810.30755 -904.88384,813.25192 -901.97664,813.06764 C -901.10643,813.01248 -900.72789,812.87839 -900.15652,812.42293 z M -1097.636,808.71122 L -1097.636,803.15509 L -1096.8696,803.15509 L -1096.1033,803.15509 L -1096.1033,805.45418 L -1096.1033,807.75327 L -1093.2294,807.75327 L -1090.3555,807.75327 L -1090.3555,805.45418 L -1090.3555,803.15509 L -1089.5892,803.15509 L -1088.8228,803.15509 L -1088.8228,808.71122 L -1088.8228,814.26736 L -1089.5892,814.26736 L -1090.3555,814.26736 L -1090.3555,811.68088 L -1090.3555,809.09441 L -1093.2294,809.09441 L -1096.1033,809.09441 L -1096.1033,811.68088 L -1096.1033,814.26736 L -1096.8696,814.26736 L -1097.636,814.26736 L -1097.636,808.71122 z M -1068.3226,808.71122 L -1068.3226,803.15509 L -1067.5562,803.15509 L -1066.7898,803.15509 L -1066.7898,805.45418 L -1066.7898,807.75327 L -1063.916,807.75327 L -1061.0421,807.75327 L -1061.0421,805.45418 L -1061.0421,803.15509 L -1060.2757,803.15509 L -1059.5094,803.15509 L -1059.5094,808.71122 L -1059.5094,814.26736 L -1060.2757,814.26736 L -1061.0421,814.26736 L -1061.0421,811.68088 L -1061.0421,809.09441 L -1063.916,809.09441 L -1066.7898,809.09441 L -1066.7898,811.68088 L -1066.7898,814.26736 L -1067.5562,814.26736 L -1068.3226,814.26736 L -1068.3226,808.71122 z M -918.11523,808.71122 L -918.11523,803.15509 L -917.34886,803.15509 L -916.5825,803.15509 L -916.5825,805.45418 L -916.5825,807.75327 L -913.70864,807.75327 L -910.83477,807.75327 L -910.83477,805.45418 L -910.83477,803.15509 L -910.06841,803.15509 L -909.30204,803.15509 L -909.30204,808.71122 L -909.30204,814.26736 L -910.06841,814.26736 L -910.83477,814.26736 L -910.83477,811.68088 L -910.83477,809.09441 L -913.70864,809.09441 L -916.5825,809.09441 L -916.5825,811.68088 L -916.5825,814.26736 L -917.34886,814.26736 L -918.11523,814.26736 L -918.11523,808.71122 z M -1152.2394,810.23136 C -1152.2394,809.73934 -1151.6921,809.06959 -1149.8231,807.27429 C -1148.108,805.62695 -1147.8287,805.27305 -1147.8306,804.74962 C -1147.8352,803.47525 -1149.6657,802.86309 -1150.6196,803.81695 C -1150.8782,804.07559 -1151.0899,804.42046 -1151.0899,804.58331 C -1151.0899,804.90865 -1151.4239,804.96537 -1151.8288,804.7088 C -1152.1346,804.51506 -1151.974,803.81947 -1151.4987,803.27916 C -1149.8899,801.45019 -1146.6233,802.61389 -1146.9308,804.90644 C -1147.0599,805.86911 -1147.6949,806.69314 -1149.3685,808.06993 C -1150.1045,808.67543 -1150.7067,809.23985 -1150.7067,809.32421 C -1150.7067,809.40857 -1149.8445,809.47759 -1148.7908,809.47759 C -1146.8749,809.47759 -1146.8749,809.47759 -1146.8749,809.95657 L -1146.8749,810.43554 L -1149.5571,810.43554 C -1151.3279,810.43554 -1152.2394,810.36615 -1152.2394,810.23136 z M -972.71866,810.23136 C -972.71866,809.73934 -972.17138,809.06959 -970.30231,807.27429 C -968.58727,805.62695 -968.30799,805.27305 -968.30986,804.74962 C -968.31446,803.47525 -970.145,802.86309 -971.09885,803.81695 C -971.3575,804.07559 -971.56911,804.42046 -971.56911,804.58331 C -971.56911,804.90865 -971.90315,804.96537 -972.30808,804.7088 C -972.61384,804.51506 -972.45323,803.81947 -971.97799,803.27916 C -970.36922,801.45019 -967.10257,802.61389 -967.41007,804.90644 C -967.53919,805.86911 -968.17416,806.69314 -969.84773,808.06993 C -970.58374,808.67543 -971.18593,809.23985 -971.18593,809.32421 C -971.18593,809.40857 -970.32377,809.47759 -969.27002,809.47759 C -967.35411,809.47759 -967.35411,809.47759 -967.35411,809.95657 L -967.35411,810.43554 L -970.03638,810.43554 C -971.80715,810.43554 -972.71866,810.36615 -972.71866,810.23136 z M -1170.8843,807.09251 C -1172.0912,806.66208 -1172.7217,806.028 -1173.466,804.49622 C -1173.91,803.58264 -1173.9785,803.20037 -1173.9815,801.62236 C -1173.9853,799.61036 -1173.5912,798.40153 -1172.5857,797.34191 C -1171.4424,796.13711 -1169.3193,795.59116 -1167.593,796.0581 C -1166.5923,796.32879 -1165.388,797.41182 -1164.9839,798.4045 L -1164.695,799.11425 L -1165.4124,799.31255 C -1165.8069,799.42162 -1166.1517,799.44709 -1166.1784,799.36916 C -1166.3729,798.80286 -1167.0911,797.91604 -1167.6128,797.59791 C -1168.9988,796.75288 -1171.1211,797.40614 -1171.9733,798.94008 C -1172.3901,799.69031 -1172.4523,800.03854 -1172.4523,801.62236 C -1172.4523,803.20618 -1172.3901,803.5544 -1171.9733,804.30463 C -1171.3335,805.45627 -1170.1497,806.08751 -1168.8457,805.97243 C -1167.6937,805.87077 -1167.0323,805.39725 -1166.4171,804.23364 C -1165.956,803.36145 -1165.9131,803.33221 -1165.2676,803.45004 C -1164.8988,803.51736 -1164.5695,803.59949 -1164.5358,803.63255 C -1164.333,803.83159 -1165.4385,805.76219 -1166.0597,806.29391 C -1167.2853,807.34298 -1169.2638,807.67047 -1170.8843,807.09251 z M -1142.0289,807.10412 C -1143.2488,806.7053 -1144.2951,805.76978 -1144.9009,804.53606 C -1145.3748,803.57107 -1145.4379,803.22844 -1145.4379,801.62236 C -1145.4379,800.01464 -1145.375,799.67414 -1144.8989,798.70451 C -1143.746,796.3567 -1141.3539,795.37044 -1138.7191,796.15651 C -1136.6889,796.76222 -1135.4383,798.53708 -1135.2455,801.08637 C -1134.9782,804.62058 -1136.8872,807.10449 -1140.0167,807.29441 C -1140.7245,807.33737 -1141.556,807.25874 -1142.0289,807.10412 z M -1138.3041,805.33406 C -1137.3774,804.59532 -1136.9007,803.62083 -1136.772,802.20224 C -1136.5748,800.02737 -1137.3842,798.27135 -1138.9016,797.5823 C -1140.8823,796.68284 -1143.0984,797.69468 -1143.7181,799.78138 C -1144.7389,803.21869 -1143.0314,806.16305 -1140.1242,805.97877 C -1139.254,805.92361 -1138.8755,805.78952 -1138.3041,805.33406 z M -991.172,807.09251 C -992.3789,806.66208 -993.0094,806.028 -993.7537,804.49622 C -994.1976,803.58264 -994.2662,803.20037 -994.2692,801.62236 C -994.273,799.61036 -993.8788,798.40153 -992.8733,797.34191 C -991.7301,796.13711 -989.60693,795.59116 -987.88068,796.0581 C -986.88,796.32879 -985.67569,797.41182 -985.27157,798.4045 L -984.98262,799.11425 L -985.70002,799.31255 C -986.09458,799.42162 -986.43931,799.44709 -986.46607,799.36916 C -986.66054,798.80286 -987.37873,797.91604 -987.90049,797.59791 C -989.28645,796.75288 -991.4087,797.40614 -992.2609,798.94008 C -992.6777,799.69031 -992.7399,800.03854 -992.7399,801.62236 C -992.7399,803.20618 -992.6777,803.5544 -992.2609,804.30463 C -991.6211,805.45627 -990.4374,806.08751 -989.13331,805.97243 C -987.98132,805.87077 -987.31997,805.39725 -986.7048,804.23364 C -986.2437,803.36145 -986.2008,803.33221 -985.55525,803.45004 C -985.18644,803.51736 -984.85713,803.59949 -984.82346,803.63255 C -984.6207,803.83159 -985.72616,805.76219 -986.34734,806.29391 C -987.57294,807.34298 -989.55143,807.67047 -991.172,807.09251 z M -962.31657,807.10412 C -963.53649,806.7053 -964.58273,805.76978 -965.18856,804.53606 C -965.66244,803.57107 -965.72559,803.22844 -965.72559,801.62236 C -965.72559,800.01464 -965.66269,799.67414 -965.18653,798.70451 C -964.03363,796.3567 -961.6416,795.37044 -959.00678,796.15651 C -956.97655,796.76222 -955.72596,798.53708 -955.53316,801.08637 C -955.26585,804.62058 -957.17486,807.10449 -960.30435,807.29441 C -961.01218,807.33737 -961.84361,807.25874 -962.31657,807.10412 z M -958.59177,805.33406 C -957.66503,804.59532 -957.18831,803.62083 -957.05968,802.20224 C -956.86247,800.02737 -957.67191,798.27135 -959.18925,797.5823 C -961.16992,796.68284 -963.38609,797.69468 -964.00577,799.78138 C -965.02655,803.21869 -963.31909,806.16305 -960.41189,805.97877 C -959.54168,805.92361 -959.16314,805.78952 -958.59177,805.33406 z M -1162.5853,801.62236 L -1162.5853,796.06622 L -1161.819,796.06622 L -1161.0526,796.06622 L -1161.0526,798.36531 L -1161.0526,800.6644 L -1158.1787,800.6644 L -1155.3049,800.6644 L -1155.3049,798.36531 L -1155.3049,796.06622 L -1154.5385,796.06622 L -1153.7721,796.06622 L -1153.7721,801.62236 L -1153.7721,807.1785 L -1154.5385,807.1785 L -1155.3049,807.1785 L -1155.3049,804.59202 L -1155.3049,802.00554 L -1158.1787,802.00554 L -1161.0526,802.00554 L -1161.0526,804.59202 L -1161.0526,807.1785 L -1161.819,807.1785 L -1162.5853,807.1785 L -1162.5853,801.62236 z M -1133.2719,801.62236 L -1133.2719,796.06622 L -1132.5055,796.06622 L -1131.7392,796.06622 L -1131.7392,798.36531 L -1131.7392,800.6644 L -1128.8653,800.6644 L -1125.9914,800.6644 L -1125.9914,798.36531 L -1125.9914,796.06622 L -1125.2251,796.06622 L -1124.4587,796.06622 L -1124.4587,801.62236 L -1124.4587,807.1785 L -1125.2251,807.1785 L -1125.9914,807.1785 L -1125.9914,804.59202 L -1125.9914,802.00554 L -1128.8653,802.00554 L -1131.7392,802.00554 L -1131.7392,804.59202 L -1131.7392,807.1785 L -1132.5055,807.1785 L -1133.2719,807.1785 L -1133.2719,801.62236 z M -982.87298,801.62236 L -982.87298,796.06622 L -982.10662,796.06622 L -981.34025,796.06622 L -981.34025,798.36531 L -981.34025,800.6644 L -978.46639,800.6644 L -975.59252,800.6644 L -975.59252,798.36531 L -975.59252,796.06622 L -974.82616,796.06622 L -974.0598,796.06622 L -974.0598,801.62236 L -974.0598,807.1785 L -974.82616,807.1785 L -975.59252,807.1785 L -975.59252,804.59202 L -975.59252,802.00554 L -978.46639,802.00554 L -981.34025,802.00554 L -981.34025,804.59202 L -981.34025,807.1785 L -982.10662,807.1785 L -982.87298,807.1785 L -982.87298,801.62236 z M -953.55956,801.62236 L -953.55956,796.06622 L -952.7932,796.06622 L -952.02683,796.06622 L -952.02683,798.36531 L -952.02683,800.6644 L -949.15297,800.6644 L -946.2791,800.6644 L -946.2791,798.36531 L -946.2791,796.06622 L -945.51274,796.06622 L -944.74638,796.06622 L -944.74638,801.62236 L -944.74638,807.1785 L -945.51274,807.1785 L -946.2791,807.1785 L -946.2791,804.59202 L -946.2791,802.00554 L -949.15297,802.00554 L -952.02683,802.00554 L -952.02683,804.59202 L -952.02683,807.1785 L -952.7932,807.1785 L -953.55956,807.1785 L -953.55956,801.62236 z M -768.61809,794.07594 C -769.83801,793.67712 -770.88425,792.74159 -771.49008,791.50787 C -771.96396,790.54288 -772.02711,790.20026 -772.02711,788.59417 C -772.02711,786.98646 -771.96421,786.64596 -771.48805,785.67632 C -770.33515,783.32851 -767.94311,782.34225 -765.3083,783.12833 C -763.27806,783.73403 -762.02747,785.5089 -761.83468,788.05818 C -761.56737,791.59239 -763.47638,794.0763 -766.60587,794.26623 C -767.3137,794.30918 -768.14513,794.23056 -768.61809,794.07594 z M -764.89329,792.30587 C -763.96655,791.56713 -763.48983,790.59265 -763.3612,789.17406 C -763.16399,786.99918 -763.97343,785.24317 -765.49077,784.55411 C -767.47144,783.65465 -769.68761,784.66649 -770.30729,786.75319 C -771.32807,790.1905 -769.62061,793.13486 -766.71341,792.95059 C -765.8432,792.89543 -765.46465,792.76134 -764.89329,792.30587 z M -680.86942,794.07594 C -682.08934,793.67712 -683.13558,792.74159 -683.74141,791.50787 C -684.21529,790.54288 -684.27844,790.20026 -684.27844,788.59417 C -684.27844,786.98646 -684.21554,786.64596 -683.73938,785.67632 C -682.58648,783.32851 -680.19444,782.34225 -677.55963,783.12833 C -675.5294,783.73403 -674.2788,785.5089 -674.08601,788.05818 C -673.8187,791.59239 -675.72771,794.0763 -678.8572,794.26623 C -679.56503,794.30918 -680.39646,794.23056 -680.86942,794.07594 z M -677.14462,792.30587 C -676.21788,791.56713 -675.74116,790.59265 -675.61253,789.17406 C -675.41532,786.99918 -676.22476,785.24317 -677.7421,784.55411 C -679.72277,783.65465 -681.93894,784.66649 -682.55862,786.75319 C -683.5794,790.1905 -681.87194,793.13486 -678.96474,792.95059 C -678.09453,792.89543 -677.71599,792.76134 -677.14462,792.30587 z M -593.12075,794.07594 C -594.34067,793.67712 -595.38691,792.74159 -595.99274,791.50787 C -596.46662,790.54288 -596.52977,790.20026 -596.52977,788.59417 C -596.52977,786.98646 -596.46687,786.64596 -595.99071,785.67632 C -594.83781,783.32851 -592.44577,782.34225 -589.81096,783.12833 C -587.78073,783.73403 -586.53014,785.5089 -586.33734,788.05818 C -586.07003,791.59239 -587.97904,794.0763 -591.10853,794.26623 C -591.81636,794.30918 -592.64779,794.23056 -593.12075,794.07594 z M -589.39595,792.30587 C -588.46921,791.56713 -587.99249,790.59265 -587.86386,789.17406 C -587.66665,786.99918 -588.47609,785.24317 -589.99343,784.55411 C -591.9741,783.65465 -594.19027,784.66649 -594.80995,786.75319 C -595.83073,790.1905 -594.12327,793.13486 -591.21607,792.95059 C -590.34586,792.89543 -589.96732,792.76134 -589.39595,792.30587 z M -782.6604,788.59417 L -782.6604,783.03803 L -781.89404,783.03803 L -781.12768,783.03803 L -781.12768,785.33712 L -781.12768,787.63622 L -778.25381,787.63622 L -775.37995,787.63622 L -775.37995,785.33712 L -775.37995,783.03803 L -774.61358,783.03803 L -773.84722,783.03803 L -773.84722,788.59417 L -773.84722,794.15031 L -774.61358,794.15031 L -775.37995,794.15031 L -775.37995,791.56383 L -775.37995,788.97735 L -778.25381,788.97735 L -781.12768,788.97735 L -781.12768,791.56383 L -781.12768,794.15031 L -781.89404,794.15031 L -782.6604,794.15031 L -782.6604,788.59417 z"
       id="path2453"
       style="fill:#000000" />
  </g>
</svg>
