<?xml version="1.0" encoding="UTF-8" standalone="no"?>
<!-- Created with Inkscape (http://www.inkscape.org/) -->

<svg
   width="210mm"
   height="297mm"
   viewBox="0 0 210 297"
   version="1.1"
   id="svg550"
   inkscape:version="1.2.2 (b0a8486541, 2022-12-01)"
   sodipodi:docname="log_cont_2.svg"
   xmlns:inkscape="http://www.inkscape.org/namespaces/inkscape"
   xmlns:sodipodi="http://sodipodi.sourceforge.net/DTD/sodipodi-0.dtd"
   xmlns="http://www.w3.org/2000/svg"
   xmlns:svg="http://www.w3.org/2000/svg">
  <sodipodi:namedview
     id="namedview552"
     pagecolor="#ffffff"
     bordercolor="#000000"
     borderopacity="0.25"
     inkscape:showpageshadow="2"
     inkscape:pageopacity="0.0"
     inkscape:pagecheckerboard="0"
     inkscape:deskcolor="#d1d1d1"
     inkscape:document-units="mm"
     showgrid="false"
     inkscape:zoom="2.2601823"
     inkscape:cx="387.57936"
     inkscape:cy="241.57343"
     inkscape:window-width="1920"
     inkscape:window-height="1003"
     inkscape:window-x="0"
     inkscape:window-y="0"
     inkscape:window-maximized="1"
     inkscape:current-layer="layer1" />
  <defs
     id="defs547">
    <inkscape:path-effect
       effect="spiro"
       id="path-effect4468"
       is_visible="true"
       lpeversion="1" />
    <marker
       style="overflow:visible"
       id="Arrow1L"
       refX="0"
       refY="0"
       orient="auto-start-reverse"
       inkscape:stockid="Arrow1L"
       markerWidth="8.75"
       markerHeight="5"
       viewBox="0 0 8.75 5"
       inkscape:isstock="true"
       inkscape:collect="always"
       preserveAspectRatio="xMidYMid">
      <path
         style="fill:context-stroke;fill-rule:evenodd;stroke:none"
         d="M 0,0 5,-5 -12.5,0 5,5 Z"
         id="arrow1L"
         transform="scale(-0.5)" />
    </marker>
  </defs>
  <g
     inkscape:label="Layer 1"
     inkscape:groupmode="layer"
     id="layer1">
    <path
       style="fill:none;stroke:#000000;stroke-width:0.25;marker-end:url(#Arrow1L)"
       d="M 72.822933,54.954993 H 137.20749"
       id="path671" />
    <path
       style="fill:none;stroke:#000000;stroke-width:0.25;marker-end:url(#Arrow1L)"
       d="M 84.898124,79.219335 V 25.911644"
       id="path1436" />
    <path
       style="fill:none;stroke:#000000;stroke-width:0.25"
       d="M 105.79646,57.071661 V 53.091523"
       id="path1442" />
    <text
       xml:space="preserve"
       style="font-size:3.175px;fill:none;stroke:#000000;stroke-width:0.25"
       x="104.92815"
       y="60.113075"
       id="text1446"><tspan
         sodipodi:role="line"
         id="tspan1444"
         style="stroke-width:0.25"
         x="104.92815"
         y="60.113075">$1$</tspan></text>
    <ellipse
       style="fill:none;stroke:#000000;stroke-width:0.25"
       id="path1498"
       cx="105.79646"
       cy="55.081589"
       rx="20.898336"
       ry="20.815559" />
    <path
       style="fill:none;stroke:#0000ff;stroke-width:0.25"
       d="m 105.79646,55.081588 c 0.64382,-0.444872 1.15049,-1.085425 1.43515,-1.814386 0.28466,-0.72896 0.34616,-1.543356 0.17419,-2.306797 -0.17197,-0.763441 -0.5767,-1.472816 -1.14642,-2.009323 -0.56971,-0.536508 -1.30209,-0.89796 -2.07447,-1.023825 -0.80091,-0.130513 -1.61811,-0.01224 -2.42806,0.03756 -0.80994,0.0498 -1.66132,0.02132 -2.372939,-0.368663 -0.55735,-0.305435 -0.983592,-0.811904 -1.292212,-1.367496 -0.30862,-0.555592 -0.50962,-1.163277 -0.707455,-1.767256 -0.197834,-0.603979 -0.395967,-1.212325 -0.699536,-1.770693 -0.30357,-0.558367 -0.722323,-1.070033 -1.274042,-1.385524 -0.374543,-0.214176 -0.799112,-0.331535 -1.227666,-0.38148 -0.428555,-0.04995 -0.862333,-0.03427 -1.292024,0.0047 -0.859383,0.07794 -1.718767,0.248849 -2.578376,0.173443 -0.883262,-0.07748 -1.725683,-0.412971 -2.50757,-0.83107 -0.781887,-0.418099 -1.51532,-0.920563 -2.281907,-1.366096 -3.716826,-2.160182 -8.083338,-2.916613 -11.965299,-4.763654 -2.531219,-1.204357 -4.90007,-2.887114 -7.656118,-3.398727 -1.378024,-0.255807 -2.842549,-0.195181 -4.125706,0.36864 -0.641579,0.281911 -1.231303,0.687813 -1.704452,1.204752 -0.47315,0.516939 -0.827676,1.145946 -0.99951,1.825335 -0.22337,0.88315 -0.134055,1.821995 0.108122,2.700175 0.242176,0.878179 0.631904,1.70734 1.016074,2.533331 0.384171,0.825991 0.766636,1.659314 0.992936,2.541718 0.2263,0.882403 0.290115,1.825445 0.03504,2.699966 -0.208443,0.714649 -0.621689,1.356636 -1.115607,1.913609 -0.493917,0.556972 -1.068834,1.035491 -1.647244,1.50412 -0.578411,0.46863 -1.164493,0.931275 -1.686438,1.462071 -0.521946,0.530797 -0.981401,1.135633 -1.262249,1.825051 -0.304257,0.74688 -0.388719,1.57516 -0.290876,2.375678 0.09784,0.800518 0.373997,1.573879 0.761563,2.281124 0.775132,1.414489 1.973315,2.546832 3.210613,3.581581 1.237297,1.034748 2.541178,2.004517 3.619429,3.204093 1.07825,1.199577 1.932218,2.676522 2.052949,4.284948 0.114452,1.524766 -0.430213,3.010168 -0.873101,4.473678 -0.221445,0.731755 -0.419889,1.474539 -0.499561,2.234904 -0.07967,0.760366 -0.03704,1.542866 0.2138,2.265071 0.422587,1.216671 1.407935,2.173209 2.523417,2.817078 1.115482,0.643869 2.365065,1.011673 3.602001,1.370641 5.375247,1.559937 10.881436,3.074612 16.472408,2.814381 5.821868,-0.270978 11.473764,-2.461405 17.300164,-2.317726 5.47529,0.13502 10.74221,2.327326 16.21717,2.474889 2.73748,0.07378 5.55166,-0.395737 7.9044,-1.797116 1.17637,-0.700689 2.22335,-1.630078 3.00796,-2.752221 0.78461,-1.122142 1.30158,-2.439267 1.42816,-3.802641 0.16782,-1.807548 -0.35313,-3.633543 -1.23508,-5.220226 -0.88195,-1.586682 -2.11073,-2.954811 -3.42504,-4.207007 -2.62861,-2.504393 -5.69992,-4.675518 -7.50794,-7.82395 -1.20238,-2.093785 -1.76816,-4.521121 -1.80404,-6.935321 -0.0359,-2.414201 0.444,-4.817998 1.22461,-7.102796 2.62024,-7.669278 8.80197,-14.038336 16.38963,-16.886287"
       id="path4466"
       inkscape:path-effect="#path-effect4468"
       inkscape:original-d="m 105.79646,55.081588 c -0.53692,-2.384512 -1.0741,-4.769289 -1.61155,-7.154331 -0.53744,-2.385041 -3.2004,-0.220472 -4.800999,-0.331104 -1.6006,-0.110633 -2.648564,-4.193715 -3.973245,-6.290969 C 94.085987,39.20793 92.01222,41.169892 90.3126,41.101849 88.61298,41.033799 87.119881,39.637335 85.523123,38.904683 83.926368,38.172028 77.54652,35.729177 73.557824,34.141029 c -3.988697,-1.588151 -9.656926,2.65e-4 -14.485786,0 -4.82886,-2.64e-4 1.435047,6.983725 2.152174,10.47519 0.717127,3.491468 -3.807428,4.470165 -5.711538,6.704851 -1.904111,2.234684 6.23605,10.485213 9.353678,15.727424 3.117629,5.24221 -0.77231,5.9827 -1.158862,8.973653 -0.386553,2.990953 4.083877,2.792076 6.125418,4.187719 2.041541,1.39564 10.98187,1.876517 16.472408,2.814381 5.490538,0.937863 11.533709,-1.544886 17.300164,-2.317726 5.76646,-0.77284 19.03873,-3.917797 28.55769,-5.877089 9.51897,-1.959296 -8.11177,-11.500525 -12.16806,-17.251183 -4.05628,-5.750658 -0.38602,-9.358479 -0.57943,-14.038117 -0.19341,-4.679635 10.92669,-11.257258 16.38963,-16.886287" />
    <ellipse
       style="fill:none;stroke:#808080;stroke-width:0.25;stroke-dasharray:1, 0.25;stroke-dashoffset:0"
       id="path5214"
       cx="84.773125"
       cy="38.80032"
       rx="16.154671"
       ry="16.124994" />
    <circle
       style="fill:none;stroke:#808080;stroke-width:0.25;stroke-dasharray:1, 0.25;stroke-dashoffset:0"
       id="path5216"
       cx="55.693989"
       cy="55.388725"
       r="29.204134" />
    <circle
       style="fill:none;stroke:#808080;stroke-width:0.25;stroke-dasharray:1, 0.25;stroke-dashoffset:0"
       id="path5218"
       cx="85.023125"
       cy="83.313812"
       r="28.358824" />
  </g>
</svg>
