<?xml version="1.0" encoding="UTF-8" standalone="no"?>
<!-- Created with Inkscape (http://www.inkscape.org/) -->

<svg
   width="210mm"
   height="297mm"
   viewBox="0 0 210 297"
   version="1.1"
   id="svg5"
   inkscape:version="1.2.2 (b0a8486541, 2022-12-01)"
   sodipodi:docname="orientation_on_curve.svg"
   xmlns:inkscape="http://www.inkscape.org/namespaces/inkscape"
   xmlns:sodipodi="http://sodipodi.sourceforge.net/DTD/sodipodi-0.dtd"
   xmlns="http://www.w3.org/2000/svg"
   xmlns:svg="http://www.w3.org/2000/svg">
  <sodipodi:namedview
     id="namedview7"
     pagecolor="#ffffff"
     bordercolor="#000000"
     borderopacity="0.25"
     inkscape:showpageshadow="2"
     inkscape:pageopacity="0.0"
     inkscape:pagecheckerboard="0"
     inkscape:deskcolor="#d1d1d1"
     inkscape:document-units="mm"
     showgrid="false"
     inkscape:zoom="3.744293"
     inkscape:cx="516.1188"
     inkscape:cy="269.74385"
     inkscape:window-width="1920"
     inkscape:window-height="1019"
     inkscape:window-x="1920"
     inkscape:window-y="32"
     inkscape:window-maximized="1"
     inkscape:current-layer="layer1" />
  <defs
     id="defs2">
    <inkscape:path-effect
       effect="spiro"
       id="path-effect1322"
       is_visible="true"
       lpeversion="1" />
    <marker
       style="overflow:visible"
       id="Arrow1"
       refX="0"
       refY="0"
       orient="auto"
       inkscape:stockid="Arrow1"
       markerWidth="4.0606599"
       markerHeight="6.7071066"
       viewBox="0 0 4.0606602 6.7071068"
       inkscape:isstock="true"
       inkscape:collect="always"
       preserveAspectRatio="xMidYMid">
      <path
         style="fill:none;stroke:context-stroke;stroke-width:1;stroke-linecap:butt"
         d="m -2.75,3 3,-3 -3,-3"
         id="path5057"
         sodipodi:nodetypes="ccc" />
    </marker>
    <inkscape:path-effect
       effect="spiro"
       id="path-effect1173"
       is_visible="true"
       lpeversion="1" />
  </defs>
  <g
     inkscape:label="Layer 1"
     inkscape:groupmode="layer"
     id="layer1">
    <circle
       style="fill:none;stroke:#000000;stroke-width:0.264999;stroke-linejoin:bevel;marker-mid:url(#Arrow1);marker-start:url(#Arrow1)"
       id="path788"
       cx="-58.720093"
       cy="68.455864"
       r="22.065683"
       transform="scale(-1,1)" />
    <path
       style="stroke-linejoin:bevel;stroke-width:0.264999;stroke:#000000;fill:none;marker-mid:url(#Arrow1)"
       d="m 113.97218,58.962291 c 0.64432,-0.03761 1.29371,-0.04942 1.93234,0.04394 0.63863,0.09336 1.26936,0.295959 1.80324,0.65865 0.53387,0.362692 0.96565,0.894483 1.14052,1.51576 0.0874,0.310639 0.10989,0.640474 0.0558,0.958612 -0.0541,0.318138 -0.18563,0.624007 -0.38689,0.876266 -0.30963,0.388078 -0.76615,0.632414 -1.2335,0.799906 -0.46735,0.167493 -0.95625,0.268391 -1.42538,0.430834 -0.46913,0.162443 -0.92966,0.396039 -1.25167,0.773898 -0.16101,0.188929 -0.2842,0.412313 -0.34236,0.653632 -0.0582,0.241319 -0.0494,0.50071 0.04,0.732289 0.10498,0.271998 0.31494,0.493599 0.55525,0.658697 0.24031,0.165098 0.5115,0.278916 0.78218,0.387258 0.27068,0.108342 0.54456,0.213129 0.79482,0.362711 0.25026,0.149582 0.47852,0.348409 0.61697,0.604993 0.1304,0.241659 0.17462,0.525671 0.14236,0.798366 -0.0323,0.272694 -0.13875,0.534021 -0.29069,0.762746 -0.3039,0.457451 -0.77622,0.776105 -1.26358,1.02928 -0.48735,0.253175 -1.00266,0.453654 -1.47095,0.740578 -0.46828,0.286925 -0.89784,0.67748 -1.09878,1.188595 -0.12945,0.329269 -0.15689,0.6947 -0.10039,1.04396 0.0565,0.34926 0.19491,0.682655 0.3832,0.982189 0.37658,0.599067 0.94085,1.054731 1.52072,1.460252 0.57988,0.405521 1.18944,0.775476 1.70844,1.256454 0.51899,0.480979 0.95012,1.095359 1.05575,1.795031 0.0788,0.522242 -0.0294,1.060909 -0.24029,1.545162 -0.21083,0.484252 -0.52053,0.919203 -0.85514,1.327848 -0.66921,0.81729 -1.46236,1.569693 -1.85624,2.549829 -0.44156,1.098775 -0.3073,2.393099 0.27701,3.42308 0.58431,1.029982 1.5904,1.794128 2.71452,2.166472 1.12411,0.372344 2.35673,0.366339 3.50357,0.07129 1.14683,-0.295053 2.21051,-0.870406 3.14582,-1.596683 0.69219,-0.537491 1.3222,-1.162938 1.81193,-1.889705 0.48973,-0.726767 0.83638,-1.558052 0.94471,-2.4277 0.15669,-1.25795 -0.18895,-2.532965 -0.72094,-3.683605 -0.53199,-1.150641 -1.24688,-2.205344 -1.88565,-3.300315 -0.63878,-1.094971 -1.21038,-2.255655 -1.41379,-3.506901 -0.1017,-0.625623 -0.10887,-1.269616 0.0143,-1.891371 0.12316,-0.621755 0.37911,-1.220912 0.7716,-1.718607 0.27592,-0.349875 0.61386,-0.644701 0.93928,-0.949084 0.32541,-0.304382 0.64385,-0.625047 0.86785,-1.01023 0.25707,-0.442055 0.37925,-0.955535 0.39028,-1.466787 0.011,-0.511251 -0.0861,-1.020947 -0.24456,-1.50713 -0.31703,-0.972365 -0.87221,-1.8458 -1.34747,-2.751411 -0.47526,-0.90561 -0.88147,-1.888213 -0.85858,-2.910698 0.0114,-0.511242 0.13414,-1.02462 0.39173,-1.466378 0.25759,-0.441757 0.6546,-0.808174 1.13156,-0.992591 0.32679,-0.126354 0.6849,-0.165878 1.03325,-0.128314 0.34835,0.03756 0.68687,0.15109 0.99475,0.318321 0.61576,0.334462 1.09959,0.875518 1.46675,1.472363 0.73431,1.193689 1.03462,2.612765 1.75816,3.813016 0.65505,1.086634 1.62603,1.9439 2.38832,2.958183 0.38115,0.507142 0.71245,1.059402 0.9059,1.663591 0.19344,0.604189 0.24311,1.264923 0.0667,1.874289 -0.187,0.645753 -0.60992,1.192446 -1.01737,1.727188 -0.40745,0.534743 -0.81796,1.094761 -0.9727,1.748995 -0.10325,0.436541 -0.0858,0.897701 0.0238,1.332702 0.10956,0.435001 0.30935,0.844505 0.5622,1.21504 0.5057,0.741069 1.21244,1.319178 1.92749,1.861047 0.71505,0.541868 1.45465,1.063845 2.05846,1.727422 0.6038,0.663576 1.06997,1.495756 1.11183,2.39195 0.0338,0.72331 -0.20768,1.428983 -0.46825,2.104573 -0.26057,0.675589 -0.54685,1.355445 -0.60939,2.076838 -0.0732,0.844674 0.1768,1.709882 0.67225,2.397897 0.49545,0.688016 1.22962,1.196433 2.04208,1.438823 0.81245,0.242391 1.6982,0.220868 2.50484,-0.0402 0.80665,-0.261068 1.53237,-0.758025 2.08416,-1.401734 0.78591,-0.91682 1.20997,-2.118965 1.25749,-3.325594 0.0475,-1.206629 -0.26935,-2.41433 -0.82804,-3.484881 -0.63101,-1.209136 -1.55333,-2.23709 -2.46704,-3.249668 -0.91371,-1.012577 -1.83852,-2.037691 -2.47597,-3.243445 -0.42816,-0.809882 -0.72042,-1.696686 -0.80773,-2.608611 -0.0873,-0.911925 0.0344,-1.849144 0.39765,-2.690123 0.40839,-0.945352 1.10013,-1.735191 1.65013,-2.605805 0.275,-0.435307 0.51683,-0.896055 0.66227,-1.389985 0.14543,-0.493929 0.19135,-1.024196 0.0753,-1.525844 -0.17808,-0.769793 -0.72276,-1.412747 -1.35962,-1.880404 -0.63686,-0.467658 -1.36864,-0.785073 -2.08257,-1.123599 -0.71392,-0.338526 -1.42773,-0.709902 -1.99408,-1.26085 -0.28317,-0.275474 -0.52662,-0.594781 -0.69488,-0.95222 -0.16826,-0.357438 -0.25974,-0.75393 -0.24034,-1.148514 0.02,-0.407575 0.15899,-0.80718 0.38722,-1.145458 0.22822,-0.338278 0.54427,-0.615179 0.90459,-0.806714 0.54516,-0.289789 1.18387,-0.381408 1.79747,-0.313085 0.61361,0.06832 1.20343,0.290703 1.74081,0.594687 1.07475,0.607969 1.93328,1.525041 2.84848,2.353971 0.98072,0.888276 2.04274,1.687683 2.97322,2.628462 0.93047,0.940779 1.7389,2.052091 2.06743,3.333857 0.23987,0.935856 0.21362,1.919394 0.11844,2.880802 -0.0952,0.961407 -0.25769,1.917568 -0.28556,2.883273 -0.0208,0.719323 0.0342,1.444284 0.21439,2.140987 0.18018,0.696703 0.48841,1.365482 0.94224,1.923959 0.45383,0.558477 1.05719,1.003159 1.74214,1.223835 0.68495,0.220676 1.45118,0.208238 2.11045,-0.08023 0.46561,-0.203731 0.86925,-0.539045 1.17599,-0.944265 0.30675,-0.405219 0.51821,-0.878813 0.64088,-1.372017 0.24532,-0.986407 0.13685,-2.03073 -0.11079,-3.016559 -0.31552,-1.256074 -0.85356,-2.459603 -1.02261,-3.743619 -0.0845,-0.642008 -0.0736,-1.303588 0.10431,-1.926226 0.17788,-0.622638 0.53101,-1.205237 1.04692,-1.596587 0.55232,-0.418966 1.24648,-0.594789 1.86834,-0.90118 0.31093,-0.153195 0.60877,-0.343038 0.84278,-0.598742 0.23402,-0.255704 0.40099,-0.582682 0.42095,-0.928728 0.0206,-0.356168 -0.11796,-0.712913 -0.35002,-0.983882 -0.23207,-0.270968 -0.55228,-0.459002 -0.89385,-0.561982 -0.68315,-0.205958 -1.42036,-0.0799 -2.11017,0.102489 -0.68982,0.182392 -1.37577,0.421433 -2.08906,0.439628 -0.35664,0.0091 -0.71796,-0.03888 -1.04859,-0.172897 -0.33063,-0.134019 -0.62955,-0.35751 -0.82477,-0.656119 -0.22144,-0.338725 -0.29935,-0.757334 -0.27507,-1.161293 0.0243,-0.403958 0.14488,-0.796406 0.29441,-1.172457 0.29905,-0.752102 0.72324,-1.481625 0.76636,-2.289852 0.0335,-0.62758 -0.17543,-1.258613 -0.54503,-1.766911 -0.36961,-0.508298 -0.89369,-0.895866 -1.4733,-1.13884 -1.15921,-0.485948 -2.49062,-0.391861 -3.69769,-0.0413 -0.60597,0.175987 -1.19918,0.414839 -1.8258,0.489058 -0.31332,0.03711 -0.63403,0.03188 -0.94043,-0.04338 -0.30639,-0.07526 -0.59839,-0.222936 -0.82183,-0.445682 -0.27795,-0.277086 -0.43656,-0.655267 -0.51634,-1.039544 -0.0798,-0.384277 -0.0869,-0.779305 -0.10184,-1.171493 -0.0149,-0.392187 -0.0386,-0.788232 -0.14967,-1.164658 -0.11108,-0.376426 -0.31795,-0.736166 -0.63751,-0.964008 -0.18612,-0.132702 -0.40558,-0.216789 -0.6318,-0.249629 -0.22621,-0.03284 -0.4589,-0.01498 -0.67949,0.04498 -0.44117,0.119915 -0.82626,0.405742 -1.11487,0.760305 -0.57721,0.709127 -0.76971,1.645232 -0.97513,2.536207 -0.10271,0.445488 -0.2137,0.891203 -0.38844,1.313668 -0.17473,0.422465 -0.4164,0.823424 -0.75077,1.135199 -0.33437,0.311776 -0.76722,0.529631 -1.22358,0.556897 -0.22818,0.01363 -0.45988,-0.02051 -0.67181,-0.106186 -0.21192,-0.08567 -0.40354,-0.22338 -0.54676,-0.401537 -0.15152,-0.188476 -0.24668,-0.418906 -0.2903,-0.656768 -0.0436,-0.237861 -0.037,-0.483185 0.001,-0.721984 0.0763,-0.477598 0.2754,-0.925141 0.45033,-1.376055 0.17492,-0.450914 0.3292,-0.923606 0.3088,-1.40683 -0.0102,-0.241613 -0.0653,-0.483158 -0.17747,-0.697404 -0.11215,-0.214246 -0.28306,-0.400191 -0.49615,-0.51453 -0.16943,-0.09091 -0.36281,-0.135187 -0.55508,-0.132639 -0.19226,0.0025 -0.38313,0.05141 -0.55554,0.136522 -0.34482,0.170235 -0.60858,0.482522 -0.7593,0.836309 -0.15071,0.353788 -0.19426,0.74679 -0.16922,1.130529 0.025,0.383738 0.11646,0.760226 0.22696,1.128562 0.22101,0.736672 0.52267,1.466033 0.53751,2.234999 0.007,0.384483 -0.0604,0.77545 -0.23768,1.116697 -0.1773,0.341247 -0.47011,0.62941 -0.83114,0.761845 -0.21442,0.07866 -0.44781,0.1013 -0.67483,0.07622 -0.22701,-0.02508 -0.44772,-0.09714 -0.6511,-0.201063 -0.40677,-0.207851 -0.73901,-0.538054 -1.02323,-0.895655 -0.28422,-0.357601 -0.52667,-0.74639 -0.80014,-1.112274 -0.27348,-0.365884 -0.58353,-0.713457 -0.97019,-0.956679 -0.44811,-0.28188 -0.98045,-0.410041 -1.50927,-0.434644 -0.52883,-0.0246 -1.05737,0.04983 -1.57758,0.148037 -1.04042,0.196413 -2.10239,0.489739 -3.14152,0.286607 -0.82679,-0.161625 -1.5623,-0.626352 -2.22787,-1.142808 -0.66557,-0.516456 -1.28604,-1.095338 -2.00021,-1.542173 -0.71418,-0.446835 -1.55108,-0.759432 -2.38849,-0.667412 -0.4187,0.04601 -0.82934,0.195473 -1.16298,0.452597 -0.33364,0.257123 -0.5865,0.624535 -0.68053,1.035127 -0.0748,0.326457 -0.0491,0.669608 0.0279,0.995555 0.077,0.325948 0.20376,0.637696 0.33238,0.946921 0.12862,0.309224 0.25998,0.618681 0.34668,0.942171 0.0867,0.32349 0.12779,0.664037 0.0728,0.994393 -0.0717,0.430627 -0.30325,0.821349 -0.58986,1.150647 -0.28662,0.329299 -0.62858,0.604835 -0.96297,0.885494 -0.33439,0.28066 -0.66593,0.571323 -0.92455,0.923035 -0.25862,0.351712 -0.44187,0.772911 -0.44218,1.209472 -3.3e-4,0.457851 0.20423,0.9035 0.51785,1.237072 0.31362,0.333571 0.7297,0.560262 1.16807,0.692419 0.87672,0.264315 1.81507,0.162019 2.72922,0.108658 z"
       id="path1171"
       inkscape:path-effect="#path-effect1173"
       inkscape:original-d="m 113.97218,58.962291 c 1.47145,0.679117 3.03025,2.70242 4.54498,4.053231 1.51474,1.350815 -2.80835,2.260637 -4.21293,3.390559 -1.40458,1.129922 1.83308,1.342702 2.74922,2.013659 0.91615,0.670954 -2.65416,3.013308 -3.98164,4.519565 -1.32748,1.50626 3.04541,4.358857 4.56772,6.537886 1.52231,2.179031 -1.96752,3.615491 -2.95167,5.422839 -0.98416,1.807347 6.42754,2.709701 9.64092,4.064156 3.21337,1.354455 1.83802,-2.878005 2.75664,-4.317405 0.91861,-1.439399 -2.15607,-9.40027 -3.23449,-14.100799 -1.07843,-4.700532 1.20501,-1.305946 1.80713,-1.959314 0.60211,-0.65337 -0.35777,-7.396398 -0.53704,-11.094995 -0.17928,-3.698594 3.5022,3.65052 5.25291,5.475386 1.7507,1.824863 2.24084,4.330972 3.36087,6.496063 1.12002,2.165091 -1.32645,2.317721 -1.99007,3.476183 -0.66362,1.158465 3.78944,5.685705 5.68377,8.528161 1.89433,2.842453 -0.71816,2.787872 -1.07764,4.181411 -0.35948,1.39354 4.86915,1.59679 7.30333,2.394786 2.43418,0.798 0.28656,-4.540051 0.42945,-6.810475 0.14288,-2.270424 -3.29508,-4.328477 -4.94301,-6.493113 -1.64794,-2.164636 -0.27312,-3.532225 -0.41008,-5.298734 -0.13695,-1.766509 1.59207,-3.680825 2.3877,-5.521634 0.79564,-1.840812 -4.24739,-4.243462 -6.37149,-6.365587 -2.12409,-2.122127 0.86147,-1.301183 1.29181,-1.952172 0.43033,-0.650986 4.2581,1.757315 6.38676,2.635573 2.12866,0.87826 3.3607,3.975144 5.04065,5.962319 1.67995,1.987174 -0.11115,3.84298 -0.16712,5.764075 -0.056,1.921094 3.33974,3.472629 5.00922,5.208547 1.66948,1.735916 1.13765,-3.554962 1.70608,-5.332841 0.56843,-1.777878 0.086,-4.844023 0.12862,-7.266432 0.0426,-2.422411 2.08831,-1.618837 3.13207,-2.42865 1.04376,-0.809815 -4.87737,-1.221578 -7.31646,-1.832763 -2.43908,-0.611185 0.52407,-3.082137 0.7857,-4.623602 0.26164,-1.541465 -3.81041,-1.964436 -5.71602,-2.947051 -1.90561,-0.982614 -2.39178,2.65e-4 -3.58806,0 -1.19629,-2.64e-4 -0.93664,-2.892872 -1.40536,-4.339703 -0.46871,-1.446835 -4.65483,3.726868 -6.98265,5.589905 -2.32781,1.863037 -0.13551,-3.582117 -0.20367,-5.373571 -0.0682,-1.791457 -1.56206,4.808812 -2.34349,7.212824 -0.78143,2.40401 -2.74606,-2.059371 -4.11949,-3.089455 -1.37343,-1.030081 -4.15198,2.65e-4 -6.22837,0 -2.07639,-2.64e-4 -5.63979,-1.242848 -8.46008,-1.864669 -2.82029,-0.621821 0.52007,2.586291 0.7797,3.87904 0.25964,1.292749 -1.94611,2.779363 -2.91956,4.168648 -0.97346,1.389285 2.94369,1.35903 4.41514,2.038149 z" />
    <circle
       id="path1256"
       style="fill:#000000;stroke:none;stroke-width:0.264583"
       cx="120.60616"
       cy="85.905342"
       r="0.39749998" />
    <text
       xml:space="preserve"
       style="font-size:3.175px;fill:none;stroke:#000000;stroke-width:0.264999;stroke-linejoin:bevel"
       x="119.76355"
       y="84.503571"
       id="text1312"><tspan
         sodipodi:role="line"
         id="tspan1310"
         style="stroke-width:0.265"
         x="119.76355"
         y="84.503571">$M$</tspan></text>
    <text
       xml:space="preserve"
       style="font-size:3.175px;fill:none;stroke:#000000;stroke-width:0.264999;stroke-linejoin:bevel"
       x="161.62534"
       y="79.499763"
       id="text1316"><tspan
         sodipodi:role="line"
         id="tspan1314"
         style="stroke-width:0.265"
         x="161.62534"
         y="79.499763">$N$</tspan></text>
    <circle
       id="path1318"
       style="fill:#000000;stroke:none;stroke-width:0.264583"
       cx="162.67088"
       cy="81.555931"
       r="0.39749998" />
    <path
       style="fill:none;stroke:#0000ff;stroke-width:0.264999;stroke-linejoin:bevel"
       d="m 120.60616,85.905342 c -2.33333,-3.613558 -2.89834,-8.313324 -1.48795,-12.376949 0.65005,-1.872921 1.69985,-3.644377 1.88545,-5.618192 0.17156,-1.824566 -0.41489,-3.622265 -0.74743,-5.424455 -0.16628,-0.901095 -0.26983,-1.821713 -0.18254,-2.733852 0.0873,-0.912139 0.37497,-1.820172 0.92997,-2.549277 0.56306,-0.739689 1.38052,-1.264678 2.2625,-1.558417 0.88198,-0.293739 1.82702,-0.365685 2.75456,-0.303813 1.8551,0.123745 3.63083,0.766489 5.44878,1.156023 4.96376,1.06359 10.11255,0.223814 15.18855,0.29029 3.13718,0.04108 6.37046,0.464942 9.07564,2.054167 1.35258,0.794613 2.54921,1.878273 3.38074,3.208482 0.83153,1.330209 1.28504,2.912468 1.17497,4.477327 -0.0826,1.174182 -0.47343,2.30697 -0.9623,3.377731 -0.48888,1.070761 -1.07766,2.092986 -1.58725,3.154046 -0.50958,1.06106 -0.9431,2.174102 -1.09396,3.341478 -0.15086,1.167376 -9.2e-4,2.400498 0.59347,3.41648 0.52564,0.89846 1.39133,1.592366 2.38266,1.909852 0.99132,0.317487 2.09907,0.2556 3.04886,-0.170333"
       id="path1320"
       inkscape:path-effect="#path-effect1322"
       inkscape:original-d="m 120.60616,85.905342 c -0.49572,-4.125386 -0.9917,-8.251037 -1.48795,-12.376949 -0.49625,-4.125915 1.25723,-3.745196 1.88545,-5.618192 0.62822,-1.872996 2.7e-4,-7.138125 0,-10.707584 -2.6e-4,-3.569457 6.97749,-0.47054 10.46584,-0.706207 3.48834,-0.235667 10.12596,0.193791 15.18855,0.29029 5.06258,0.0965 9.08783,6.493584 13.63135,9.739976 4.54352,3.246396 -2.0331,8.860089 -3.05004,13.289735 -1.01695,4.429649 3.62128,1.159944 5.43152,1.739519" />
    <text
       xml:space="preserve"
       style="stroke-linejoin:bevel;stroke-width:0.264999;stroke:#000000;fill:none;font-size:3.175px;"
       x="160.06763"
       y="63.085453"
       id="text1438"><tspan
         sodipodi:role="line"
         id="tspan1436"
         style="fill:#000000;stroke:#000000;stroke-width:0.265"
         x="160.06763"
         y="63.085453">$L$</tspan></text>
  </g>
</svg>
